G04*
G04 #@! TF.GenerationSoftware,Altium Limited,Altium Designer,20.1.14 (287)*
G04*
G04 Layer_Color=16711935*
%FSLAX25Y25*%
%MOIN*%
G70*
G04*
G04 #@! TF.SameCoordinates,41C541CE-8B16-402B-B8EC-46EACFEFE534*
G04*
G04*
G04 #@! TF.FilePolarity,Positive*
G04*
G01*
G75*
%ADD12C,0.00787*%
%ADD13C,0.00600*%
D12*
X435413Y242622D02*
Y255378D01*
Y242622D02*
X449587D01*
Y255378D01*
X435413D02*
X449587D01*
X383527Y258945D02*
X401473D01*
Y250055D02*
Y258945D01*
X383527Y250055D02*
X401473D01*
X383527D02*
Y258945D01*
X384138Y269260D02*
X401461D01*
X384138D02*
Y276740D01*
X401461D01*
Y269260D02*
Y276740D01*
X234108Y267945D02*
X252054D01*
Y259055D02*
Y267945D01*
X234108Y259055D02*
X252054D01*
X234108D02*
Y267945D01*
D13*
X443100Y251858D02*
Y249359D01*
X443600Y248859D01*
X444599D01*
X445099Y249359D01*
Y251858D01*
X448098Y248859D02*
X446099D01*
X448098Y250858D01*
Y251358D01*
X447599Y251858D01*
X446599D01*
X446099Y251358D01*
X395099Y257599D02*
X394600Y258099D01*
X393600D01*
X393100Y257599D01*
Y255600D01*
X393600Y255100D01*
X394600D01*
X395099Y255600D01*
X398098Y258099D02*
X396099D01*
Y256599D01*
X397099Y257099D01*
X397599D01*
X398098Y256599D01*
Y255600D01*
X397599Y255100D01*
X396599D01*
X396099Y255600D01*
X392199Y272400D02*
Y269401D01*
X390700D01*
X390200Y269901D01*
Y270901D01*
X390700Y271400D01*
X392199D01*
X391200D02*
X390200Y272400D01*
X387201D02*
X389200D01*
X387201Y270401D01*
Y269901D01*
X387701Y269401D01*
X388700D01*
X389200Y269901D01*
X245680Y266599D02*
X245181Y267099D01*
X244181D01*
X243681Y266599D01*
Y264600D01*
X244181Y264100D01*
X245181D01*
X245680Y264600D01*
X246680Y264100D02*
X247680D01*
X247180D01*
Y267099D01*
X246680Y266599D01*
M02*
