G04*
G04 #@! TF.GenerationSoftware,Altium Limited,Altium Designer,20.1.14 (287)*
G04*
G04 Layer_Color=65535*
%FSLAX25Y25*%
%MOIN*%
G70*
G04*
G04 #@! TF.SameCoordinates,41C541CE-8B16-402B-B8EC-46EACFEFE534*
G04*
G04*
G04 #@! TF.FilePolarity,Positive*
G04*
G01*
G75*
%ADD10C,0.01575*%
%ADD11C,0.00984*%
%ADD12C,0.00787*%
%ADD13C,0.00600*%
%ADD14C,0.00700*%
%ADD15C,0.00800*%
D10*
X318752Y263606D02*
X318208Y264355D01*
X317328Y264069D01*
Y263143D01*
X318208Y262857D01*
X318752Y263606D01*
X360094Y263213D02*
X359550Y263962D01*
X358670Y263675D01*
Y262750D01*
X359550Y262464D01*
X360094Y263213D01*
D11*
X314146Y254551D02*
X313407Y254977D01*
Y254125D01*
X314146Y254551D01*
X355646Y254748D02*
X354907Y255174D01*
Y254322D01*
X355646Y254748D01*
D12*
X314815Y260457D02*
X354185D01*
X314815Y267543D02*
X354185D01*
X314815Y260457D02*
Y267543D01*
X354185Y260457D02*
Y267543D01*
X439744Y247917D02*
Y250083D01*
X442402Y243016D02*
X445256D01*
Y251658D02*
Y254984D01*
Y243016D02*
Y246342D01*
X442402Y254984D02*
X445256D01*
X375842Y260063D02*
Y267937D01*
X356157Y260063D02*
Y267937D01*
X375842D01*
X356157Y260063D02*
X375842D01*
X390832Y251039D02*
X394168D01*
X390832Y257961D02*
X394168D01*
X391134Y248650D02*
X394677D01*
X391134Y242350D02*
X394677D01*
X389945Y269654D02*
X395654D01*
X389945Y276346D02*
X395654D01*
X391134Y261350D02*
X394677D01*
X391134Y267650D02*
X394677D01*
X240634Y271153D02*
X244965D01*
X240634Y277847D02*
X244965D01*
X241413Y260039D02*
X244749D01*
X241413Y266961D02*
X244749D01*
X391032Y284650D02*
X394969D01*
X391032Y278350D02*
X394969D01*
D13*
X381000Y257000D02*
X380500Y257500D01*
X379501D01*
X379001Y257000D01*
Y255000D01*
X379501Y254501D01*
X380500D01*
X381000Y255000D01*
X383999Y257500D02*
X382000D01*
Y256000D01*
X382999Y256500D01*
X383499D01*
X383999Y256000D01*
Y255000D01*
X383499Y254501D01*
X382500D01*
X382000Y255000D01*
X356100Y185600D02*
Y188099D01*
X357350D01*
X357766Y187683D01*
Y186850D01*
X357350Y186433D01*
X356100D01*
X356933D02*
X357766Y185600D01*
X359849D02*
X359016D01*
X358599Y186016D01*
Y186850D01*
X359016Y187266D01*
X359849D01*
X360265Y186850D01*
Y186433D01*
X358599D01*
X361098Y187266D02*
X361931Y185600D01*
X362765Y187266D01*
X363598Y185600D02*
X364431D01*
X364014D01*
Y187266D01*
X363598D01*
X365680Y185600D02*
X366930D01*
X367346Y186016D01*
X366930Y186433D01*
X366097D01*
X365680Y186850D01*
X366097Y187266D01*
X367346D01*
X368179Y185600D02*
X369012D01*
X368596D01*
Y187266D01*
X368179D01*
X370679Y185600D02*
X371512D01*
X371928Y186016D01*
Y186850D01*
X371512Y187266D01*
X370679D01*
X370262Y186850D01*
Y186016D01*
X370679Y185600D01*
X372761D02*
Y187266D01*
X374011D01*
X374427Y186850D01*
Y185600D01*
X377760D02*
X378593D01*
X378176D01*
Y188099D01*
X377760Y187683D01*
X379842Y185600D02*
Y186016D01*
X380259D01*
Y185600D01*
X379842D01*
X381925Y187683D02*
X382342Y188099D01*
X383175D01*
X383591Y187683D01*
Y186016D01*
X383175Y185600D01*
X382342D01*
X381925Y186016D01*
Y187683D01*
X384424Y185600D02*
Y186016D01*
X384841D01*
Y185600D01*
X384424D01*
X386507Y187683D02*
X386923Y188099D01*
X387756D01*
X388173Y187683D01*
Y186016D01*
X387756Y185600D01*
X386923D01*
X386507Y186016D01*
Y187683D01*
X325933Y296766D02*
X325600Y297099D01*
X324933D01*
X324600Y296766D01*
Y295433D01*
X324933Y295100D01*
X325600D01*
X325933Y295433D01*
X326599Y297099D02*
Y295100D01*
X327932D01*
X328599Y297099D02*
Y295100D01*
Y295766D01*
X329932Y297099D01*
X328932Y296100D01*
X329932Y295100D01*
X316933Y296766D02*
X316600Y297099D01*
X315933D01*
X315600Y296766D01*
Y295433D01*
X315933Y295100D01*
X316600D01*
X316933Y295433D01*
X318932Y296766D02*
X318599Y297099D01*
X317933D01*
X317599Y296766D01*
Y296433D01*
X317933Y296100D01*
X318599D01*
X318932Y295766D01*
Y295433D01*
X318599Y295100D01*
X317933D01*
X317599Y295433D01*
X244100Y295100D02*
Y296433D01*
X244766Y297099D01*
X245433Y296433D01*
Y295100D01*
Y296100D01*
X244100D01*
X247432Y296766D02*
X247099Y297099D01*
X246433D01*
X246099Y296766D01*
Y295433D01*
X246433Y295100D01*
X247099D01*
X247432Y295433D01*
Y296100D01*
X246766D01*
X248099Y295100D02*
Y297099D01*
X249432Y295100D01*
Y297099D01*
X250098D02*
Y295100D01*
X251098D01*
X251431Y295433D01*
Y296766D01*
X251098Y297099D01*
X250098D01*
X237933D02*
X236600D01*
Y296100D01*
X237266Y296433D01*
X237600D01*
X237933Y296100D01*
Y295433D01*
X237600Y295100D01*
X236933D01*
X236600Y295433D01*
X238599Y297099D02*
Y295766D01*
X239266Y295100D01*
X239932Y295766D01*
Y297099D01*
X333600Y295100D02*
Y297099D01*
X334266Y296433D01*
X334933Y297099D01*
Y295100D01*
X335599Y297099D02*
X336266D01*
X335933D01*
Y295100D01*
X335599D01*
X336266D01*
X338598Y296766D02*
X338265Y297099D01*
X337599D01*
X337265Y296766D01*
Y296433D01*
X337599Y296100D01*
X338265D01*
X338598Y295766D01*
Y295433D01*
X338265Y295100D01*
X337599D01*
X337265Y295433D01*
X340265Y297099D02*
X339598D01*
X339265Y296766D01*
Y295433D01*
X339598Y295100D01*
X340265D01*
X340598Y295433D01*
Y296766D01*
X340265Y297099D01*
X343600Y295100D02*
Y297099D01*
X344266Y296433D01*
X344933Y297099D01*
Y295100D01*
X346599Y297099D02*
X345933D01*
X345599Y296766D01*
Y295433D01*
X345933Y295100D01*
X346599D01*
X346932Y295433D01*
Y296766D01*
X346599Y297099D01*
X348932Y296766D02*
X348598Y297099D01*
X347932D01*
X347599Y296766D01*
Y296433D01*
X347932Y296100D01*
X348598D01*
X348932Y295766D01*
Y295433D01*
X348598Y295100D01*
X347932D01*
X347599Y295433D01*
X349598Y297099D02*
X350265D01*
X349931D01*
Y295100D01*
X349598D01*
X350265D01*
X354000Y248001D02*
X356500D01*
X356999Y248501D01*
Y249500D01*
X356500Y250000D01*
X354000D01*
X354500Y251000D02*
X354000Y251500D01*
Y252499D01*
X354500Y252999D01*
X355000D01*
X355500Y252499D01*
Y251999D01*
Y252499D01*
X356000Y252999D01*
X356500D01*
X356999Y252499D01*
Y251500D01*
X356500Y251000D01*
X447501Y254500D02*
Y252000D01*
X448001Y251501D01*
X449000D01*
X449500Y252000D01*
Y254500D01*
X452499Y251501D02*
X450500D01*
X452499Y253500D01*
Y254000D01*
X451999Y254500D01*
X451000D01*
X450500Y254000D01*
X312000Y249001D02*
X314500D01*
X315000Y249500D01*
Y250500D01*
X314500Y251000D01*
X312000D01*
X315000Y252000D02*
Y252999D01*
Y252500D01*
X312000D01*
X312500Y252000D01*
X402501Y282000D02*
Y284999D01*
X404000D01*
X404500Y284500D01*
Y283500D01*
X404000Y283000D01*
X402501D01*
X403501D02*
X404500Y282000D01*
X406999D02*
Y284999D01*
X405500Y283500D01*
X407499D01*
X402501Y265001D02*
Y268000D01*
X404000D01*
X404500Y267500D01*
Y266500D01*
X404000Y266000D01*
X402501D01*
X403501D02*
X404500Y265001D01*
X405500Y267500D02*
X406000Y268000D01*
X406999D01*
X407499Y267500D01*
Y267000D01*
X406999Y266500D01*
X406499D01*
X406999D01*
X407499Y266000D01*
Y265500D01*
X406999Y265001D01*
X406000D01*
X405500Y265500D01*
X403001Y272500D02*
Y275500D01*
X404500D01*
X405000Y275000D01*
Y274000D01*
X404500Y273500D01*
X403001D01*
X404001D02*
X405000Y272500D01*
X407999D02*
X406000D01*
X407999Y274500D01*
Y275000D01*
X407499Y275500D01*
X406500D01*
X406000Y275000D01*
X379501Y245500D02*
Y248499D01*
X381000D01*
X381500Y248000D01*
Y247000D01*
X381000Y246500D01*
X379501D01*
X380500D02*
X381500Y245500D01*
X382500D02*
X383499D01*
X382999D01*
Y248499D01*
X382500Y248000D01*
X255000Y277500D02*
X254500Y277999D01*
X253501D01*
X253001Y277500D01*
Y275500D01*
X253501Y275001D01*
X254500D01*
X255000Y275500D01*
X256000Y277500D02*
X256500Y277999D01*
X257499D01*
X257999Y277500D01*
Y277000D01*
X257499Y276500D01*
X256999D01*
X257499D01*
X257999Y276000D01*
Y275500D01*
X257499Y275001D01*
X256500D01*
X256000Y275500D01*
X255000Y266000D02*
X254500Y266499D01*
X253501D01*
X253001Y266000D01*
Y264000D01*
X253501Y263500D01*
X254500D01*
X255000Y264000D01*
X256000Y263500D02*
X256999D01*
X256500D01*
Y266499D01*
X256000Y266000D01*
D14*
X357199Y193449D02*
X355200D01*
Y191949D01*
X356200D01*
X355200D01*
Y190450D01*
X359699Y193449D02*
X358699D01*
X358199Y192949D01*
Y190950D01*
X358699Y190450D01*
X359699D01*
X360198Y190950D01*
Y192949D01*
X359699Y193449D01*
X361198Y190450D02*
Y193449D01*
X362698D01*
X363197Y192949D01*
Y191949D01*
X362698Y191450D01*
X361198D01*
X362198D02*
X363197Y190450D01*
X367196D02*
Y193449D01*
X368696D01*
X369196Y192949D01*
Y191949D01*
X368696Y191450D01*
X367196D01*
X368196D02*
X369196Y190450D01*
X370195D02*
Y192449D01*
X371195Y193449D01*
X372195Y192449D01*
Y190450D01*
Y191949D01*
X370195D01*
X375194Y192949D02*
X374694Y193449D01*
X373694D01*
X373194Y192949D01*
Y192449D01*
X373694Y191949D01*
X374694D01*
X375194Y191450D01*
Y190950D01*
X374694Y190450D01*
X373694D01*
X373194Y190950D01*
X376193Y190450D02*
Y193449D01*
X377693D01*
X378193Y192949D01*
Y191949D01*
X377693Y191450D01*
X376193D01*
X379192Y193449D02*
Y190450D01*
X380692D01*
X381192Y190950D01*
Y191450D01*
X380692Y191949D01*
X379192D01*
X380692D01*
X381192Y192449D01*
Y192949D01*
X380692Y193449D01*
X379192D01*
X384191D02*
X382191D01*
Y190450D01*
X384191D01*
X382191Y191949D02*
X383191D01*
X385190Y190450D02*
Y193449D01*
X386690D01*
X387190Y192949D01*
Y191949D01*
X386690Y191450D01*
X385190D01*
X386190D02*
X387190Y190450D01*
X388189D02*
Y193449D01*
X389689D01*
X390189Y192949D01*
Y191949D01*
X389689Y191450D01*
X388189D01*
X389189D02*
X390189Y190450D01*
X391188Y193449D02*
Y192949D01*
X392188Y191949D01*
X393188Y192949D01*
Y193449D01*
X392188Y191949D02*
Y190450D01*
X397186D02*
Y193449D01*
X398686D01*
X399186Y192949D01*
Y191949D01*
X398686Y191450D01*
X397186D01*
X400185Y193449D02*
X401185D01*
X400685D01*
Y190450D01*
X400185D01*
X401185D01*
X405684Y193449D02*
X407683D01*
Y192949D01*
X405684Y190950D01*
Y190450D01*
X407683D01*
X410682Y193449D02*
X408683D01*
Y190450D01*
X410682D01*
X408683Y191949D02*
X409682D01*
X411682Y190450D02*
Y193449D01*
X413181D01*
X413681Y192949D01*
Y191949D01*
X413181Y191450D01*
X411682D01*
X412681D02*
X413681Y190450D01*
X416180Y193449D02*
X415181D01*
X414681Y192949D01*
Y190950D01*
X415181Y190450D01*
X416180D01*
X416680Y190950D01*
Y192949D01*
X416180Y193449D01*
D15*
X356299Y199299D02*
X354966D01*
X354300Y198632D01*
Y195966D01*
X354966Y195300D01*
X356299D01*
X356966Y195966D01*
Y198632D01*
X356299Y199299D01*
X358299D02*
Y195300D01*
X360298D01*
X360964Y195966D01*
Y196633D01*
X360298Y197299D01*
X358299D01*
X360298D01*
X360964Y197966D01*
Y198632D01*
X360298Y199299D01*
X358299D01*
X362297Y195300D02*
Y197966D01*
X363630Y199299D01*
X364963Y197966D01*
Y195300D01*
Y197299D01*
X362297D01*
X366296Y199299D02*
X368962D01*
X367629D01*
Y195300D01*
X372961Y198632D02*
X372294Y199299D01*
X370961D01*
X370295Y198632D01*
Y197966D01*
X370961Y197299D01*
X372294D01*
X372961Y196633D01*
Y195966D01*
X372294Y195300D01*
X370961D01*
X370295Y195966D01*
X374294Y197299D02*
X376959D01*
X380292Y199299D02*
X378959D01*
X378292Y198632D01*
Y195966D01*
X378959Y195300D01*
X380292D01*
X380958Y195966D01*
Y198632D01*
X380292Y199299D01*
X382291Y195300D02*
Y199299D01*
X384957Y195300D01*
Y199299D01*
X390288D02*
Y195300D01*
X392288D01*
X392954Y195966D01*
Y196633D01*
X392288Y197299D01*
X390288D01*
X392288D01*
X392954Y197966D01*
Y198632D01*
X392288Y199299D01*
X390288D01*
X396287D02*
X394953D01*
X394287Y198632D01*
Y195966D01*
X394953Y195300D01*
X396287D01*
X396953Y195966D01*
Y198632D01*
X396287Y199299D01*
X398286Y195300D02*
Y197966D01*
X399619Y199299D01*
X400952Y197966D01*
Y195300D01*
Y197299D01*
X398286D01*
X402284Y195300D02*
Y199299D01*
X404284D01*
X404950Y198632D01*
Y197299D01*
X404284Y196633D01*
X402284D01*
X403617D02*
X404950Y195300D01*
X406283Y199299D02*
Y195300D01*
X408283D01*
X408949Y195966D01*
Y198632D01*
X408283Y199299D01*
X406283D01*
X416947Y198632D02*
X416280Y199299D01*
X414947D01*
X414281Y198632D01*
Y197966D01*
X414947Y197299D01*
X416280D01*
X416947Y196633D01*
Y195966D01*
X416280Y195300D01*
X414947D01*
X414281Y195966D01*
X420945Y199299D02*
X418279D01*
Y195300D01*
X420945D01*
X418279Y197299D02*
X419612D01*
X422278Y195300D02*
Y199299D01*
X424944Y195300D01*
Y199299D01*
X428943Y198632D02*
X428276Y199299D01*
X426943D01*
X426277Y198632D01*
Y197966D01*
X426943Y197299D01*
X428276D01*
X428943Y196633D01*
Y195966D01*
X428276Y195300D01*
X426943D01*
X426277Y195966D01*
X432941Y199299D02*
X430275D01*
Y195300D01*
X432941D01*
X430275Y197299D02*
X431608D01*
M02*
