G04*
G04 #@! TF.GenerationSoftware,Altium Limited,Altium Designer,20.1.14 (287)*
G04*
G04 Layer_Physical_Order=2*
G04 Layer_Color=16711680*
%FSLAX25Y25*%
%MOIN*%
G70*
G04*
G04 #@! TF.SameCoordinates,41C541CE-8B16-402B-B8EC-46EACFEFE534*
G04*
G04*
G04 #@! TF.FilePolarity,Positive*
G04*
G01*
G75*
%ADD16O,0.04000X0.12000*%
%ADD32C,0.02000*%
%ADD33C,0.06000*%
%ADD34C,0.02900*%
%ADD35C,0.02800*%
G36*
X454500Y183500D02*
X201500D01*
Y299000D01*
X454500D01*
Y183500D01*
D02*
G37*
%LPC*%
G36*
X248250Y288379D02*
Y287500D01*
X249129D01*
X249116Y287566D01*
X248795Y288045D01*
X248316Y288366D01*
X248250Y288379D01*
D02*
G37*
G36*
X247250D02*
X247184Y288366D01*
X246705Y288045D01*
X246384Y287566D01*
X246371Y287500D01*
X247250D01*
Y288379D01*
D02*
G37*
G36*
X249129Y286500D02*
X248250D01*
Y285621D01*
X248316Y285634D01*
X248795Y285955D01*
X249116Y286434D01*
X249129Y286500D01*
D02*
G37*
G36*
X247250D02*
X246371D01*
X246384Y286434D01*
X246705Y285955D01*
X247184Y285634D01*
X247250Y285621D01*
Y286500D01*
D02*
G37*
G36*
X399602Y282879D02*
Y282000D01*
X400481D01*
X400468Y282066D01*
X400148Y282545D01*
X399668Y282866D01*
X399602Y282879D01*
D02*
G37*
G36*
X398602D02*
X398537Y282866D01*
X398057Y282545D01*
X397737Y282066D01*
X397723Y282000D01*
X398602D01*
Y282879D01*
D02*
G37*
G36*
X400481Y281000D02*
X399602D01*
Y280121D01*
X399668Y280134D01*
X400148Y280455D01*
X400468Y280934D01*
X400481Y281000D01*
D02*
G37*
G36*
X398602D02*
X397723D01*
X397737Y280934D01*
X398057Y280455D01*
X398537Y280134D01*
X398602Y280121D01*
Y281000D01*
D02*
G37*
G36*
X346500Y294026D02*
X345717Y293923D01*
X344987Y293620D01*
X344360Y293140D01*
X343880Y292513D01*
X343577Y291783D01*
X343474Y291000D01*
Y283000D01*
X343577Y282217D01*
X343880Y281487D01*
X344360Y280860D01*
X344987Y280380D01*
X345717Y280077D01*
X346500Y279974D01*
X347283Y280077D01*
X348013Y280380D01*
X348640Y280860D01*
X349120Y281487D01*
X349423Y282217D01*
X349526Y283000D01*
Y291000D01*
X349423Y291783D01*
X349120Y292513D01*
X348640Y293140D01*
X348013Y293620D01*
X347283Y293923D01*
X346500Y294026D01*
D02*
G37*
G36*
X337000D02*
X336217Y293923D01*
X335487Y293620D01*
X334860Y293140D01*
X334380Y292513D01*
X334077Y291783D01*
X333974Y291000D01*
Y283000D01*
X334077Y282217D01*
X334380Y281487D01*
X334860Y280860D01*
X335487Y280380D01*
X336217Y280077D01*
X337000Y279974D01*
X337783Y280077D01*
X338513Y280380D01*
X339140Y280860D01*
X339620Y281487D01*
X339923Y282217D01*
X340026Y283000D01*
Y291000D01*
X339923Y291783D01*
X339620Y292513D01*
X339140Y293140D01*
X338513Y293620D01*
X337783Y293923D01*
X337000Y294026D01*
D02*
G37*
G36*
X327500D02*
X326717Y293923D01*
X325987Y293620D01*
X325360Y293140D01*
X324880Y292513D01*
X324577Y291783D01*
X324474Y291000D01*
Y283000D01*
X324577Y282217D01*
X324880Y281487D01*
X325360Y280860D01*
X325987Y280380D01*
X326717Y280077D01*
X327500Y279974D01*
X328283Y280077D01*
X329013Y280380D01*
X329640Y280860D01*
X330120Y281487D01*
X330423Y282217D01*
X330526Y283000D01*
Y291000D01*
X330423Y291783D01*
X330120Y292513D01*
X329640Y293140D01*
X329013Y293620D01*
X328283Y293923D01*
X327500Y294026D01*
D02*
G37*
G36*
X317000D02*
X316217Y293923D01*
X315487Y293620D01*
X314860Y293140D01*
X314380Y292513D01*
X314077Y291783D01*
X313974Y291000D01*
Y283000D01*
X314077Y282217D01*
X314380Y281487D01*
X314860Y280860D01*
X315487Y280380D01*
X316217Y280077D01*
X317000Y279974D01*
X317783Y280077D01*
X318513Y280380D01*
X319140Y280860D01*
X319620Y281487D01*
X319923Y282217D01*
X320026Y283000D01*
Y291000D01*
X319923Y291783D01*
X319620Y292513D01*
X319140Y293140D01*
X318513Y293620D01*
X317783Y293923D01*
X317000Y294026D01*
D02*
G37*
G36*
X441000Y292632D02*
X439706Y292505D01*
X438462Y292127D01*
X437316Y291514D01*
X436310Y290689D01*
X435486Y289685D01*
X434873Y288538D01*
X434495Y287294D01*
X434368Y286000D01*
X434495Y284706D01*
X434873Y283462D01*
X435486Y282315D01*
X436310Y281311D01*
X437316Y280486D01*
X438462Y279873D01*
X439706Y279496D01*
X441000Y279368D01*
X442294Y279496D01*
X443538Y279873D01*
X444685Y280486D01*
X445689Y281311D01*
X446514Y282315D01*
X447127Y283462D01*
X447505Y284706D01*
X447632Y286000D01*
X447505Y287294D01*
X447127Y288538D01*
X446514Y289685D01*
X445689Y290689D01*
X444685Y291514D01*
X443538Y292127D01*
X442294Y292505D01*
X441000Y292632D01*
D02*
G37*
G36*
X214000D02*
X212706Y292505D01*
X211462Y292127D01*
X210315Y291514D01*
X209311Y290689D01*
X208486Y289685D01*
X207873Y288538D01*
X207495Y287294D01*
X207368Y286000D01*
X207495Y284706D01*
X207873Y283462D01*
X208486Y282315D01*
X209311Y281311D01*
X210315Y280486D01*
X211462Y279873D01*
X212706Y279496D01*
X214000Y279368D01*
X215294Y279496D01*
X216538Y279873D01*
X217685Y280486D01*
X218689Y281311D01*
X219514Y282315D01*
X220127Y283462D01*
X220504Y284706D01*
X220632Y286000D01*
X220504Y287294D01*
X220127Y288538D01*
X219514Y289685D01*
X218689Y290689D01*
X217685Y291514D01*
X216538Y292127D01*
X215294Y292505D01*
X214000Y292632D01*
D02*
G37*
G36*
X249598Y275879D02*
Y275000D01*
X250477D01*
X250464Y275066D01*
X250144Y275545D01*
X249664Y275866D01*
X249598Y275879D01*
D02*
G37*
G36*
X248598D02*
X248533Y275866D01*
X248053Y275545D01*
X247733Y275066D01*
X247720Y275000D01*
X248598D01*
Y275879D01*
D02*
G37*
G36*
X327500Y274828D02*
Y273949D01*
X328379D01*
X328366Y274015D01*
X328045Y274494D01*
X327566Y274815D01*
X327500Y274828D01*
D02*
G37*
G36*
X326500D02*
X326434Y274815D01*
X325955Y274494D01*
X325634Y274015D01*
X325621Y273949D01*
X326500D01*
Y274828D01*
D02*
G37*
G36*
X250477Y274000D02*
X249598D01*
Y273121D01*
X249664Y273134D01*
X250144Y273455D01*
X250464Y273934D01*
X250477Y274000D01*
D02*
G37*
G36*
X248598D02*
X247720D01*
X247733Y273934D01*
X248053Y273455D01*
X248533Y273134D01*
X248598Y273121D01*
Y274000D01*
D02*
G37*
G36*
X328379Y272949D02*
X327500D01*
Y272070D01*
X327566Y272083D01*
X328045Y272403D01*
X328366Y272883D01*
X328379Y272949D01*
D02*
G37*
G36*
X326500D02*
X325621D01*
X325634Y272883D01*
X325955Y272403D01*
X326434Y272083D01*
X326500Y272070D01*
Y272949D01*
D02*
G37*
G36*
X249000Y264879D02*
Y264000D01*
X249879D01*
X249866Y264066D01*
X249545Y264545D01*
X249066Y264866D01*
X249000Y264879D01*
D02*
G37*
G36*
X248000D02*
X247934Y264866D01*
X247455Y264545D01*
X247134Y264066D01*
X247121Y264000D01*
X248000D01*
Y264879D01*
D02*
G37*
G36*
X400190Y264000D02*
X399311D01*
Y263121D01*
X399377Y263134D01*
X399856Y263455D01*
X400177Y263934D01*
X400190Y264000D01*
D02*
G37*
G36*
X398311D02*
X397432D01*
X397445Y263934D01*
X397766Y263455D01*
X398245Y263134D01*
X398311Y263121D01*
Y264000D01*
D02*
G37*
G36*
X249879Y263000D02*
X249000D01*
Y262121D01*
X249066Y262134D01*
X249545Y262455D01*
X249866Y262934D01*
X249879Y263000D01*
D02*
G37*
G36*
X248000D02*
X247121D01*
X247134Y262934D01*
X247455Y262455D01*
X247934Y262134D01*
X248000Y262121D01*
Y263000D01*
D02*
G37*
G36*
X374000Y256127D02*
Y255248D01*
X374879D01*
X374866Y255314D01*
X374545Y255793D01*
X374066Y256114D01*
X374000Y256127D01*
D02*
G37*
G36*
X373000D02*
X372934Y256114D01*
X372455Y255793D01*
X372134Y255314D01*
X372121Y255248D01*
X373000D01*
Y256127D01*
D02*
G37*
G36*
X408000Y255879D02*
Y255000D01*
X408879D01*
X408866Y255066D01*
X408545Y255545D01*
X408066Y255866D01*
X408000Y255879D01*
D02*
G37*
G36*
X407000D02*
X406934Y255866D01*
X406455Y255545D01*
X406134Y255066D01*
X406121Y255000D01*
X407000D01*
Y255879D01*
D02*
G37*
G36*
X398419D02*
Y255000D01*
X399298D01*
X399285Y255066D01*
X398964Y255545D01*
X398484Y255866D01*
X398419Y255879D01*
D02*
G37*
G36*
X397419D02*
X397353Y255866D01*
X396873Y255545D01*
X396553Y255066D01*
X396540Y255000D01*
X397419D01*
Y255879D01*
D02*
G37*
G36*
X433000Y254379D02*
Y253500D01*
X433879D01*
X433866Y253566D01*
X433545Y254045D01*
X433066Y254366D01*
X433000Y254379D01*
D02*
G37*
G36*
X432000D02*
X431934Y254366D01*
X431455Y254045D01*
X431134Y253566D01*
X431121Y253500D01*
X432000D01*
Y254379D01*
D02*
G37*
G36*
X428000D02*
Y253500D01*
X428879D01*
X428866Y253566D01*
X428545Y254045D01*
X428066Y254366D01*
X428000Y254379D01*
D02*
G37*
G36*
X427000D02*
X426934Y254366D01*
X426455Y254045D01*
X426134Y253566D01*
X426121Y253500D01*
X427000D01*
Y254379D01*
D02*
G37*
G36*
X423000D02*
Y253500D01*
X423879D01*
X423866Y253566D01*
X423545Y254045D01*
X423066Y254366D01*
X423000Y254379D01*
D02*
G37*
G36*
X422000D02*
X421934Y254366D01*
X421455Y254045D01*
X421134Y253566D01*
X421121Y253500D01*
X422000D01*
Y254379D01*
D02*
G37*
G36*
X418000D02*
Y253500D01*
X418879D01*
X418866Y253566D01*
X418545Y254045D01*
X418066Y254366D01*
X418000Y254379D01*
D02*
G37*
G36*
X417000D02*
X416934Y254366D01*
X416455Y254045D01*
X416134Y253566D01*
X416121Y253500D01*
X417000D01*
Y254379D01*
D02*
G37*
G36*
X413000D02*
Y253500D01*
X413879D01*
X413866Y253566D01*
X413545Y254045D01*
X413066Y254366D01*
X413000Y254379D01*
D02*
G37*
G36*
X412000D02*
X411934Y254366D01*
X411455Y254045D01*
X411134Y253566D01*
X411121Y253500D01*
X412000D01*
Y254379D01*
D02*
G37*
G36*
X374879Y254248D02*
X374000D01*
Y253369D01*
X374066Y253382D01*
X374545Y253703D01*
X374866Y254182D01*
X374879Y254248D01*
D02*
G37*
G36*
X373000D02*
X372121D01*
X372134Y254182D01*
X372455Y253703D01*
X372934Y253382D01*
X373000Y253369D01*
Y254248D01*
D02*
G37*
G36*
X408879Y254000D02*
X408000D01*
Y253121D01*
X408066Y253134D01*
X408545Y253455D01*
X408866Y253934D01*
X408879Y254000D01*
D02*
G37*
G36*
X407000D02*
X406121D01*
X406134Y253934D01*
X406455Y253455D01*
X406934Y253134D01*
X407000Y253121D01*
Y254000D01*
D02*
G37*
G36*
X399298D02*
X398419D01*
Y253121D01*
X398484Y253134D01*
X398964Y253455D01*
X399285Y253934D01*
X399298Y254000D01*
D02*
G37*
G36*
X397419D02*
X396540D01*
X396553Y253934D01*
X396873Y253455D01*
X397353Y253134D01*
X397419Y253121D01*
Y254000D01*
D02*
G37*
G36*
X433879Y252500D02*
X433000D01*
Y251621D01*
X433066Y251634D01*
X433545Y251955D01*
X433866Y252434D01*
X433879Y252500D01*
D02*
G37*
G36*
X432000D02*
X431121D01*
X431134Y252434D01*
X431455Y251955D01*
X431934Y251634D01*
X432000Y251621D01*
Y252500D01*
D02*
G37*
G36*
X428879D02*
X428000D01*
Y251621D01*
X428066Y251634D01*
X428545Y251955D01*
X428866Y252434D01*
X428879Y252500D01*
D02*
G37*
G36*
X427000D02*
X426121D01*
X426134Y252434D01*
X426455Y251955D01*
X426934Y251634D01*
X427000Y251621D01*
Y252500D01*
D02*
G37*
G36*
X423879D02*
X423000D01*
Y251621D01*
X423066Y251634D01*
X423545Y251955D01*
X423866Y252434D01*
X423879Y252500D01*
D02*
G37*
G36*
X422000D02*
X421121D01*
X421134Y252434D01*
X421455Y251955D01*
X421934Y251634D01*
X422000Y251621D01*
Y252500D01*
D02*
G37*
G36*
X418879D02*
X418000D01*
Y251621D01*
X418066Y251634D01*
X418545Y251955D01*
X418866Y252434D01*
X418879Y252500D01*
D02*
G37*
G36*
X417000D02*
X416121D01*
X416134Y252434D01*
X416455Y251955D01*
X416934Y251634D01*
X417000Y251621D01*
Y252500D01*
D02*
G37*
G36*
X413879D02*
X413000D01*
Y251621D01*
X413066Y251634D01*
X413545Y251955D01*
X413866Y252434D01*
X413879Y252500D01*
D02*
G37*
G36*
X412000D02*
X411121D01*
X411134Y252434D01*
X411455Y251955D01*
X411934Y251634D01*
X412000Y251621D01*
Y252500D01*
D02*
G37*
G36*
X238000Y289447D02*
X237064Y289261D01*
X236270Y288730D01*
X235739Y287936D01*
X235553Y287000D01*
X235739Y286064D01*
X235961Y285732D01*
Y255672D01*
X236116Y254891D01*
X236558Y254230D01*
X237730Y253058D01*
X237730Y253058D01*
X238391Y252616D01*
X239172Y252461D01*
X310500D01*
X311280Y252616D01*
X311942Y253058D01*
X323442Y264558D01*
X323884Y265220D01*
X324039Y266000D01*
X324091Y266461D01*
X398673D01*
X398723Y265961D01*
X398245Y265866D01*
X397766Y265545D01*
X397445Y265066D01*
X397432Y265000D01*
X400190D01*
X400177Y265066D01*
X399856Y265545D01*
X399377Y265866D01*
X398900Y265961D01*
X398949Y266461D01*
X428155D01*
X436327Y258289D01*
Y254008D01*
X436105Y253677D01*
X435919Y252740D01*
X436105Y251804D01*
X436636Y251010D01*
X437430Y250479D01*
X438366Y250293D01*
X439303Y250479D01*
X440096Y251010D01*
X440627Y251804D01*
X440813Y252740D01*
X440627Y253677D01*
X440405Y254008D01*
Y259134D01*
X440250Y259914D01*
X439808Y260576D01*
X430442Y269942D01*
X429780Y270384D01*
X429000Y270539D01*
X360386D01*
Y271755D01*
X360761Y272316D01*
X360947Y273252D01*
X360761Y274188D01*
X360230Y274982D01*
X359436Y275513D01*
X358500Y275699D01*
X357564Y275513D01*
X356770Y274982D01*
X356239Y274188D01*
X356053Y273252D01*
X356239Y272316D01*
X356308Y272213D01*
Y270863D01*
X355984Y270539D01*
X324345D01*
X324039Y270845D01*
Y272181D01*
X324261Y272512D01*
X324447Y273449D01*
X324261Y274385D01*
X323730Y275179D01*
X322936Y275710D01*
X322000Y275896D01*
X321064Y275710D01*
X320270Y275179D01*
X319739Y274385D01*
X319553Y273449D01*
X319739Y272512D01*
X319961Y272181D01*
Y266845D01*
X309655Y256539D01*
X240039D01*
Y285732D01*
X240261Y286064D01*
X240447Y287000D01*
X240261Y287936D01*
X239730Y288730D01*
X238936Y289261D01*
X238000Y289447D01*
D02*
G37*
G36*
X432919Y242879D02*
Y242000D01*
X433798D01*
X433785Y242066D01*
X433464Y242545D01*
X432984Y242866D01*
X432919Y242879D01*
D02*
G37*
G36*
X431919D02*
X431853Y242866D01*
X431373Y242545D01*
X431053Y242066D01*
X431040Y242000D01*
X431919D01*
Y242879D01*
D02*
G37*
G36*
X427919D02*
Y242000D01*
X428798D01*
X428785Y242066D01*
X428464Y242545D01*
X427985Y242866D01*
X427919Y242879D01*
D02*
G37*
G36*
X426919D02*
X426853Y242866D01*
X426373Y242545D01*
X426053Y242066D01*
X426040Y242000D01*
X426919D01*
Y242879D01*
D02*
G37*
G36*
X422919D02*
Y242000D01*
X423798D01*
X423785Y242066D01*
X423464Y242545D01*
X422985Y242866D01*
X422919Y242879D01*
D02*
G37*
G36*
X421919D02*
X421853Y242866D01*
X421373Y242545D01*
X421053Y242066D01*
X421040Y242000D01*
X421919D01*
Y242879D01*
D02*
G37*
G36*
X417919D02*
Y242000D01*
X418798D01*
X418785Y242066D01*
X418464Y242545D01*
X417984Y242866D01*
X417919Y242879D01*
D02*
G37*
G36*
X416919D02*
X416853Y242866D01*
X416373Y242545D01*
X416053Y242066D01*
X416040Y242000D01*
X416919D01*
Y242879D01*
D02*
G37*
G36*
X412919D02*
Y242000D01*
X413798D01*
X413785Y242066D01*
X413464Y242545D01*
X412985Y242866D01*
X412919Y242879D01*
D02*
G37*
G36*
X411919D02*
X411853Y242866D01*
X411373Y242545D01*
X411053Y242066D01*
X411040Y242000D01*
X411919D01*
Y242879D01*
D02*
G37*
G36*
X407919D02*
Y242000D01*
X408798D01*
X408785Y242066D01*
X408464Y242545D01*
X407984Y242866D01*
X407919Y242879D01*
D02*
G37*
G36*
X406919D02*
X406853Y242866D01*
X406373Y242545D01*
X406053Y242066D01*
X406040Y242000D01*
X406919D01*
Y242879D01*
D02*
G37*
G36*
X433798Y241000D02*
X432919D01*
Y240121D01*
X432984Y240134D01*
X433464Y240455D01*
X433785Y240934D01*
X433798Y241000D01*
D02*
G37*
G36*
X431919D02*
X431040D01*
X431053Y240934D01*
X431373Y240455D01*
X431853Y240134D01*
X431919Y240121D01*
Y241000D01*
D02*
G37*
G36*
X428798D02*
X427919D01*
Y240121D01*
X427985Y240134D01*
X428464Y240455D01*
X428785Y240934D01*
X428798Y241000D01*
D02*
G37*
G36*
X426919D02*
X426040D01*
X426053Y240934D01*
X426373Y240455D01*
X426853Y240134D01*
X426919Y240121D01*
Y241000D01*
D02*
G37*
G36*
X423798D02*
X422919D01*
Y240121D01*
X422985Y240134D01*
X423464Y240455D01*
X423785Y240934D01*
X423798Y241000D01*
D02*
G37*
G36*
X421919D02*
X421040D01*
X421053Y240934D01*
X421373Y240455D01*
X421853Y240134D01*
X421919Y240121D01*
Y241000D01*
D02*
G37*
G36*
X418798D02*
X417919D01*
Y240121D01*
X417984Y240134D01*
X418464Y240455D01*
X418785Y240934D01*
X418798Y241000D01*
D02*
G37*
G36*
X416919D02*
X416040D01*
X416053Y240934D01*
X416373Y240455D01*
X416853Y240134D01*
X416919Y240121D01*
Y241000D01*
D02*
G37*
G36*
X413798D02*
X412919D01*
Y240121D01*
X412985Y240134D01*
X413464Y240455D01*
X413785Y240934D01*
X413798Y241000D01*
D02*
G37*
G36*
X411919D02*
X411040D01*
X411053Y240934D01*
X411373Y240455D01*
X411853Y240134D01*
X411919Y240121D01*
Y241000D01*
D02*
G37*
G36*
X408798D02*
X407919D01*
Y240121D01*
X407984Y240134D01*
X408464Y240455D01*
X408785Y240934D01*
X408798Y241000D01*
D02*
G37*
G36*
X406919D02*
X406040D01*
X406053Y240934D01*
X406373Y240455D01*
X406853Y240134D01*
X406919Y240121D01*
Y241000D01*
D02*
G37*
G36*
X441000Y203132D02*
X439706Y203005D01*
X438462Y202627D01*
X437316Y202014D01*
X436310Y201189D01*
X435486Y200184D01*
X434873Y199038D01*
X434495Y197794D01*
X434368Y196500D01*
X434495Y195206D01*
X434873Y193962D01*
X435486Y192815D01*
X436310Y191811D01*
X437316Y190986D01*
X438462Y190373D01*
X439706Y189996D01*
X441000Y189868D01*
X442294Y189996D01*
X443538Y190373D01*
X444685Y190986D01*
X445689Y191811D01*
X446514Y192815D01*
X447127Y193962D01*
X447505Y195206D01*
X447632Y196500D01*
X447505Y197794D01*
X447127Y199038D01*
X446514Y200184D01*
X445689Y201189D01*
X444685Y202014D01*
X443538Y202627D01*
X442294Y203005D01*
X441000Y203132D01*
D02*
G37*
G36*
X214000D02*
X212706Y203005D01*
X211462Y202627D01*
X210315Y202014D01*
X209311Y201189D01*
X208486Y200184D01*
X207873Y199038D01*
X207495Y197794D01*
X207368Y196500D01*
X207495Y195206D01*
X207873Y193962D01*
X208486Y192815D01*
X209311Y191811D01*
X210315Y190986D01*
X211462Y190373D01*
X212706Y189996D01*
X214000Y189868D01*
X215294Y189996D01*
X216538Y190373D01*
X217685Y190986D01*
X218689Y191811D01*
X219514Y192815D01*
X220127Y193962D01*
X220504Y195206D01*
X220632Y196500D01*
X220504Y197794D01*
X220127Y199038D01*
X219514Y200184D01*
X218689Y201189D01*
X217685Y202014D01*
X216538Y202627D01*
X215294Y203005D01*
X214000Y203132D01*
D02*
G37*
%LPD*%
D16*
X317000Y287000D02*
D03*
X346500D02*
D03*
X337000D02*
D03*
X327500D02*
D03*
D32*
X322000Y266000D02*
Y273449D01*
X310500Y254500D02*
X322000Y266000D01*
X238000Y255672D02*
Y287000D01*
X239172Y254500D02*
X310500D01*
X238000Y255672D02*
X239172Y254500D01*
X356828Y268500D02*
X429000D01*
X438366Y252740D02*
Y259134D01*
X429000Y268500D02*
X438366Y259134D01*
X323500Y268500D02*
X356828D01*
X358347Y273099D02*
X358500Y273252D01*
X358347Y270019D02*
Y273099D01*
X356828Y268500D02*
X358347Y270019D01*
X322153Y269847D02*
X323500Y268500D01*
D33*
X214000Y196500D02*
D03*
Y286000D02*
D03*
X441000Y196500D02*
D03*
Y286000D02*
D03*
D34*
X398811Y264500D02*
D03*
X327000Y273449D02*
D03*
X247750Y287000D02*
D03*
X407419Y241500D02*
D03*
X422419D02*
D03*
X407500Y254500D02*
D03*
X417419Y241500D02*
D03*
X432419D02*
D03*
X417500Y253000D02*
D03*
X432500D02*
D03*
X373500Y254748D02*
D03*
X412419Y241500D02*
D03*
X397919Y254500D02*
D03*
X427419Y241500D02*
D03*
X412500Y253000D02*
D03*
X422500D02*
D03*
X427500D02*
D03*
X248500Y263500D02*
D03*
X249098Y274500D02*
D03*
X399102Y281500D02*
D03*
D35*
X438366Y252740D02*
D03*
X358500Y273252D02*
D03*
X322000Y273449D02*
D03*
X238000Y287000D02*
D03*
M02*
