G04*
G04 #@! TF.GenerationSoftware,Altium Limited,Altium Designer,20.1.14 (287)*
G04*
G04 Layer_Color=255*
%FSLAX25Y25*%
%MOIN*%
G70*
G04*
G04 #@! TF.SameCoordinates,41C541CE-8B16-402B-B8EC-46EACFEFE534*
G04*
G04*
G04 #@! TF.FilePolarity,Positive*
G04*
G01*
G75*
%ADD16O,0.04000X0.12000*%
%ADD17O,0.02362X0.08661*%
G04:AMPARAMS|DCode=18|XSize=51.18mil|YSize=23.62mil|CornerRadius=2.01mil|HoleSize=0mil|Usage=FLASHONLY|Rotation=0.000|XOffset=0mil|YOffset=0mil|HoleType=Round|Shape=RoundedRectangle|*
%AMROUNDEDRECTD18*
21,1,0.05118,0.01961,0,0,0.0*
21,1,0.04717,0.02362,0,0,0.0*
1,1,0.00402,0.02358,-0.00980*
1,1,0.00402,-0.02358,-0.00980*
1,1,0.00402,-0.02358,0.00980*
1,1,0.00402,0.02358,0.00980*
%
%ADD18ROUNDEDRECTD18*%
%ADD19O,0.02362X0.07480*%
%ADD20R,0.05140X0.06922*%
%ADD21R,0.05118X0.07087*%
%ADD22R,0.03937X0.05906*%
%ADD23R,0.05315X0.07480*%
%ADD33C,0.06000*%
D16*
X247750Y287000D02*
D03*
X238000D02*
D03*
X317000D02*
D03*
X346500D02*
D03*
X337000D02*
D03*
X327500D02*
D03*
D17*
X317000Y254551D02*
D03*
X322000D02*
D03*
X327000D02*
D03*
X332000D02*
D03*
X337000D02*
D03*
X342000D02*
D03*
X347000D02*
D03*
X352000D02*
D03*
X317000Y273449D02*
D03*
X322000D02*
D03*
X327000D02*
D03*
X332000D02*
D03*
X337000D02*
D03*
X342000D02*
D03*
X347000D02*
D03*
X352000D02*
D03*
D18*
X446634Y249000D02*
D03*
X438366Y245260D02*
D03*
Y252740D02*
D03*
D19*
X373500Y273252D02*
D03*
X368500D02*
D03*
X363500D02*
D03*
X358500D02*
D03*
X373500Y254748D02*
D03*
X368500D02*
D03*
X363500D02*
D03*
X358500D02*
D03*
D20*
X387081Y254500D02*
D03*
X397919D02*
D03*
X237663Y263500D02*
D03*
X248500D02*
D03*
D21*
X387000Y245500D02*
D03*
X398811D02*
D03*
Y264500D02*
D03*
X387000D02*
D03*
X386898Y281500D02*
D03*
X399102D02*
D03*
D22*
X399098Y273000D02*
D03*
X386500D02*
D03*
D23*
X249098Y274500D02*
D03*
X236500D02*
D03*
D33*
X214000Y196500D02*
D03*
Y286000D02*
D03*
X441000Y196500D02*
D03*
Y286000D02*
D03*
M02*
