G04*
G04 #@! TF.GenerationSoftware,Altium Limited,Altium Designer,20.1.14 (287)*
G04*
G04 Layer_Color=32768*
%FSLAX25Y25*%
%MOIN*%
G70*
G04*
G04 #@! TF.SameCoordinates,41C541CE-8B16-402B-B8EC-46EACFEFE534*
G04*
G04*
G04 #@! TF.FilePolarity,Positive*
G04*
G01*
G75*
%ADD12C,0.00787*%
%ADD36C,0.00394*%
%ADD37C,0.00197*%
D12*
X435413Y242622D02*
Y255378D01*
Y242622D02*
X449587D01*
Y255378D01*
X435413D02*
X449587D01*
X383527Y258945D02*
X401473D01*
Y250055D02*
Y258945D01*
X383527Y250055D02*
X401473D01*
X383527D02*
Y258945D01*
X384138Y269260D02*
X401461D01*
X384138D02*
Y276740D01*
X401461D01*
Y269260D02*
Y276740D01*
X234108Y267945D02*
X252054D01*
Y259055D02*
Y267945D01*
X234108Y259055D02*
X252054D01*
X234108D02*
Y267945D01*
D36*
X334500Y262032D02*
Y265968D01*
X332531Y264000D02*
X336469D01*
X364032D02*
X367969D01*
X366000Y262032D02*
Y265968D01*
X392905Y243531D02*
Y247468D01*
X390937Y245500D02*
X394874D01*
X390937Y264500D02*
X394874D01*
X392905Y262531D02*
Y266469D01*
X240831Y274500D02*
X244768D01*
X242799Y272532D02*
Y276468D01*
X393000Y279532D02*
Y283469D01*
X391032Y281500D02*
X394969D01*
D37*
X313831Y249236D02*
X355169D01*
X313831Y278764D02*
X355169D01*
X313831Y249236D02*
Y278764D01*
X355169Y249236D02*
Y278764D01*
X376236Y250614D02*
Y277386D01*
X355764Y250614D02*
Y277386D01*
X376236D01*
X355764Y250614D02*
X376236D01*
X382472Y251012D02*
X403339D01*
X382472Y239988D02*
X403339D01*
X382472D02*
Y251012D01*
X403339Y239988D02*
Y251012D01*
Y258988D02*
Y270012D01*
X382472Y258988D02*
Y270012D01*
Y258988D02*
X403339D01*
X382472Y270012D02*
X403339D01*
X253823Y268791D02*
Y280209D01*
X231776Y268791D02*
Y280209D01*
Y268791D02*
X253823D01*
X231776Y280209D02*
X253823D01*
X382370Y287012D02*
X403630D01*
X382370Y275988D02*
X403630D01*
X382370D02*
Y287012D01*
X403630Y275988D02*
Y287012D01*
M02*
