G04*
G04 #@! TF.GenerationSoftware,Altium Limited,Altium Designer,20.1.14 (287)*
G04*
G04 Layer_Color=16711935*
%FSLAX25Y25*%
%MOIN*%
G70*
G04*
G04 #@! TF.SameCoordinates,41C541CE-8B16-402B-B8EC-46EACFEFE534*
G04*
G04*
G04 #@! TF.FilePolarity,Negative*
G04*
G01*
G75*
%ADD24O,0.04800X0.12800*%
%ADD29C,0.06800*%
%ADD30C,0.03700*%
%ADD31C,0.03600*%
D24*
X317000Y287000D02*
D03*
X346500D02*
D03*
X337000D02*
D03*
X327500D02*
D03*
D29*
X214000Y196500D02*
D03*
Y286000D02*
D03*
X441000Y196500D02*
D03*
Y286000D02*
D03*
D30*
X398811Y264500D02*
D03*
X327000Y273449D02*
D03*
X247750Y287000D02*
D03*
X407419Y241500D02*
D03*
X422419D02*
D03*
X407500Y254500D02*
D03*
X417419Y241500D02*
D03*
X432419D02*
D03*
X417500Y253000D02*
D03*
X432500D02*
D03*
X373500Y254748D02*
D03*
X412419Y241500D02*
D03*
X397919Y254500D02*
D03*
X427419Y241500D02*
D03*
X412500Y253000D02*
D03*
X422500D02*
D03*
X427500D02*
D03*
X248500Y263500D02*
D03*
X249098Y274500D02*
D03*
X399102Y281500D02*
D03*
D31*
X438366Y252740D02*
D03*
X358500Y273252D02*
D03*
X322000Y273449D02*
D03*
X238000Y287000D02*
D03*
M02*
