G04*
G04 #@! TF.GenerationSoftware,Altium Limited,Altium Designer,20.1.14 (287)*
G04*
G04 Layer_Color=8388736*
%FSLAX25Y25*%
%MOIN*%
G70*
G04*
G04 #@! TF.SameCoordinates,41C541CE-8B16-402B-B8EC-46EACFEFE534*
G04*
G04*
G04 #@! TF.FilePolarity,Negative*
G04*
G01*
G75*
G04:AMPARAMS|DCode=18|XSize=51.18mil|YSize=23.62mil|CornerRadius=2.01mil|HoleSize=0mil|Usage=FLASHONLY|Rotation=0.000|XOffset=0mil|YOffset=0mil|HoleType=Round|Shape=RoundedRectangle|*
%AMROUNDEDRECTD18*
21,1,0.05118,0.01961,0,0,0.0*
21,1,0.04717,0.02362,0,0,0.0*
1,1,0.00402,0.02358,-0.00980*
1,1,0.00402,-0.02358,-0.00980*
1,1,0.00402,-0.02358,0.00980*
1,1,0.00402,0.02358,0.00980*
%
%ADD18ROUNDEDRECTD18*%
%ADD20R,0.05140X0.06922*%
%ADD22R,0.03937X0.05906*%
%ADD24O,0.04800X0.12800*%
%ADD25O,0.03162X0.09461*%
%ADD26O,0.03162X0.08280*%
%ADD27R,0.05918X0.07887*%
%ADD28R,0.06115X0.08280*%
%ADD29C,0.06800*%
%ADD30C,0.03700*%
%ADD31C,0.03600*%
D18*
X446634Y249000D02*
D03*
X438366Y245260D02*
D03*
Y252740D02*
D03*
D20*
X387081Y254500D02*
D03*
X397919D02*
D03*
X237663Y263500D02*
D03*
X248500D02*
D03*
D22*
X399098Y273000D02*
D03*
X386500D02*
D03*
D24*
X247750Y287000D02*
D03*
X238000D02*
D03*
X317000D02*
D03*
X346500D02*
D03*
X337000D02*
D03*
X327500D02*
D03*
D25*
X317000Y254551D02*
D03*
X322000D02*
D03*
X327000D02*
D03*
X332000D02*
D03*
X337000D02*
D03*
X342000D02*
D03*
X347000D02*
D03*
X352000D02*
D03*
X317000Y273449D02*
D03*
X322000D02*
D03*
X327000D02*
D03*
X332000D02*
D03*
X337000D02*
D03*
X342000D02*
D03*
X347000D02*
D03*
X352000D02*
D03*
D26*
X373500Y273252D02*
D03*
X368500D02*
D03*
X363500D02*
D03*
X358500D02*
D03*
X373500Y254748D02*
D03*
X368500D02*
D03*
X363500D02*
D03*
X358500D02*
D03*
D27*
X387000Y245500D02*
D03*
X398811D02*
D03*
Y264500D02*
D03*
X387000D02*
D03*
X386898Y281500D02*
D03*
X399102D02*
D03*
D28*
X249098Y274500D02*
D03*
X236500D02*
D03*
D29*
X214000Y196500D02*
D03*
Y286000D02*
D03*
X441000Y196500D02*
D03*
Y286000D02*
D03*
D30*
X398811Y264500D02*
D03*
X327000Y273449D02*
D03*
X247750Y287000D02*
D03*
X407419Y241500D02*
D03*
X422419D02*
D03*
X407500Y254500D02*
D03*
X417419Y241500D02*
D03*
X432419D02*
D03*
X417500Y253000D02*
D03*
X432500D02*
D03*
X373500Y254748D02*
D03*
X412419Y241500D02*
D03*
X397919Y254500D02*
D03*
X427419Y241500D02*
D03*
X412500Y253000D02*
D03*
X422500D02*
D03*
X427500D02*
D03*
X248500Y263500D02*
D03*
X249098Y274500D02*
D03*
X399102Y281500D02*
D03*
D31*
X438366Y252740D02*
D03*
X358500Y273252D02*
D03*
X322000Y273449D02*
D03*
X238000Y287000D02*
D03*
M02*
