G04*
G04 #@! TF.GenerationSoftware,Altium Limited,Altium Designer,20.1.14 (287)*
G04*
G04 Layer_Color=16711935*
%FSLAX25Y25*%
%MOIN*%
G70*
G04*
G04 #@! TF.SameCoordinates,ACA2496A-1981-4D04-82D2-C06787754FA9*
G04*
G04*
G04 #@! TF.FilePolarity,Positive*
G04*
G01*
G75*
%ADD12C,0.00787*%
%ADD13C,0.00500*%
D12*
X377527Y289055D02*
X395473D01*
X377527D02*
Y297945D01*
X395473D01*
Y289055D02*
Y297945D01*
X261055Y206973D02*
X269945D01*
X261055Y189027D02*
Y206973D01*
Y189027D02*
X269945D01*
Y206973D01*
X279445Y189108D02*
Y207054D01*
X270555Y189108D02*
X279445D01*
X270555D02*
Y207054D01*
X279445D01*
X243527Y258555D02*
X261473D01*
X243527D02*
Y267445D01*
X261473D01*
Y258555D02*
Y267445D01*
X226608Y258555D02*
Y267445D01*
Y258555D02*
X244554D01*
Y267445D01*
X226608D02*
X244554D01*
X382527Y239445D02*
X400473D01*
Y230555D02*
Y239445D01*
X382527Y230555D02*
X400473D01*
X382527D02*
Y239445D01*
X383138Y249760D02*
X400461D01*
X383138D02*
Y257240D01*
X400461D01*
Y249760D02*
Y257240D01*
D13*
X384667Y291334D02*
X385000Y291001D01*
X385667D01*
X386000Y291334D01*
Y292667D01*
X385667Y293000D01*
X385000D01*
X384667Y292667D01*
X384001Y293000D02*
X383334D01*
X383667D01*
Y291001D01*
X384001Y291334D01*
X382334D02*
X382001Y291001D01*
X381335D01*
X381002Y291334D01*
Y292667D01*
X381335Y293000D01*
X382001D01*
X382334Y292667D01*
Y291334D01*
X267666Y196167D02*
X267999Y196500D01*
Y197167D01*
X267666Y197500D01*
X266333D01*
X266000Y197167D01*
Y196500D01*
X266333Y196167D01*
X266000Y194501D02*
X267999D01*
X267000Y195501D01*
Y194168D01*
X277166Y196248D02*
X277499Y196582D01*
Y197248D01*
X277166Y197581D01*
X275833D01*
X275500Y197248D01*
Y196582D01*
X275833Y196248D01*
X275500Y194249D02*
Y195582D01*
X276833Y194249D01*
X277166D01*
X277499Y194582D01*
Y195249D01*
X277166Y195582D01*
X250667Y260834D02*
X251000Y260501D01*
X251667D01*
X252000Y260834D01*
Y262167D01*
X251667Y262500D01*
X251000D01*
X250667Y262167D01*
X250001Y262500D02*
X249334D01*
X249668D01*
Y260501D01*
X250001Y260834D01*
X248335Y262500D02*
X247668D01*
X248001D01*
Y260501D01*
X248335Y260834D01*
X237414Y265166D02*
X237081Y265499D01*
X236414D01*
X236081Y265166D01*
Y263833D01*
X236414Y263500D01*
X237081D01*
X237414Y263833D01*
X238081Y263500D02*
X238747D01*
X238414D01*
Y265499D01*
X238081Y265166D01*
X393333Y237166D02*
X393000Y237499D01*
X392333D01*
X392000Y237166D01*
Y235833D01*
X392333Y235500D01*
X393000D01*
X393333Y235833D01*
X395332Y237499D02*
X393999D01*
Y236500D01*
X394666Y236833D01*
X394999D01*
X395332Y236500D01*
Y235833D01*
X394999Y235500D01*
X394333D01*
X393999Y235833D01*
X391299Y253000D02*
Y251001D01*
X390300D01*
X389966Y251334D01*
Y252000D01*
X390300Y252334D01*
X391299D01*
X390633D02*
X389966Y253000D01*
X387967D02*
X389300D01*
X387967Y251667D01*
Y251334D01*
X388300Y251001D01*
X388967D01*
X389300Y251334D01*
M02*
