G04*
G04 #@! TF.GenerationSoftware,Altium Limited,Altium Designer,20.1.14 (287)*
G04*
G04 Layer_Physical_Order=4*
G04 Layer_Color=8388736*
%FSLAX25Y25*%
%MOIN*%
G70*
G04*
G04 #@! TF.SameCoordinates,ACA2496A-1981-4D04-82D2-C06787754FA9*
G04*
G04*
G04 #@! TF.FilePolarity,Negative*
G04*
G01*
G75*
%ADD53C,0.04000*%
%ADD59C,0.13200*%
G04:AMPARAMS|DCode=60|XSize=79mil|YSize=79mil|CornerRadius=0mil|HoleSize=0mil|Usage=FLASHONLY|Rotation=0.000|XOffset=0mil|YOffset=0mil|HoleType=Round|Shape=Relief|Width=10mil|Gap=10mil|Entries=4|*
%AMTHD60*
7,0,0,0.07900,0.05900,0.01000,45*
%
%ADD60THD60*%
%ADD61C,0.03900*%
%ADD62C,0.02787*%
D53*
X200000Y301000D02*
X456000D01*
Y182000D02*
Y301000D01*
X200000Y182000D02*
X456000D01*
X200000D02*
Y301000D01*
Y300000D02*
X456000D01*
Y182000D02*
Y300000D01*
X200000Y182000D02*
X456000D01*
X200000D02*
Y300000D01*
D59*
X214000Y196500D02*
D03*
Y286000D02*
D03*
X441000Y196500D02*
D03*
Y286000D02*
D03*
D60*
X317000Y267898D02*
D03*
X445740Y234224D02*
D03*
X442000Y227000D02*
D03*
X229000Y274000D02*
D03*
X231500Y286500D02*
D03*
X358500Y267752D02*
D03*
X322000Y267898D02*
D03*
X230163Y263000D02*
D03*
D61*
X436000Y239000D02*
D03*
X205902Y220000D02*
D03*
X205701Y211000D02*
D03*
X251284Y222000D02*
D03*
X255000Y215500D02*
D03*
X234500D02*
D03*
X244250Y286500D02*
D03*
X247500Y274000D02*
D03*
X241598D02*
D03*
X373500Y249248D02*
D03*
X364094Y285000D02*
D03*
X406419Y222000D02*
D03*
X411419D02*
D03*
X396919Y235000D02*
D03*
X397811Y245000D02*
D03*
X406500Y235000D02*
D03*
X411500Y233500D02*
D03*
X445919Y219500D02*
D03*
X440919D02*
D03*
X435919D02*
D03*
X431419Y222000D02*
D03*
X426419D02*
D03*
X440919Y239000D02*
D03*
X445919D02*
D03*
X431500Y233500D02*
D03*
X426500D02*
D03*
X254000Y193000D02*
D03*
X241402D02*
D03*
X240283Y230000D02*
D03*
X247081Y263000D02*
D03*
X241000D02*
D03*
X275000Y192663D02*
D03*
X265500Y192581D02*
D03*
X381081Y293500D02*
D03*
X370102D02*
D03*
X226783Y222000D02*
D03*
X257500Y286500D02*
D03*
X260098Y274000D02*
D03*
X327000Y267949D02*
D03*
X450919Y219500D02*
D03*
X421419Y222000D02*
D03*
X416419D02*
D03*
X450919Y239000D02*
D03*
Y234500D02*
D03*
X416500Y233500D02*
D03*
X421500D02*
D03*
X257919Y263000D02*
D03*
X450919Y229500D02*
D03*
Y224500D02*
D03*
D62*
X243563Y203563D02*
D03*
Y207500D02*
D03*
Y211437D02*
D03*
X247500Y203563D02*
D03*
X247500Y207500D02*
D03*
X247500Y211437D02*
D03*
X251437Y203563D02*
D03*
X251437Y207500D02*
D03*
X251437Y211437D02*
D03*
M02*
