G04*
G04 #@! TF.GenerationSoftware,Altium Limited,Altium Designer,20.1.14 (287)*
G04*
G04 Layer_Physical_Order=5*
G04 Layer_Color=16711680*
%FSLAX25Y25*%
%MOIN*%
G70*
G04*
G04 #@! TF.SameCoordinates,BD7075AB-977C-41C2-8E30-DA33ADF5C154*
G04*
G04*
G04 #@! TF.FilePolarity,Positive*
G04*
G01*
G75*
%ADD55C,0.06000*%
%ADD56C,0.02900*%
%ADD57C,0.02800*%
%ADD58C,0.01968*%
G36*
X453500Y185000D02*
X202500D01*
Y297000D01*
X202462Y297038D01*
X202653Y297500D01*
X453500D01*
Y185000D01*
D02*
G37*
%LPC*%
G36*
X381581Y294879D02*
Y294000D01*
X382460D01*
X382447Y294066D01*
X382127Y294545D01*
X381647Y294866D01*
X381581Y294879D01*
D02*
G37*
G36*
X380581D02*
X380516Y294866D01*
X380036Y294545D01*
X379715Y294066D01*
X379702Y294000D01*
X380581D01*
Y294879D01*
D02*
G37*
G36*
X370602D02*
Y294000D01*
X371481D01*
X371468Y294066D01*
X371148Y294545D01*
X370668Y294866D01*
X370602Y294879D01*
D02*
G37*
G36*
X369602D02*
X369537Y294866D01*
X369057Y294545D01*
X368737Y294066D01*
X368723Y294000D01*
X369602D01*
Y294879D01*
D02*
G37*
G36*
X382460Y293000D02*
X381581D01*
Y292121D01*
X381647Y292134D01*
X382127Y292455D01*
X382447Y292934D01*
X382460Y293000D01*
D02*
G37*
G36*
X380581D02*
X379702D01*
X379715Y292934D01*
X380036Y292455D01*
X380516Y292134D01*
X380581Y292121D01*
Y293000D01*
D02*
G37*
G36*
X371481D02*
X370602D01*
Y292121D01*
X370668Y292134D01*
X371148Y292455D01*
X371468Y292934D01*
X371481Y293000D01*
D02*
G37*
G36*
X369602D02*
X368723D01*
X368737Y292934D01*
X369057Y292455D01*
X369537Y292134D01*
X369602Y292121D01*
Y293000D01*
D02*
G37*
G36*
X244750Y287879D02*
Y287000D01*
X245629D01*
X245616Y287066D01*
X245295Y287545D01*
X244816Y287866D01*
X244750Y287879D01*
D02*
G37*
G36*
X243750D02*
X243684Y287866D01*
X243205Y287545D01*
X242884Y287066D01*
X242871Y287000D01*
X243750D01*
Y287879D01*
D02*
G37*
G36*
X364595Y286379D02*
Y285500D01*
X365473D01*
X365460Y285566D01*
X365140Y286045D01*
X364660Y286366D01*
X364595Y286379D01*
D02*
G37*
G36*
X363595D02*
X363529Y286366D01*
X363049Y286045D01*
X362729Y285566D01*
X362716Y285500D01*
X363595D01*
Y286379D01*
D02*
G37*
G36*
X245629Y286000D02*
X244750D01*
Y285121D01*
X244816Y285134D01*
X245295Y285455D01*
X245616Y285934D01*
X245629Y286000D01*
D02*
G37*
G36*
X243750D02*
X242871D01*
X242884Y285934D01*
X243205Y285455D01*
X243684Y285134D01*
X243750Y285121D01*
Y286000D01*
D02*
G37*
G36*
X231500Y287927D02*
X230954Y287819D01*
X230491Y287509D01*
X230181Y287046D01*
X230073Y286500D01*
X230181Y285954D01*
X230491Y285491D01*
X230954Y285181D01*
X231500Y285073D01*
X232046Y285181D01*
X232509Y285491D01*
X232819Y285954D01*
X232927Y286500D01*
X232819Y287046D01*
X232509Y287509D01*
X232046Y287819D01*
X231500Y287927D01*
D02*
G37*
G36*
X257500Y287978D02*
X256934Y287866D01*
X256455Y287545D01*
X256134Y287066D01*
X256022Y286500D01*
X256134Y285934D01*
X256455Y285455D01*
X256934Y285134D01*
X257500Y285022D01*
X258066Y285134D01*
X258545Y285455D01*
X258866Y285934D01*
X258978Y286500D01*
X258866Y287066D01*
X258545Y287545D01*
X258066Y287866D01*
X257500Y287978D01*
D02*
G37*
G36*
X365473Y284500D02*
X364595D01*
Y283621D01*
X364660Y283634D01*
X365140Y283955D01*
X365460Y284434D01*
X365473Y284500D01*
D02*
G37*
G36*
X363595D02*
X362716D01*
X362729Y284434D01*
X363049Y283955D01*
X363529Y283634D01*
X363595Y283621D01*
Y284500D01*
D02*
G37*
G36*
X441000Y291648D02*
X439538Y291456D01*
X438176Y290892D01*
X437006Y289994D01*
X436108Y288824D01*
X435544Y287462D01*
X435352Y286000D01*
X435544Y284538D01*
X436108Y283176D01*
X437006Y282006D01*
X438176Y281108D01*
X439538Y280544D01*
X441000Y280352D01*
X442462Y280544D01*
X443824Y281108D01*
X444994Y282006D01*
X445892Y283176D01*
X446456Y284538D01*
X446648Y286000D01*
X446456Y287462D01*
X445892Y288824D01*
X444994Y289994D01*
X443824Y290892D01*
X442462Y291456D01*
X441000Y291648D01*
D02*
G37*
G36*
X214000D02*
X212538Y291456D01*
X211176Y290892D01*
X210006Y289994D01*
X209108Y288824D01*
X208544Y287462D01*
X208352Y286000D01*
X208544Y284538D01*
X209108Y283176D01*
X210006Y282006D01*
X211176Y281108D01*
X212538Y280544D01*
X214000Y280352D01*
X215462Y280544D01*
X216824Y281108D01*
X217994Y282006D01*
X218892Y283176D01*
X219456Y284538D01*
X219648Y286000D01*
X219456Y287462D01*
X218892Y288824D01*
X217994Y289994D01*
X216824Y290892D01*
X215462Y291456D01*
X214000Y291648D01*
D02*
G37*
G36*
X248000Y275379D02*
Y274500D01*
X248879D01*
X248866Y274566D01*
X248545Y275045D01*
X248066Y275366D01*
X248000Y275379D01*
D02*
G37*
G36*
X247000D02*
X246934Y275366D01*
X246455Y275045D01*
X246134Y274566D01*
X246121Y274500D01*
X247000D01*
Y275379D01*
D02*
G37*
G36*
X242098D02*
Y274500D01*
X242977D01*
X242964Y274566D01*
X242644Y275045D01*
X242164Y275366D01*
X242098Y275379D01*
D02*
G37*
G36*
X241098D02*
X241033Y275366D01*
X240553Y275045D01*
X240233Y274566D01*
X240219Y274500D01*
X241098D01*
Y275379D01*
D02*
G37*
G36*
X248879Y273500D02*
X248000D01*
Y272621D01*
X248066Y272634D01*
X248545Y272955D01*
X248866Y273434D01*
X248879Y273500D01*
D02*
G37*
G36*
X247000D02*
X246121D01*
X246134Y273434D01*
X246455Y272955D01*
X246934Y272634D01*
X247000Y272621D01*
Y273500D01*
D02*
G37*
G36*
X242977D02*
X242098D01*
Y272621D01*
X242164Y272634D01*
X242644Y272955D01*
X242964Y273434D01*
X242977Y273500D01*
D02*
G37*
G36*
X241098D02*
X240219D01*
X240233Y273434D01*
X240553Y272955D01*
X241033Y272634D01*
X241098Y272621D01*
Y273500D01*
D02*
G37*
G36*
X229000Y275427D02*
X228454Y275319D01*
X227991Y275009D01*
X227681Y274546D01*
X227573Y274000D01*
X227681Y273454D01*
X227991Y272991D01*
X228454Y272681D01*
X229000Y272573D01*
X229546Y272681D01*
X230009Y272991D01*
X230319Y273454D01*
X230427Y274000D01*
X230319Y274546D01*
X230009Y275009D01*
X229546Y275319D01*
X229000Y275427D01*
D02*
G37*
G36*
X260098Y275478D02*
X259533Y275366D01*
X259053Y275045D01*
X258733Y274566D01*
X258620Y274000D01*
X258733Y273434D01*
X259053Y272955D01*
X259533Y272634D01*
X260098Y272522D01*
X260664Y272634D01*
X261144Y272955D01*
X261464Y273434D01*
X261577Y274000D01*
X261464Y274566D01*
X261144Y275045D01*
X260664Y275366D01*
X260098Y275478D01*
D02*
G37*
G36*
X327500Y269328D02*
Y268449D01*
X328379D01*
X328366Y268515D01*
X328045Y268994D01*
X327566Y269315D01*
X327500Y269328D01*
D02*
G37*
G36*
X326500D02*
X326434Y269315D01*
X325955Y268994D01*
X325634Y268515D01*
X325621Y268449D01*
X326500D01*
Y269328D01*
D02*
G37*
G36*
X328379Y267449D02*
X327500D01*
Y266570D01*
X327566Y266583D01*
X328045Y266903D01*
X328366Y267383D01*
X328379Y267449D01*
D02*
G37*
G36*
X326500D02*
X325621D01*
X325634Y267383D01*
X325955Y266903D01*
X326434Y266583D01*
X326500Y266570D01*
Y267449D01*
D02*
G37*
G36*
X322000Y269325D02*
X321454Y269216D01*
X320991Y268907D01*
X320681Y268444D01*
X320573Y267898D01*
X320681Y267351D01*
X320991Y266888D01*
X321454Y266579D01*
X322000Y266470D01*
X322546Y266579D01*
X323009Y266888D01*
X323319Y267351D01*
X323427Y267898D01*
X323319Y268444D01*
X323009Y268907D01*
X322546Y269216D01*
X322000Y269325D01*
D02*
G37*
G36*
X317000D02*
X316454Y269216D01*
X315991Y268907D01*
X315681Y268444D01*
X315573Y267898D01*
X315681Y267351D01*
X315991Y266888D01*
X316454Y266579D01*
X317000Y266470D01*
X317546Y266579D01*
X318009Y266888D01*
X318319Y267351D01*
X318427Y267898D01*
X318319Y268444D01*
X318009Y268907D01*
X317546Y269216D01*
X317000Y269325D01*
D02*
G37*
G36*
X358500Y269230D02*
X357934Y269118D01*
X357455Y268797D01*
X357134Y268318D01*
X357022Y267752D01*
X357134Y267186D01*
X357455Y266707D01*
X357934Y266386D01*
X358500Y266274D01*
X359066Y266386D01*
X359545Y266707D01*
X359866Y267186D01*
X359978Y267752D01*
X359866Y268318D01*
X359545Y268797D01*
X359066Y269118D01*
X358500Y269230D01*
D02*
G37*
G36*
X247581Y264379D02*
Y263500D01*
X248460D01*
X248447Y263566D01*
X248127Y264045D01*
X247647Y264366D01*
X247581Y264379D01*
D02*
G37*
G36*
X246581D02*
X246515Y264366D01*
X246036Y264045D01*
X245715Y263566D01*
X245702Y263500D01*
X246581D01*
Y264379D01*
D02*
G37*
G36*
X241500D02*
Y263500D01*
X242379D01*
X242366Y263566D01*
X242045Y264045D01*
X241566Y264366D01*
X241500Y264379D01*
D02*
G37*
G36*
X240500D02*
X240434Y264366D01*
X239955Y264045D01*
X239634Y263566D01*
X239621Y263500D01*
X240500D01*
Y264379D01*
D02*
G37*
G36*
X248460Y262500D02*
X247581D01*
Y261621D01*
X247647Y261634D01*
X248127Y261955D01*
X248447Y262434D01*
X248460Y262500D01*
D02*
G37*
G36*
X246581D02*
X245702D01*
X245715Y262434D01*
X246036Y261955D01*
X246515Y261634D01*
X246581Y261621D01*
Y262500D01*
D02*
G37*
G36*
X242379D02*
X241500D01*
Y261621D01*
X241566Y261634D01*
X242045Y261955D01*
X242366Y262434D01*
X242379Y262500D01*
D02*
G37*
G36*
X240500D02*
X239621D01*
X239634Y262434D01*
X239955Y261955D01*
X240434Y261634D01*
X240500Y261621D01*
Y262500D01*
D02*
G37*
G36*
X230163Y264427D02*
X229616Y264319D01*
X229153Y264009D01*
X228844Y263546D01*
X228735Y263000D01*
X228844Y262454D01*
X229153Y261991D01*
X229616Y261681D01*
X230163Y261573D01*
X230709Y261681D01*
X231172Y261991D01*
X231481Y262454D01*
X231590Y263000D01*
X231481Y263546D01*
X231172Y264009D01*
X230709Y264319D01*
X230163Y264427D01*
D02*
G37*
G36*
X257919Y264478D02*
X257353Y264366D01*
X256873Y264045D01*
X256553Y263566D01*
X256440Y263000D01*
X256553Y262434D01*
X256873Y261955D01*
X257353Y261634D01*
X257919Y261522D01*
X258485Y261634D01*
X258964Y261955D01*
X259285Y262434D01*
X259397Y263000D01*
X259285Y263566D01*
X258964Y264045D01*
X258485Y264366D01*
X257919Y264478D01*
D02*
G37*
G36*
X374000Y250576D02*
Y249748D01*
X374828D01*
X374819Y249794D01*
X374509Y250257D01*
X374046Y250567D01*
X374000Y250576D01*
D02*
G37*
G36*
X373000D02*
X372954Y250567D01*
X372491Y250257D01*
X372181Y249794D01*
X372172Y249748D01*
X373000D01*
Y250576D01*
D02*
G37*
G36*
X374828Y248748D02*
X374000D01*
Y247920D01*
X374046Y247929D01*
X374509Y248239D01*
X374819Y248702D01*
X374828Y248748D01*
D02*
G37*
G36*
X373000D02*
X372172D01*
X372181Y248702D01*
X372491Y248239D01*
X372954Y247929D01*
X373000Y247920D01*
Y248748D01*
D02*
G37*
G36*
X398311Y246379D02*
Y245500D01*
X399190D01*
X399177Y245566D01*
X398856Y246045D01*
X398377Y246366D01*
X398311Y246379D01*
D02*
G37*
G36*
X397311D02*
X397245Y246366D01*
X396766Y246045D01*
X396445Y245566D01*
X396432Y245500D01*
X397311D01*
Y246379D01*
D02*
G37*
G36*
X399190Y244500D02*
X398311D01*
Y243621D01*
X398377Y243634D01*
X398856Y243955D01*
X399177Y244434D01*
X399190Y244500D01*
D02*
G37*
G36*
X397311D02*
X396432D01*
X396445Y244434D01*
X396766Y243955D01*
X397245Y243634D01*
X397311Y243621D01*
Y244500D01*
D02*
G37*
G36*
X451419Y240379D02*
Y239500D01*
X452298D01*
X452285Y239566D01*
X451964Y240045D01*
X451484Y240366D01*
X451419Y240379D01*
D02*
G37*
G36*
X450419D02*
X450353Y240366D01*
X449873Y240045D01*
X449553Y239566D01*
X449540Y239500D01*
X450419D01*
Y240379D01*
D02*
G37*
G36*
X446419D02*
Y239500D01*
X447298D01*
X447285Y239566D01*
X446964Y240045D01*
X446485Y240366D01*
X446419Y240379D01*
D02*
G37*
G36*
X445419D02*
X445353Y240366D01*
X444873Y240045D01*
X444553Y239566D01*
X444540Y239500D01*
X445419D01*
Y240379D01*
D02*
G37*
G36*
X441419D02*
Y239500D01*
X442298D01*
X442285Y239566D01*
X441964Y240045D01*
X441484Y240366D01*
X441419Y240379D01*
D02*
G37*
G36*
X440419D02*
X440353Y240366D01*
X439873Y240045D01*
X439553Y239566D01*
X439540Y239500D01*
X440419D01*
Y240379D01*
D02*
G37*
G36*
X436500D02*
Y239500D01*
X437379D01*
X437366Y239566D01*
X437045Y240045D01*
X436566Y240366D01*
X436500Y240379D01*
D02*
G37*
G36*
X435500D02*
X435434Y240366D01*
X434955Y240045D01*
X434634Y239566D01*
X434621Y239500D01*
X435500D01*
Y240379D01*
D02*
G37*
G36*
X452298Y238500D02*
X451419D01*
Y237621D01*
X451484Y237634D01*
X451964Y237955D01*
X452285Y238434D01*
X452298Y238500D01*
D02*
G37*
G36*
X450419D02*
X449540D01*
X449553Y238434D01*
X449873Y237955D01*
X450353Y237634D01*
X450419Y237621D01*
Y238500D01*
D02*
G37*
G36*
X447298D02*
X446419D01*
Y237621D01*
X446485Y237634D01*
X446964Y237955D01*
X447285Y238434D01*
X447298Y238500D01*
D02*
G37*
G36*
X445419D02*
X444540D01*
X444553Y238434D01*
X444873Y237955D01*
X445353Y237634D01*
X445419Y237621D01*
Y238500D01*
D02*
G37*
G36*
X442298D02*
X441419D01*
Y237621D01*
X441484Y237634D01*
X441964Y237955D01*
X442285Y238434D01*
X442298Y238500D01*
D02*
G37*
G36*
X440419D02*
X439540D01*
X439553Y238434D01*
X439873Y237955D01*
X440353Y237634D01*
X440419Y237621D01*
Y238500D01*
D02*
G37*
G36*
X437379D02*
X436500D01*
Y237621D01*
X436566Y237634D01*
X437045Y237955D01*
X437366Y238434D01*
X437379Y238500D01*
D02*
G37*
G36*
X435500D02*
X434621D01*
X434634Y238434D01*
X434955Y237955D01*
X435434Y237634D01*
X435500Y237621D01*
Y238500D01*
D02*
G37*
G36*
X407000Y236379D02*
Y235500D01*
X407879D01*
X407866Y235566D01*
X407545Y236045D01*
X407066Y236366D01*
X407000Y236379D01*
D02*
G37*
G36*
X406000D02*
X405934Y236366D01*
X405455Y236045D01*
X405134Y235566D01*
X405121Y235500D01*
X406000D01*
Y236379D01*
D02*
G37*
G36*
X397419D02*
Y235500D01*
X398298D01*
X398285Y235566D01*
X397964Y236045D01*
X397484Y236366D01*
X397419Y236379D01*
D02*
G37*
G36*
X396419D02*
X396353Y236366D01*
X395873Y236045D01*
X395553Y235566D01*
X395540Y235500D01*
X396419D01*
Y236379D01*
D02*
G37*
G36*
X451419Y235879D02*
Y235000D01*
X452298D01*
X452285Y235066D01*
X451964Y235545D01*
X451484Y235866D01*
X451419Y235879D01*
D02*
G37*
G36*
X450419D02*
X450353Y235866D01*
X449873Y235545D01*
X449553Y235066D01*
X449540Y235000D01*
X450419D01*
Y235879D01*
D02*
G37*
G36*
X432000Y234879D02*
Y234000D01*
X432879D01*
X432866Y234066D01*
X432545Y234545D01*
X432066Y234866D01*
X432000Y234879D01*
D02*
G37*
G36*
X431000D02*
X430934Y234866D01*
X430455Y234545D01*
X430134Y234066D01*
X430121Y234000D01*
X431000D01*
Y234879D01*
D02*
G37*
G36*
X427000D02*
Y234000D01*
X427879D01*
X427866Y234066D01*
X427545Y234545D01*
X427066Y234866D01*
X427000Y234879D01*
D02*
G37*
G36*
X426000D02*
X425934Y234866D01*
X425455Y234545D01*
X425134Y234066D01*
X425121Y234000D01*
X426000D01*
Y234879D01*
D02*
G37*
G36*
X422000D02*
Y234000D01*
X422879D01*
X422866Y234066D01*
X422545Y234545D01*
X422066Y234866D01*
X422000Y234879D01*
D02*
G37*
G36*
X421000D02*
X420934Y234866D01*
X420455Y234545D01*
X420134Y234066D01*
X420121Y234000D01*
X421000D01*
Y234879D01*
D02*
G37*
G36*
X417000D02*
Y234000D01*
X417879D01*
X417866Y234066D01*
X417545Y234545D01*
X417066Y234866D01*
X417000Y234879D01*
D02*
G37*
G36*
X416000D02*
X415934Y234866D01*
X415455Y234545D01*
X415134Y234066D01*
X415121Y234000D01*
X416000D01*
Y234879D01*
D02*
G37*
G36*
X412000D02*
Y234000D01*
X412879D01*
X412866Y234066D01*
X412545Y234545D01*
X412066Y234866D01*
X412000Y234879D01*
D02*
G37*
G36*
X411000D02*
X410934Y234866D01*
X410455Y234545D01*
X410134Y234066D01*
X410121Y234000D01*
X411000D01*
Y234879D01*
D02*
G37*
G36*
X407879Y234500D02*
X407000D01*
Y233621D01*
X407066Y233634D01*
X407545Y233955D01*
X407866Y234434D01*
X407879Y234500D01*
D02*
G37*
G36*
X406000D02*
X405121D01*
X405134Y234434D01*
X405455Y233955D01*
X405934Y233634D01*
X406000Y233621D01*
Y234500D01*
D02*
G37*
G36*
X398298D02*
X397419D01*
Y233621D01*
X397484Y233634D01*
X397964Y233955D01*
X398285Y234434D01*
X398298Y234500D01*
D02*
G37*
G36*
X396419D02*
X395540D01*
X395553Y234434D01*
X395873Y233955D01*
X396353Y233634D01*
X396419Y233621D01*
Y234500D01*
D02*
G37*
G36*
X452298Y234000D02*
X451419D01*
Y233121D01*
X451484Y233134D01*
X451964Y233455D01*
X452285Y233934D01*
X452298Y234000D01*
D02*
G37*
G36*
X450419D02*
X449540D01*
X449553Y233934D01*
X449873Y233455D01*
X450353Y233134D01*
X450419Y233121D01*
Y234000D01*
D02*
G37*
G36*
X445740Y235703D02*
X445174Y235590D01*
X444695Y235270D01*
X444374Y234790D01*
X444262Y234224D01*
X444374Y233659D01*
X444695Y233179D01*
X445174Y232858D01*
X445740Y232746D01*
X446306Y232858D01*
X446785Y233179D01*
X447106Y233659D01*
X447219Y234224D01*
X447106Y234790D01*
X446785Y235270D01*
X446306Y235590D01*
X445740Y235703D01*
D02*
G37*
G36*
X432879Y233000D02*
X432000D01*
Y232121D01*
X432066Y232134D01*
X432545Y232455D01*
X432866Y232934D01*
X432879Y233000D01*
D02*
G37*
G36*
X431000D02*
X430121D01*
X430134Y232934D01*
X430455Y232455D01*
X430934Y232134D01*
X431000Y232121D01*
Y233000D01*
D02*
G37*
G36*
X427879D02*
X427000D01*
Y232121D01*
X427066Y232134D01*
X427545Y232455D01*
X427866Y232934D01*
X427879Y233000D01*
D02*
G37*
G36*
X426000D02*
X425121D01*
X425134Y232934D01*
X425455Y232455D01*
X425934Y232134D01*
X426000Y232121D01*
Y233000D01*
D02*
G37*
G36*
X422879D02*
X422000D01*
Y232121D01*
X422066Y232134D01*
X422545Y232455D01*
X422866Y232934D01*
X422879Y233000D01*
D02*
G37*
G36*
X421000D02*
X420121D01*
X420134Y232934D01*
X420455Y232455D01*
X420934Y232134D01*
X421000Y232121D01*
Y233000D01*
D02*
G37*
G36*
X417879D02*
X417000D01*
Y232121D01*
X417066Y232134D01*
X417545Y232455D01*
X417866Y232934D01*
X417879Y233000D01*
D02*
G37*
G36*
X416000D02*
X415121D01*
X415134Y232934D01*
X415455Y232455D01*
X415934Y232134D01*
X416000Y232121D01*
Y233000D01*
D02*
G37*
G36*
X412879D02*
X412000D01*
Y232121D01*
X412066Y232134D01*
X412545Y232455D01*
X412866Y232934D01*
X412879Y233000D01*
D02*
G37*
G36*
X411000D02*
X410121D01*
X410134Y232934D01*
X410455Y232455D01*
X410934Y232134D01*
X411000Y232121D01*
Y233000D01*
D02*
G37*
G36*
X451419Y230879D02*
Y230000D01*
X452298D01*
X452285Y230066D01*
X451964Y230545D01*
X451484Y230866D01*
X451419Y230879D01*
D02*
G37*
G36*
X450419D02*
X450353Y230866D01*
X449873Y230545D01*
X449553Y230066D01*
X449540Y230000D01*
X450419D01*
Y230879D01*
D02*
G37*
G36*
X240283Y231478D02*
X239718Y231366D01*
X239238Y231045D01*
X238918Y230566D01*
X238805Y230000D01*
X238918Y229434D01*
X239238Y228955D01*
X239718Y228634D01*
X240283Y228522D01*
X240849Y228634D01*
X241329Y228955D01*
X241649Y229434D01*
X241762Y230000D01*
X241649Y230566D01*
X241329Y231045D01*
X240849Y231366D01*
X240283Y231478D01*
D02*
G37*
G36*
X452298Y229000D02*
X451419D01*
Y228121D01*
X451484Y228134D01*
X451964Y228455D01*
X452285Y228934D01*
X452298Y229000D01*
D02*
G37*
G36*
X450419D02*
X449540D01*
X449553Y228934D01*
X449873Y228455D01*
X450353Y228134D01*
X450419Y228121D01*
Y229000D01*
D02*
G37*
G36*
X442000Y228478D02*
X441434Y228366D01*
X440955Y228045D01*
X440634Y227566D01*
X440522Y227000D01*
X440634Y226434D01*
X440955Y225955D01*
X441434Y225634D01*
X442000Y225522D01*
X442566Y225634D01*
X443045Y225955D01*
X443366Y226434D01*
X443478Y227000D01*
X443366Y227566D01*
X443045Y228045D01*
X442566Y228366D01*
X442000Y228478D01*
D02*
G37*
G36*
X451419Y225879D02*
Y225000D01*
X452298D01*
X452285Y225066D01*
X451964Y225545D01*
X451484Y225866D01*
X451419Y225879D01*
D02*
G37*
G36*
X450419D02*
X450353Y225866D01*
X449873Y225545D01*
X449553Y225066D01*
X449540Y225000D01*
X450419D01*
Y225879D01*
D02*
G37*
G36*
X452298Y224000D02*
X451419D01*
Y223121D01*
X451484Y223134D01*
X451964Y223455D01*
X452285Y223934D01*
X452298Y224000D01*
D02*
G37*
G36*
X450419D02*
X449540D01*
X449553Y223934D01*
X449873Y223455D01*
X450353Y223134D01*
X450419Y223121D01*
Y224000D01*
D02*
G37*
G36*
X431919Y223379D02*
Y222500D01*
X432798D01*
X432785Y222566D01*
X432464Y223045D01*
X431985Y223366D01*
X431919Y223379D01*
D02*
G37*
G36*
X430919D02*
X430853Y223366D01*
X430373Y223045D01*
X430053Y222566D01*
X430040Y222500D01*
X430919D01*
Y223379D01*
D02*
G37*
G36*
X426919D02*
Y222500D01*
X427798D01*
X427785Y222566D01*
X427464Y223045D01*
X426985Y223366D01*
X426919Y223379D01*
D02*
G37*
G36*
X425919D02*
X425853Y223366D01*
X425373Y223045D01*
X425053Y222566D01*
X425040Y222500D01*
X425919D01*
Y223379D01*
D02*
G37*
G36*
X421919D02*
Y222500D01*
X422798D01*
X422785Y222566D01*
X422464Y223045D01*
X421984Y223366D01*
X421919Y223379D01*
D02*
G37*
G36*
X420919D02*
X420853Y223366D01*
X420373Y223045D01*
X420053Y222566D01*
X420040Y222500D01*
X420919D01*
Y223379D01*
D02*
G37*
G36*
X416919D02*
Y222500D01*
X417798D01*
X417785Y222566D01*
X417464Y223045D01*
X416985Y223366D01*
X416919Y223379D01*
D02*
G37*
G36*
X415919D02*
X415853Y223366D01*
X415373Y223045D01*
X415053Y222566D01*
X415040Y222500D01*
X415919D01*
Y223379D01*
D02*
G37*
G36*
X411919D02*
Y222500D01*
X412798D01*
X412785Y222566D01*
X412464Y223045D01*
X411984Y223366D01*
X411919Y223379D01*
D02*
G37*
G36*
X410919D02*
X410853Y223366D01*
X410373Y223045D01*
X410053Y222566D01*
X410040Y222500D01*
X410919D01*
Y223379D01*
D02*
G37*
G36*
X406919D02*
Y222500D01*
X407798D01*
X407785Y222566D01*
X407464Y223045D01*
X406985Y223366D01*
X406919Y223379D01*
D02*
G37*
G36*
X405919D02*
X405853Y223366D01*
X405373Y223045D01*
X405053Y222566D01*
X405040Y222500D01*
X405919D01*
Y223379D01*
D02*
G37*
G36*
X227284D02*
Y222500D01*
X228162D01*
X228149Y222566D01*
X227829Y223045D01*
X227349Y223366D01*
X227284Y223379D01*
D02*
G37*
G36*
X226284D02*
X226218Y223366D01*
X225738Y223045D01*
X225418Y222566D01*
X225405Y222500D01*
X226284D01*
Y223379D01*
D02*
G37*
G36*
X228162Y221500D02*
X227284D01*
Y220621D01*
X227349Y220634D01*
X227829Y220955D01*
X228149Y221434D01*
X228162Y221500D01*
D02*
G37*
G36*
X226284D02*
X225405D01*
X225418Y221434D01*
X225738Y220955D01*
X226218Y220634D01*
X226284Y220621D01*
Y221500D01*
D02*
G37*
G36*
X432798D02*
X431919D01*
Y220621D01*
X431985Y220634D01*
X432464Y220955D01*
X432785Y221434D01*
X432798Y221500D01*
D02*
G37*
G36*
X430919D02*
X430040D01*
X430053Y221434D01*
X430373Y220955D01*
X430853Y220634D01*
X430919Y220621D01*
Y221500D01*
D02*
G37*
G36*
X427798D02*
X426919D01*
Y220621D01*
X426985Y220634D01*
X427464Y220955D01*
X427785Y221434D01*
X427798Y221500D01*
D02*
G37*
G36*
X425919D02*
X425040D01*
X425053Y221434D01*
X425373Y220955D01*
X425853Y220634D01*
X425919Y220621D01*
Y221500D01*
D02*
G37*
G36*
X422798D02*
X421919D01*
Y220621D01*
X421984Y220634D01*
X422464Y220955D01*
X422785Y221434D01*
X422798Y221500D01*
D02*
G37*
G36*
X420919D02*
X420040D01*
X420053Y221434D01*
X420373Y220955D01*
X420853Y220634D01*
X420919Y220621D01*
Y221500D01*
D02*
G37*
G36*
X417798D02*
X416919D01*
Y220621D01*
X416985Y220634D01*
X417464Y220955D01*
X417785Y221434D01*
X417798Y221500D01*
D02*
G37*
G36*
X415919D02*
X415040D01*
X415053Y221434D01*
X415373Y220955D01*
X415853Y220634D01*
X415919Y220621D01*
Y221500D01*
D02*
G37*
G36*
X412798D02*
X411919D01*
Y220621D01*
X411984Y220634D01*
X412464Y220955D01*
X412785Y221434D01*
X412798Y221500D01*
D02*
G37*
G36*
X410919D02*
X410040D01*
X410053Y221434D01*
X410373Y220955D01*
X410853Y220634D01*
X410919Y220621D01*
Y221500D01*
D02*
G37*
G36*
X407798D02*
X406919D01*
Y220621D01*
X406985Y220634D01*
X407464Y220955D01*
X407785Y221434D01*
X407798Y221500D01*
D02*
G37*
G36*
X405919D02*
X405040D01*
X405053Y221434D01*
X405373Y220955D01*
X405853Y220634D01*
X405919Y220621D01*
Y221500D01*
D02*
G37*
G36*
X251284Y223478D02*
X250718Y223366D01*
X250238Y223045D01*
X249918Y222566D01*
X249805Y222000D01*
X249918Y221434D01*
X250238Y220955D01*
X250718Y220634D01*
X251284Y220522D01*
X251849Y220634D01*
X252329Y220955D01*
X252649Y221434D01*
X252762Y222000D01*
X252649Y222566D01*
X252329Y223045D01*
X251849Y223366D01*
X251284Y223478D01*
D02*
G37*
G36*
X206402Y221379D02*
Y220500D01*
X207280D01*
X207267Y220566D01*
X206947Y221045D01*
X206467Y221366D01*
X206402Y221379D01*
D02*
G37*
G36*
X205402D02*
X205336Y221366D01*
X204856Y221045D01*
X204536Y220566D01*
X204523Y220500D01*
X205402D01*
Y221379D01*
D02*
G37*
G36*
X451419Y220879D02*
Y220000D01*
X452298D01*
X452285Y220066D01*
X451964Y220545D01*
X451484Y220866D01*
X451419Y220879D01*
D02*
G37*
G36*
X450419D02*
X450353Y220866D01*
X449873Y220545D01*
X449553Y220066D01*
X449540Y220000D01*
X450419D01*
Y220879D01*
D02*
G37*
G36*
X446419D02*
Y220000D01*
X447298D01*
X447285Y220066D01*
X446964Y220545D01*
X446485Y220866D01*
X446419Y220879D01*
D02*
G37*
G36*
X445419D02*
X445353Y220866D01*
X444873Y220545D01*
X444553Y220066D01*
X444540Y220000D01*
X445419D01*
Y220879D01*
D02*
G37*
G36*
X441419D02*
Y220000D01*
X442298D01*
X442285Y220066D01*
X441964Y220545D01*
X441484Y220866D01*
X441419Y220879D01*
D02*
G37*
G36*
X440419D02*
X440353Y220866D01*
X439873Y220545D01*
X439553Y220066D01*
X439540Y220000D01*
X440419D01*
Y220879D01*
D02*
G37*
G36*
X436419D02*
Y220000D01*
X437298D01*
X437285Y220066D01*
X436964Y220545D01*
X436484Y220866D01*
X436419Y220879D01*
D02*
G37*
G36*
X435419D02*
X435353Y220866D01*
X434873Y220545D01*
X434553Y220066D01*
X434540Y220000D01*
X435419D01*
Y220879D01*
D02*
G37*
G36*
X207280Y219500D02*
X206402D01*
Y218621D01*
X206467Y218634D01*
X206947Y218955D01*
X207267Y219434D01*
X207280Y219500D01*
D02*
G37*
G36*
X205402D02*
X204523D01*
X204536Y219434D01*
X204856Y218955D01*
X205336Y218634D01*
X205402Y218621D01*
Y219500D01*
D02*
G37*
G36*
X452298Y219000D02*
X451419D01*
Y218121D01*
X451484Y218134D01*
X451964Y218455D01*
X452285Y218934D01*
X452298Y219000D01*
D02*
G37*
G36*
X450419D02*
X449540D01*
X449553Y218934D01*
X449873Y218455D01*
X450353Y218134D01*
X450419Y218121D01*
Y219000D01*
D02*
G37*
G36*
X447298D02*
X446419D01*
Y218121D01*
X446485Y218134D01*
X446964Y218455D01*
X447285Y218934D01*
X447298Y219000D01*
D02*
G37*
G36*
X445419D02*
X444540D01*
X444553Y218934D01*
X444873Y218455D01*
X445353Y218134D01*
X445419Y218121D01*
Y219000D01*
D02*
G37*
G36*
X442298D02*
X441419D01*
Y218121D01*
X441484Y218134D01*
X441964Y218455D01*
X442285Y218934D01*
X442298Y219000D01*
D02*
G37*
G36*
X440419D02*
X439540D01*
X439553Y218934D01*
X439873Y218455D01*
X440353Y218134D01*
X440419Y218121D01*
Y219000D01*
D02*
G37*
G36*
X437298D02*
X436419D01*
Y218121D01*
X436484Y218134D01*
X436964Y218455D01*
X437285Y218934D01*
X437298Y219000D01*
D02*
G37*
G36*
X435419D02*
X434540D01*
X434553Y218934D01*
X434873Y218455D01*
X435353Y218134D01*
X435419Y218121D01*
Y219000D01*
D02*
G37*
G36*
X255500Y216879D02*
Y216000D01*
X256379D01*
X256366Y216066D01*
X256045Y216545D01*
X255566Y216866D01*
X255500Y216879D01*
D02*
G37*
G36*
X254500D02*
X254434Y216866D01*
X253955Y216545D01*
X253634Y216066D01*
X253621Y216000D01*
X254500D01*
Y216879D01*
D02*
G37*
G36*
X256379Y215000D02*
X255500D01*
Y214121D01*
X255566Y214134D01*
X256045Y214455D01*
X256366Y214934D01*
X256379Y215000D01*
D02*
G37*
G36*
X254500D02*
X253621D01*
X253634Y214934D01*
X253955Y214455D01*
X254434Y214134D01*
X254500Y214121D01*
Y215000D01*
D02*
G37*
G36*
X234500Y216978D02*
X233934Y216866D01*
X233455Y216545D01*
X233134Y216066D01*
X233022Y215500D01*
X233134Y214934D01*
X233455Y214455D01*
X233934Y214134D01*
X234500Y214022D01*
X235066Y214134D01*
X235545Y214455D01*
X235866Y214934D01*
X235978Y215500D01*
X235866Y216066D01*
X235545Y216545D01*
X235066Y216866D01*
X234500Y216978D01*
D02*
G37*
G36*
X206201Y212379D02*
Y211500D01*
X207080D01*
X207067Y211566D01*
X206746Y212045D01*
X206267Y212366D01*
X206201Y212379D01*
D02*
G37*
G36*
X205201D02*
X205135Y212366D01*
X204655Y212045D01*
X204335Y211566D01*
X204322Y211500D01*
X205201D01*
Y212379D01*
D02*
G37*
G36*
X251437Y212440D02*
X251053Y212364D01*
X250727Y212147D01*
X250510Y211821D01*
X250433Y211437D01*
X250510Y211053D01*
X250727Y210727D01*
X251053Y210510D01*
X251437Y210434D01*
X251821Y210510D01*
X252147Y210727D01*
X252364Y211053D01*
X252441Y211437D01*
X252364Y211821D01*
X252147Y212147D01*
X251821Y212364D01*
X251437Y212440D01*
D02*
G37*
G36*
X243563D02*
X243179Y212364D01*
X242853Y212147D01*
X242636Y211821D01*
X242560Y211437D01*
X242636Y211053D01*
X242853Y210727D01*
X243179Y210510D01*
X243563Y210434D01*
X243947Y210510D01*
X244273Y210727D01*
X244490Y211053D01*
X244566Y211437D01*
X244490Y211821D01*
X244273Y212147D01*
X243947Y212364D01*
X243563Y212440D01*
D02*
G37*
G36*
X247500Y212440D02*
X247116Y212364D01*
X246790Y212147D01*
X246573Y211821D01*
X246497Y211437D01*
X246573Y211053D01*
X246790Y210727D01*
X247116Y210510D01*
X247500Y210434D01*
X247884Y210510D01*
X248210Y210727D01*
X248427Y211053D01*
X248503Y211437D01*
X248427Y211821D01*
X248210Y212147D01*
X247884Y212364D01*
X247500Y212440D01*
D02*
G37*
G36*
X207080Y210500D02*
X206201D01*
Y209621D01*
X206267Y209634D01*
X206746Y209955D01*
X207067Y210434D01*
X207080Y210500D01*
D02*
G37*
G36*
X205201D02*
X204322D01*
X204335Y210434D01*
X204655Y209955D01*
X205135Y209634D01*
X205201Y209621D01*
Y210500D01*
D02*
G37*
G36*
X247500Y208504D02*
X247116Y208427D01*
X246790Y208210D01*
X246573Y207884D01*
X246497Y207500D01*
X246573Y207116D01*
X246790Y206790D01*
X247116Y206573D01*
X247500Y206497D01*
X247884Y206573D01*
X248210Y206790D01*
X248427Y207116D01*
X248503Y207500D01*
X248427Y207884D01*
X248210Y208210D01*
X247884Y208427D01*
X247500Y208504D01*
D02*
G37*
G36*
X243563D02*
X243179Y208427D01*
X242853Y208210D01*
X242636Y207884D01*
X242560Y207500D01*
X242636Y207116D01*
X242853Y206790D01*
X243179Y206573D01*
X243563Y206497D01*
X243947Y206573D01*
X244273Y206790D01*
X244490Y207116D01*
X244566Y207500D01*
X244490Y207884D01*
X244273Y208210D01*
X243947Y208427D01*
X243563Y208504D01*
D02*
G37*
G36*
X251437Y208504D02*
X251053Y208427D01*
X250727Y208210D01*
X250510Y207884D01*
X250433Y207500D01*
X250510Y207116D01*
X250727Y206790D01*
X251053Y206573D01*
X251437Y206497D01*
X251821Y206573D01*
X252147Y206790D01*
X252364Y207116D01*
X252441Y207500D01*
X252364Y207884D01*
X252147Y208210D01*
X251821Y208427D01*
X251437Y208504D01*
D02*
G37*
G36*
X247500Y204567D02*
X247116Y204490D01*
X246790Y204273D01*
X246573Y203947D01*
X246497Y203563D01*
X246573Y203179D01*
X246790Y202853D01*
X247116Y202636D01*
X247500Y202559D01*
X247884Y202636D01*
X248210Y202853D01*
X248427Y203179D01*
X248503Y203563D01*
X248427Y203947D01*
X248210Y204273D01*
X247884Y204490D01*
X247500Y204567D01*
D02*
G37*
G36*
X251437Y204567D02*
X251053Y204490D01*
X250727Y204273D01*
X250510Y203947D01*
X250433Y203563D01*
X250510Y203179D01*
X250727Y202853D01*
X251053Y202636D01*
X251437Y202559D01*
X251821Y202636D01*
X252147Y202853D01*
X252364Y203179D01*
X252441Y203563D01*
X252364Y203947D01*
X252147Y204273D01*
X251821Y204490D01*
X251437Y204567D01*
D02*
G37*
G36*
X243563D02*
X243179Y204490D01*
X242853Y204273D01*
X242636Y203947D01*
X242560Y203563D01*
X242636Y203179D01*
X242853Y202853D01*
X243179Y202636D01*
X243563Y202559D01*
X243947Y202636D01*
X244273Y202853D01*
X244490Y203179D01*
X244566Y203563D01*
X244490Y203947D01*
X244273Y204273D01*
X243947Y204490D01*
X243563Y204567D01*
D02*
G37*
G36*
X254500Y194379D02*
Y193500D01*
X255379D01*
X255366Y193566D01*
X255045Y194045D01*
X254566Y194366D01*
X254500Y194379D01*
D02*
G37*
G36*
X253500D02*
X253434Y194366D01*
X252955Y194045D01*
X252634Y193566D01*
X252621Y193500D01*
X253500D01*
Y194379D01*
D02*
G37*
G36*
X275500Y194042D02*
Y193163D01*
X276379D01*
X276366Y193228D01*
X276045Y193708D01*
X275566Y194028D01*
X275500Y194042D01*
D02*
G37*
G36*
X274500D02*
X274434Y194028D01*
X273955Y193708D01*
X273634Y193228D01*
X273621Y193163D01*
X274500D01*
Y194042D01*
D02*
G37*
G36*
X266000Y193960D02*
Y193081D01*
X266879D01*
X266866Y193147D01*
X266545Y193627D01*
X266066Y193947D01*
X266000Y193960D01*
D02*
G37*
G36*
X265000D02*
X264934Y193947D01*
X264455Y193627D01*
X264134Y193147D01*
X264121Y193081D01*
X265000D01*
Y193960D01*
D02*
G37*
G36*
X255379Y192500D02*
X254500D01*
Y191621D01*
X254566Y191634D01*
X255045Y191955D01*
X255366Y192434D01*
X255379Y192500D01*
D02*
G37*
G36*
X253500D02*
X252621D01*
X252634Y192434D01*
X252955Y191955D01*
X253434Y191634D01*
X253500Y191621D01*
Y192500D01*
D02*
G37*
G36*
X241402Y194478D02*
X240836Y194366D01*
X240356Y194045D01*
X240036Y193566D01*
X239923Y193000D01*
X240036Y192434D01*
X240356Y191955D01*
X240836Y191634D01*
X241402Y191522D01*
X241967Y191634D01*
X242447Y191955D01*
X242767Y192434D01*
X242880Y193000D01*
X242767Y193566D01*
X242447Y194045D01*
X241967Y194366D01*
X241402Y194478D01*
D02*
G37*
G36*
X276379Y192163D02*
X275500D01*
Y191284D01*
X275566Y191297D01*
X276045Y191617D01*
X276366Y192097D01*
X276379Y192163D01*
D02*
G37*
G36*
X274500D02*
X273621D01*
X273634Y192097D01*
X273955Y191617D01*
X274434Y191297D01*
X274500Y191284D01*
Y192163D01*
D02*
G37*
G36*
X266879Y192081D02*
X266000D01*
Y191202D01*
X266066Y191215D01*
X266545Y191536D01*
X266866Y192016D01*
X266879Y192081D01*
D02*
G37*
G36*
X265000D02*
X264121D01*
X264134Y192016D01*
X264455Y191536D01*
X264934Y191215D01*
X265000Y191202D01*
Y192081D01*
D02*
G37*
G36*
X441000Y202148D02*
X439538Y201956D01*
X438176Y201392D01*
X437006Y200494D01*
X436108Y199324D01*
X435544Y197962D01*
X435352Y196500D01*
X435544Y195038D01*
X436108Y193676D01*
X437006Y192506D01*
X438176Y191608D01*
X439538Y191044D01*
X441000Y190852D01*
X442462Y191044D01*
X443824Y191608D01*
X444994Y192506D01*
X445892Y193676D01*
X446456Y195038D01*
X446648Y196500D01*
X446456Y197962D01*
X445892Y199324D01*
X444994Y200494D01*
X443824Y201392D01*
X442462Y201956D01*
X441000Y202148D01*
D02*
G37*
G36*
X214000D02*
X212538Y201956D01*
X211176Y201392D01*
X210006Y200494D01*
X209108Y199324D01*
X208544Y197962D01*
X208352Y196500D01*
X208544Y195038D01*
X209108Y193676D01*
X210006Y192506D01*
X211176Y191608D01*
X212538Y191044D01*
X214000Y190852D01*
X215462Y191044D01*
X216824Y191608D01*
X217994Y192506D01*
X218892Y193676D01*
X219456Y195038D01*
X219648Y196500D01*
X219456Y197962D01*
X218892Y199324D01*
X217994Y200494D01*
X216824Y201392D01*
X215462Y201956D01*
X214000Y202148D01*
D02*
G37*
%LPD*%
D55*
Y196500D02*
D03*
Y286000D02*
D03*
X441000Y196500D02*
D03*
Y286000D02*
D03*
D56*
X358500Y267752D02*
D03*
X257500Y286500D02*
D03*
X442000Y227000D02*
D03*
X445740Y234224D02*
D03*
X364094Y285000D02*
D03*
X381081Y293500D02*
D03*
X254000Y193000D02*
D03*
X241402D02*
D03*
X251284Y222000D02*
D03*
X240283Y230000D02*
D03*
X255000Y215500D02*
D03*
X234500D02*
D03*
X275000Y192663D02*
D03*
X265500Y192581D02*
D03*
X226783Y222000D02*
D03*
X205902Y220000D02*
D03*
X205701Y211000D02*
D03*
X244250Y286500D02*
D03*
X247500Y274000D02*
D03*
X260098D02*
D03*
X241598D02*
D03*
X247081Y263000D02*
D03*
X241000D02*
D03*
X257919D02*
D03*
X370102Y293500D02*
D03*
X396919Y235000D02*
D03*
X436000Y239000D02*
D03*
X440919D02*
D03*
X445919D02*
D03*
X450919D02*
D03*
Y234500D02*
D03*
Y229500D02*
D03*
Y224500D02*
D03*
Y219500D02*
D03*
X445919D02*
D03*
X440919D02*
D03*
X435919D02*
D03*
X397811Y245000D02*
D03*
X327000Y267949D02*
D03*
X406419Y222000D02*
D03*
X421419D02*
D03*
X406500Y235000D02*
D03*
X416419Y222000D02*
D03*
X431419D02*
D03*
X416500Y233500D02*
D03*
X431500D02*
D03*
X411419Y222000D02*
D03*
X426419D02*
D03*
X411500Y233500D02*
D03*
X421500D02*
D03*
X426500D02*
D03*
D57*
X373500Y249248D02*
D03*
X317000Y267898D02*
D03*
X322000D02*
D03*
X230163Y263000D02*
D03*
X229000Y274000D02*
D03*
X231500Y286500D02*
D03*
D58*
X243563Y203563D02*
D03*
Y207500D02*
D03*
Y211437D02*
D03*
X247500Y203563D02*
D03*
X247500Y207500D02*
D03*
X247500Y211437D02*
D03*
X251437Y203563D02*
D03*
X251437Y207500D02*
D03*
X251437Y211437D02*
D03*
M02*
