G04*
G04 #@! TF.GenerationSoftware,Altium Limited,Altium Designer,20.1.14 (287)*
G04*
G04 Layer_Color=65535*
%FSLAX25Y25*%
%MOIN*%
G70*
G04*
G04 #@! TF.SameCoordinates,ACA2496A-1981-4D04-82D2-C06787754FA9*
G04*
G04*
G04 #@! TF.FilePolarity,Positive*
G04*
G01*
G75*
%ADD10C,0.01575*%
%ADD11C,0.00984*%
%ADD12C,0.00787*%
%ADD13C,0.00500*%
%ADD14C,0.00700*%
D10*
X318752Y258055D02*
X318208Y258804D01*
X317328Y258518D01*
Y257592D01*
X318208Y257306D01*
X318752Y258055D01*
X360094Y257713D02*
X359550Y258461D01*
X358670Y258175D01*
Y257250D01*
X359550Y256964D01*
X360094Y257713D01*
D11*
X314146Y249000D02*
X313407Y249426D01*
Y248574D01*
X314146Y249000D01*
X409957Y275913D02*
X409219Y276340D01*
Y275487D01*
X409957Y275913D01*
X355646Y249248D02*
X354907Y249674D01*
Y248822D01*
X355646Y249248D01*
X435405Y224776D02*
X434667Y225202D01*
Y224349D01*
X435405Y224776D01*
X256063Y218721D02*
X255325Y219147D01*
Y218294D01*
X256063Y218721D01*
D12*
X354185Y254906D02*
Y261992D01*
X314815Y254906D02*
Y261992D01*
X354185D01*
X314815Y254906D02*
X354185D01*
X362032Y290350D02*
X365968D01*
X362032Y296650D02*
X365968D01*
X417929Y275992D02*
X420094D01*
X417929Y250008D02*
X420094D01*
X417929D02*
Y275992D01*
X375842Y254563D02*
Y262437D01*
X356157Y254563D02*
Y262437D01*
X375842D01*
X356157Y254563D02*
X375842D01*
X436095Y228122D02*
Y230878D01*
X447905Y228122D02*
Y230878D01*
X436095Y228122D02*
X447905D01*
X436095Y230878D02*
X447905D01*
X368228Y288150D02*
X371772D01*
X368228Y281850D02*
X371772D01*
X384832Y296961D02*
X388168D01*
X384832Y290039D02*
X388168D01*
X245535Y196346D02*
X249866D01*
X245535Y189654D02*
X249866D01*
X268961Y196332D02*
Y199668D01*
X262039Y196332D02*
Y199668D01*
X390134Y222850D02*
X393677D01*
X390134Y229150D02*
X393677D01*
X239232Y214685D02*
X239232Y215768D01*
X240315D01*
X239232Y199232D02*
Y200315D01*
Y199232D02*
X240315Y199232D01*
X254685Y199232D02*
X255768D01*
X255768Y200315D01*
X255768Y214685D02*
Y215768D01*
X254685Y215768D02*
X255768Y215768D01*
X210035Y216653D02*
X214366D01*
X210035Y223346D02*
X214366D01*
X230031Y219342D02*
X233968D01*
X230031Y224658D02*
X233968D01*
X254532Y219342D02*
X258469D01*
X254532Y224658D02*
X258469D01*
X271539Y196414D02*
Y199749D01*
X278461Y196414D02*
Y199749D01*
X243531Y227343D02*
X247468D01*
X243531Y232658D02*
X247468D01*
X209835Y207653D02*
X214165D01*
X209835Y214347D02*
X214165D01*
X251634Y270654D02*
X255965D01*
X251634Y277346D02*
X255965D01*
X233134Y277346D02*
X237465D01*
X233134Y270654D02*
X237465D01*
X250832Y266461D02*
X254168D01*
X250832Y259539D02*
X254168D01*
X233913Y266461D02*
X237249D01*
X233913Y259539D02*
X237249D01*
X396850Y286728D02*
Y290272D01*
X403150Y286728D02*
Y290272D01*
X389832Y231539D02*
X393168D01*
X389832Y238461D02*
X393168D01*
X388945Y250153D02*
X394654D01*
X388945Y256846D02*
X394654D01*
X390134Y241850D02*
X393677D01*
X390134Y248150D02*
X393677D01*
D13*
X240500Y294500D02*
Y295833D01*
X241166Y296499D01*
X241833Y295833D01*
Y294500D01*
Y295500D01*
X240500D01*
X243832Y296166D02*
X243499Y296499D01*
X242833D01*
X242499Y296166D01*
Y294833D01*
X242833Y294500D01*
X243499D01*
X243832Y294833D01*
Y295500D01*
X243166D01*
X244499Y294500D02*
Y296499D01*
X245832Y294500D01*
Y296499D01*
X246498D02*
Y294500D01*
X247498D01*
X247831Y294833D01*
Y296166D01*
X247498Y296499D01*
X246498D01*
X230833D02*
X229500D01*
Y295500D01*
X230166Y295833D01*
X230500D01*
X230833Y295500D01*
Y294833D01*
X230500Y294500D01*
X229833D01*
X229500Y294833D01*
X231499Y296499D02*
Y295166D01*
X232166Y294500D01*
X232832Y295166D01*
Y296499D01*
X268500Y295000D02*
Y296333D01*
X269166Y296999D01*
X269833Y296333D01*
Y295000D01*
Y296000D01*
X268500D01*
X270499Y296999D02*
Y295000D01*
X271499D01*
X271832Y295333D01*
Y296666D01*
X271499Y296999D01*
X270499D01*
X272499Y296666D02*
X272832Y296999D01*
X273498D01*
X273832Y296666D01*
Y295333D01*
X273498Y295000D01*
X272832D01*
X272499Y295333D01*
Y296666D01*
X278333D02*
X278000Y296999D01*
X277333D01*
X277000Y296666D01*
Y296333D01*
X277333Y296000D01*
X278000D01*
X278333Y295666D01*
Y295333D01*
X278000Y295000D01*
X277333D01*
X277000Y295333D01*
X278999Y296999D02*
Y295000D01*
X279999D01*
X280332Y295333D01*
Y296666D01*
X279999Y296999D01*
X278999D01*
X280999Y295000D02*
Y296333D01*
X281665Y296999D01*
X282332Y296333D01*
Y295000D01*
Y296000D01*
X280999D01*
X341000Y295000D02*
Y296999D01*
X341666Y296333D01*
X342333Y296999D01*
Y295000D01*
X343999Y296999D02*
X343333D01*
X342999Y296666D01*
Y295333D01*
X343333Y295000D01*
X343999D01*
X344332Y295333D01*
Y296666D01*
X343999Y296999D01*
X346332Y296666D02*
X345998Y296999D01*
X345332D01*
X344999Y296666D01*
Y296333D01*
X345332Y296000D01*
X345998D01*
X346332Y295666D01*
Y295333D01*
X345998Y295000D01*
X345332D01*
X344999Y295333D01*
X346998Y296999D02*
X347664D01*
X347331D01*
Y295000D01*
X346998D01*
X347664D01*
X326833Y296666D02*
X326500Y296999D01*
X325833D01*
X325500Y296666D01*
Y295333D01*
X325833Y295000D01*
X326500D01*
X326833Y295333D01*
X327499Y296999D02*
Y295000D01*
X328832D01*
X329499Y296999D02*
Y295000D01*
Y295666D01*
X330832Y296999D01*
X329832Y296000D01*
X330832Y295000D01*
X332500D02*
Y296999D01*
X333166Y296333D01*
X333833Y296999D01*
Y295000D01*
X334499Y296999D02*
X335166D01*
X334833D01*
Y295000D01*
X334499D01*
X335166D01*
X337498Y296666D02*
X337165Y296999D01*
X336499D01*
X336165Y296666D01*
Y296333D01*
X336499Y296000D01*
X337165D01*
X337498Y295666D01*
Y295333D01*
X337165Y295000D01*
X336499D01*
X336165Y295333D01*
X339164Y296999D02*
X338498D01*
X338165Y296666D01*
Y295333D01*
X338498Y295000D01*
X339164D01*
X339498Y295333D01*
Y296666D01*
X339164Y296999D01*
X350833Y296666D02*
X350500Y296999D01*
X349833D01*
X349500Y296666D01*
Y295333D01*
X349833Y295000D01*
X350500D01*
X350833Y295333D01*
X352832Y296666D02*
X352499Y296999D01*
X351833D01*
X351499Y296666D01*
Y296333D01*
X351833Y296000D01*
X352499D01*
X352832Y295666D01*
Y295333D01*
X352499Y295000D01*
X351833D01*
X351499Y295333D01*
X406000Y296999D02*
Y295000D01*
X407000D01*
X407333Y295333D01*
Y295666D01*
X407000Y296000D01*
X406000D01*
X407000D01*
X407333Y296333D01*
Y296666D01*
X407000Y296999D01*
X406000D01*
X407999Y295000D02*
Y296333D01*
X408666Y296999D01*
X409332Y296333D01*
Y295000D01*
Y296000D01*
X407999D01*
X409999Y296999D02*
X411332D01*
X410665D01*
Y295000D01*
X411998Y296999D02*
X413331D01*
X412665D01*
Y295000D01*
X427833Y296666D02*
X427500Y296999D01*
X426833D01*
X426500Y296666D01*
Y295333D01*
X426833Y295000D01*
X427500D01*
X427833Y295333D01*
X428499Y296999D02*
Y295000D01*
Y296000D01*
X429832D01*
Y296999D01*
Y295000D01*
X430499D02*
Y296333D01*
X431165Y296999D01*
X431832Y296333D01*
Y295000D01*
Y296000D01*
X430499D01*
X433831Y296666D02*
X433498Y296999D01*
X432831D01*
X432498Y296666D01*
Y296333D01*
X432831Y296000D01*
X433498D01*
X433831Y295666D01*
Y295333D01*
X433498Y295000D01*
X432831D01*
X432498Y295333D01*
X435830Y296666D02*
X435497Y296999D01*
X434831D01*
X434497Y296666D01*
Y296333D01*
X434831Y296000D01*
X435497D01*
X435830Y295666D01*
Y295333D01*
X435497Y295000D01*
X434831D01*
X434497Y295333D01*
X436497Y296999D02*
X437163D01*
X436830D01*
Y295000D01*
X436497D01*
X437163D01*
X439496Y296666D02*
X439163Y296999D01*
X438496D01*
X438163Y296666D01*
Y296333D01*
X438496Y296000D01*
X439163D01*
X439496Y295666D01*
Y295333D01*
X439163Y295000D01*
X438496D01*
X438163Y295333D01*
X443495Y296666D02*
X443161Y296999D01*
X442495D01*
X442162Y296666D01*
Y295333D01*
X442495Y295000D01*
X443161D01*
X443495Y295333D01*
Y296000D01*
X442828D01*
X444161Y295000D02*
Y296999D01*
X445494Y295000D01*
Y296999D01*
X446160D02*
Y295000D01*
X447160D01*
X447493Y295333D01*
Y296666D01*
X447160Y296999D01*
X446160D01*
X254500Y296166D02*
X254833Y296499D01*
X255500D01*
X255833Y296166D01*
Y295833D01*
X255500Y295500D01*
X255166D01*
X255500D01*
X255833Y295166D01*
Y294833D01*
X255500Y294500D01*
X254833D01*
X254500Y294833D01*
X256499Y296499D02*
Y295166D01*
X257166Y294500D01*
X257832Y295166D01*
Y296499D01*
X258499Y296166D02*
X258832Y296499D01*
X259498D01*
X259832Y296166D01*
Y295833D01*
X259498Y295500D01*
X259165D01*
X259498D01*
X259832Y295166D01*
Y294833D01*
X259498Y294500D01*
X258832D01*
X258499Y294833D01*
X349500Y192000D02*
Y193999D01*
X350500D01*
X350833Y193666D01*
Y193000D01*
X350500Y192666D01*
X349500D01*
X350166D02*
X350833Y192000D01*
X352499D02*
X351833D01*
X351499Y192333D01*
Y193000D01*
X351833Y193333D01*
X352499D01*
X352832Y193000D01*
Y192666D01*
X351499D01*
X353499Y193333D02*
X354165Y192000D01*
X354832Y193333D01*
X355498Y192000D02*
X356165D01*
X355831D01*
Y193333D01*
X355498D01*
X357164Y192000D02*
X358164D01*
X358497Y192333D01*
X358164Y192666D01*
X357497D01*
X357164Y193000D01*
X357497Y193333D01*
X358497D01*
X359163Y192000D02*
X359830D01*
X359497D01*
Y193333D01*
X359163D01*
X361163Y192000D02*
X361829D01*
X362163Y192333D01*
Y193000D01*
X361829Y193333D01*
X361163D01*
X360830Y193000D01*
Y192333D01*
X361163Y192000D01*
X362829D02*
Y193333D01*
X363829D01*
X364162Y193000D01*
Y192000D01*
X368161Y193666D02*
X367827Y193999D01*
X367161D01*
X366828Y193666D01*
Y192333D01*
X367161Y192000D01*
X367827D01*
X368161Y192333D01*
X370826Y193666D02*
X371160Y193999D01*
X371826D01*
X372159Y193666D01*
Y193333D01*
X371826Y193000D01*
X372159Y192666D01*
Y192333D01*
X371826Y192000D01*
X371160D01*
X370826Y192333D01*
Y192666D01*
X371160Y193000D01*
X370826Y193333D01*
Y193666D01*
X371160Y193000D02*
X371826D01*
X372826Y192000D02*
X374159Y193333D01*
X374825Y193666D02*
X375158Y193999D01*
X375825D01*
X376158Y193666D01*
Y193333D01*
X375825Y193000D01*
X375492D01*
X375825D01*
X376158Y192666D01*
Y192333D01*
X375825Y192000D01*
X375158D01*
X374825Y192333D01*
X376824Y193666D02*
X377158Y193999D01*
X377824D01*
X378157Y193666D01*
Y192333D01*
X377824Y192000D01*
X377158D01*
X376824Y192333D01*
Y193666D01*
X378824Y192000D02*
X380157Y193333D01*
X382156Y192000D02*
X380823D01*
X382156Y193333D01*
Y193666D01*
X381823Y193999D01*
X381156D01*
X380823Y193666D01*
X382822D02*
X383156Y193999D01*
X383822D01*
X384155Y193666D01*
Y192333D01*
X383822Y192000D01*
X383156D01*
X382822Y192333D01*
Y193666D01*
X386155Y192000D02*
X384822D01*
X386155Y193333D01*
Y193666D01*
X385822Y193999D01*
X385155D01*
X384822Y193666D01*
X386821D02*
X387154Y193999D01*
X387821D01*
X388154Y193666D01*
Y192333D01*
X387821Y192000D01*
X387154D01*
X386821Y192333D01*
Y193666D01*
X288333Y296666D02*
X288000Y296999D01*
X287333D01*
X287000Y296666D01*
Y296333D01*
X287333Y296000D01*
X288000D01*
X288333Y295666D01*
Y295333D01*
X288000Y295000D01*
X287333D01*
X287000Y295333D01*
X290332Y296666D02*
X289999Y296999D01*
X289333D01*
X288999Y296666D01*
Y295333D01*
X289333Y295000D01*
X289999D01*
X290332Y295333D01*
X290999Y296999D02*
Y295000D01*
X292332D01*
X415500Y294833D02*
Y296833D01*
X416500D01*
X416833Y296499D01*
Y295833D01*
X416500Y295500D01*
X415500D01*
X417499Y294833D02*
X418166D01*
X417833D01*
Y296166D01*
X417499D01*
X419166Y294500D02*
X420498D01*
X421165Y296833D02*
Y295500D01*
X421831Y294833D01*
X422498Y295500D01*
Y296833D01*
X349500Y198666D02*
Y196667D01*
X350500D01*
X350833Y197000D01*
Y198333D01*
X350500Y198666D01*
X349500D01*
X352499Y196667D02*
X351833D01*
X351499Y197000D01*
Y197666D01*
X351833Y197999D01*
X352499D01*
X352832Y197666D01*
Y197333D01*
X351499D01*
X353499Y196667D02*
X354498D01*
X354832Y197000D01*
X354498Y197333D01*
X353832D01*
X353499Y197666D01*
X353832Y197999D01*
X354832D01*
X355498Y196667D02*
X356165D01*
X355831D01*
Y197999D01*
X355498D01*
X357831Y196000D02*
X358164D01*
X358497Y196333D01*
Y197999D01*
X357497D01*
X357164Y197666D01*
Y197000D01*
X357497Y196667D01*
X358497D01*
X359163D02*
Y197999D01*
X360163D01*
X360496Y197666D01*
Y196667D01*
X362163D02*
X361496D01*
X361163Y197000D01*
Y197666D01*
X361496Y197999D01*
X362163D01*
X362496Y197666D01*
Y197333D01*
X361163D01*
X364495Y198666D02*
Y196667D01*
X363495D01*
X363162Y197000D01*
Y197666D01*
X363495Y197999D01*
X364495D01*
X367161Y198666D02*
Y196667D01*
X368161D01*
X368494Y197000D01*
Y197333D01*
Y197666D01*
X368161Y197999D01*
X367161D01*
X369160D02*
Y197000D01*
X369494Y196667D01*
X370493D01*
Y196333D01*
X370160Y196000D01*
X369827D01*
X370493Y196667D02*
Y197999D01*
X374492Y198333D02*
X374159Y198666D01*
X373492D01*
X373159Y198333D01*
Y197000D01*
X373492Y196667D01*
X374159D01*
X374492Y197000D01*
X375158Y198666D02*
Y196667D01*
Y197666D01*
X375492Y197999D01*
X376158D01*
X376491Y197666D01*
Y196667D01*
X377491Y197999D02*
X378157D01*
X378491Y197666D01*
Y196667D01*
X377491D01*
X377158Y197000D01*
X377491Y197333D01*
X378491D01*
X380490Y198666D02*
Y196667D01*
X379490D01*
X379157Y197000D01*
Y197666D01*
X379490Y197999D01*
X380490D01*
X383156Y196667D02*
Y198666D01*
X384155D01*
X384489Y198333D01*
Y197666D01*
X384155Y197333D01*
X383156D01*
X383822D02*
X384489Y196667D01*
X385155Y197999D02*
Y197000D01*
X385488Y196667D01*
X386488D01*
Y196333D01*
X386155Y196000D01*
X385822D01*
X386488Y196667D02*
Y197999D01*
X387488D02*
X388154D01*
X388487Y197666D01*
Y196667D01*
X387488D01*
X387154Y197000D01*
X387488Y197333D01*
X388487D01*
X389154Y196667D02*
Y197999D01*
X390154D01*
X390487Y197666D01*
Y196667D01*
X394485D02*
X394152Y197000D01*
X393819Y196667D01*
X393486D01*
X393152Y197000D01*
Y197333D01*
X393486Y197666D01*
X393152Y197999D01*
Y198333D01*
X393486Y198666D01*
X393819D01*
X394152Y198333D01*
Y197999D01*
X393819Y197666D01*
X394152Y197333D01*
Y197000D01*
X394485Y197666D02*
X394152Y197333D01*
X393486Y197666D02*
X393819D01*
X397151Y198666D02*
Y196667D01*
X398151D01*
X398484Y197000D01*
Y197333D01*
X398151Y197666D01*
X397151D01*
X398151D01*
X398484Y197999D01*
Y198333D01*
X398151Y198666D01*
X397151D01*
X399150Y197999D02*
Y196667D01*
Y197333D01*
X399484Y197666D01*
X399817Y197999D01*
X400150D01*
X401483D02*
X402150D01*
X402483Y197666D01*
Y196667D01*
X401483D01*
X401150Y197000D01*
X401483Y197333D01*
X402483D01*
X404482Y198666D02*
Y196667D01*
X403482D01*
X403149Y197000D01*
Y197666D01*
X403482Y197999D01*
X404482D01*
X407148Y198666D02*
Y196667D01*
X407814Y197333D01*
X408481Y196667D01*
Y198666D01*
X409147Y196667D02*
X409814D01*
X409480D01*
Y197999D01*
X409147D01*
X410813Y196667D02*
X411480D01*
X411147D01*
Y198666D01*
X410813D01*
X412479Y196667D02*
X413146D01*
X412813D01*
Y198666D01*
X412479D01*
X414146Y196667D02*
X414812D01*
X414479D01*
Y197999D01*
X414146D01*
X416145D02*
X416812D01*
X417145Y197666D01*
Y196667D01*
X416145D01*
X415812Y197000D01*
X416145Y197333D01*
X417145D01*
X417811Y196667D02*
Y197999D01*
X418144D01*
X418478Y197666D01*
Y196667D01*
Y197666D01*
X418811Y197999D01*
X419144Y197666D01*
Y196667D01*
X419810D02*
X420810D01*
X421143Y197000D01*
X420810Y197333D01*
X420144D01*
X419810Y197666D01*
X420144Y197999D01*
X421143D01*
X411834Y277500D02*
Y275834D01*
X412167Y275500D01*
X412834D01*
X413167Y275834D01*
Y277500D01*
X413833Y277167D02*
X414166Y277500D01*
X414833D01*
X415166Y277167D01*
Y276833D01*
X414833Y276500D01*
X414500D01*
X414833D01*
X415166Y276167D01*
Y275834D01*
X414833Y275500D01*
X414166D01*
X413833Y275834D01*
X354000Y244334D02*
X355666D01*
X356000Y244667D01*
Y245334D01*
X355666Y245667D01*
X354000D01*
X356000Y247666D02*
Y246333D01*
X354667Y247666D01*
X354333D01*
X354000Y247333D01*
Y246667D01*
X354333Y246333D01*
X434250Y221500D02*
X435500D01*
X435750Y221750D01*
Y222250D01*
X435500Y222500D01*
X434250D01*
X435750Y223000D02*
Y223500D01*
Y223250D01*
X434250D01*
X434500Y223000D01*
X378906Y286500D02*
Y288500D01*
X379906D01*
X380239Y288166D01*
Y287500D01*
X379906Y287167D01*
X378906D01*
X379573D02*
X380239Y286500D01*
X380906D02*
X381572D01*
X381239D01*
Y288500D01*
X380906Y288166D01*
X382572D02*
X382905Y288500D01*
X383572D01*
X383905Y288166D01*
Y286834D01*
X383572Y286500D01*
X382905D01*
X382572Y286834D01*
Y288166D01*
X373657Y277500D02*
Y279500D01*
X374656D01*
X374990Y279167D01*
Y278500D01*
X374656Y278167D01*
X373657D01*
X374323D02*
X374990Y277500D01*
X375656Y277834D02*
X375989Y277500D01*
X376656D01*
X376989Y277834D01*
Y279167D01*
X376656Y279500D01*
X375989D01*
X375656Y279167D01*
Y278833D01*
X375989Y278500D01*
X376989D01*
X259667Y205666D02*
X259334Y206000D01*
X258667D01*
X258334Y205666D01*
Y204334D01*
X258667Y204000D01*
X259334D01*
X259667Y204334D01*
X261333Y204000D02*
Y206000D01*
X260333Y205000D01*
X261666D01*
X312500Y244334D02*
X314166D01*
X314500Y244667D01*
Y245334D01*
X314166Y245667D01*
X312500D01*
Y247666D02*
X312833Y247000D01*
X313500Y246333D01*
X314166D01*
X314500Y246667D01*
Y247333D01*
X314166Y247666D01*
X313833D01*
X313500Y247333D01*
Y246333D01*
X373436Y295000D02*
Y297000D01*
X374436D01*
X374769Y296667D01*
Y296000D01*
X374436Y295667D01*
X373436D01*
X374103D02*
X374769Y295000D01*
X375436Y296667D02*
X375769Y297000D01*
X376435D01*
X376768Y296667D01*
Y296333D01*
X376435Y296000D01*
X376768Y295667D01*
Y295334D01*
X376435Y295000D01*
X375769D01*
X375436Y295334D01*
Y295667D01*
X375769Y296000D01*
X375436Y296333D01*
Y296667D01*
X375769Y296000D02*
X376435D01*
X264334Y277167D02*
X264001Y277500D01*
X263334D01*
X263001Y277167D01*
Y275834D01*
X263334Y275500D01*
X264001D01*
X264334Y275834D01*
X265000Y275500D02*
X265667D01*
X265333D01*
Y277500D01*
X265000Y277167D01*
X267999Y275500D02*
X266666D01*
X267999Y276833D01*
Y277167D01*
X267666Y277500D01*
X267000D01*
X266666Y277167D01*
X262167Y265667D02*
X261834Y266000D01*
X261167D01*
X260834Y265667D01*
Y264334D01*
X261167Y264000D01*
X261834D01*
X262167Y264334D01*
X262833Y264000D02*
X263500D01*
X263167D01*
Y266000D01*
X262833Y265667D01*
X264499Y264000D02*
X265166D01*
X264833D01*
Y266000D01*
X264499Y265667D01*
X390834Y288667D02*
X390500Y289000D01*
X389834D01*
X389501Y288667D01*
Y287334D01*
X389834Y287000D01*
X390500D01*
X390834Y287334D01*
X391500Y287000D02*
X392167D01*
X391833D01*
Y289000D01*
X391500Y288667D01*
X393166D02*
X393499Y289000D01*
X394166D01*
X394499Y288667D01*
Y287334D01*
X394166Y287000D01*
X393499D01*
X393166Y287334D01*
Y288667D01*
X252834Y231000D02*
Y233000D01*
X253834D01*
X254167Y232666D01*
Y232000D01*
X253834Y231667D01*
X252834D01*
X253500D02*
X254167Y231000D01*
X256166Y233000D02*
X255500Y232666D01*
X254833Y232000D01*
Y231334D01*
X255167Y231000D01*
X255833D01*
X256166Y231334D01*
Y231667D01*
X255833Y232000D01*
X254833D01*
X264334Y223500D02*
Y225500D01*
X265334D01*
X265667Y225167D01*
Y224500D01*
X265334Y224167D01*
X264334D01*
X265000D02*
X265667Y223500D01*
X267666Y225500D02*
X266333D01*
Y224500D01*
X267000Y224833D01*
X267333D01*
X267666Y224500D01*
Y223834D01*
X267333Y223500D01*
X266667D01*
X266333Y223834D01*
X239334Y223000D02*
Y225000D01*
X240334D01*
X240667Y224667D01*
Y224000D01*
X240334Y223667D01*
X239334D01*
X240000D02*
X240667Y223000D01*
X241333Y225000D02*
X242666D01*
Y224667D01*
X241333Y223334D01*
Y223000D01*
X222667Y223166D02*
X222334Y223500D01*
X221667D01*
X221334Y223166D01*
Y221834D01*
X221667Y221500D01*
X222334D01*
X222667Y221834D01*
X224666Y223500D02*
X224000Y223166D01*
X223333Y222500D01*
Y221834D01*
X223667Y221500D01*
X224333D01*
X224666Y221834D01*
Y222167D01*
X224333Y222500D01*
X223333D01*
X222667Y214166D02*
X222334Y214500D01*
X221667D01*
X221334Y214166D01*
Y212834D01*
X221667Y212500D01*
X222334D01*
X222667Y212834D01*
X223333D02*
X223667Y212500D01*
X224333D01*
X224666Y212834D01*
Y214166D01*
X224333Y214500D01*
X223667D01*
X223333Y214166D01*
Y213833D01*
X223667Y213500D01*
X224666D01*
X280167Y205666D02*
X279834Y206000D01*
X279167D01*
X278834Y205666D01*
Y204334D01*
X279167Y204000D01*
X279834D01*
X280167Y204334D01*
X282166Y204000D02*
X280833D01*
X282166Y205333D01*
Y205666D01*
X281833Y206000D01*
X281167D01*
X280833Y205666D01*
X258667Y196167D02*
X258334Y196500D01*
X257667D01*
X257334Y196167D01*
Y194834D01*
X257667Y194500D01*
X258334D01*
X258667Y194834D01*
X259333Y196167D02*
X259666Y196500D01*
X260333D01*
X260666Y196167D01*
Y195833D01*
X260333Y195500D01*
X260666Y195167D01*
Y194834D01*
X260333Y194500D01*
X259666D01*
X259333Y194834D01*
Y195167D01*
X259666Y195500D01*
X259333Y195833D01*
Y196167D01*
X259666Y195500D02*
X260333D01*
X237834Y218000D02*
Y216334D01*
X238167Y216000D01*
X238834D01*
X239167Y216334D01*
Y218000D01*
X240833Y216000D02*
Y218000D01*
X239833Y217000D01*
X241166D01*
X403834Y280000D02*
Y282000D01*
X404834D01*
X405167Y281666D01*
Y281000D01*
X404834Y280667D01*
X403834D01*
X404500D02*
X405167Y280000D01*
X406833D02*
Y282000D01*
X405833Y281000D01*
X407166D01*
X400834Y246500D02*
Y248500D01*
X401834D01*
X402167Y248166D01*
Y247500D01*
X401834Y247167D01*
X400834D01*
X401500D02*
X402167Y246500D01*
X402833Y248166D02*
X403166Y248500D01*
X403833D01*
X404166Y248166D01*
Y247833D01*
X403833Y247500D01*
X403500D01*
X403833D01*
X404166Y247167D01*
Y246834D01*
X403833Y246500D01*
X403166D01*
X402833Y246834D01*
X400334Y254000D02*
Y256000D01*
X401334D01*
X401667Y255666D01*
Y255000D01*
X401334Y254667D01*
X400334D01*
X401000D02*
X401667Y254000D01*
X403666D02*
X402333D01*
X403666Y255333D01*
Y255666D01*
X403333Y256000D01*
X402667D01*
X402333Y255666D01*
X400667Y227000D02*
Y229000D01*
X401667D01*
X402000Y228666D01*
Y228000D01*
X401667Y227667D01*
X400667D01*
X401334D02*
X402000Y227000D01*
X402666D02*
X403333D01*
X403000D01*
Y229000D01*
X402666Y228666D01*
X401167Y237667D02*
X400834Y238000D01*
X400167D01*
X399834Y237667D01*
Y236334D01*
X400167Y236000D01*
X400834D01*
X401167Y236334D01*
X403166Y238000D02*
X401833D01*
Y237000D01*
X402500Y237333D01*
X402833D01*
X403166Y237000D01*
Y236334D01*
X402833Y236000D01*
X402167D01*
X401833Y236334D01*
X224167Y277167D02*
X223834Y277500D01*
X223167D01*
X222834Y277167D01*
Y275834D01*
X223167Y275500D01*
X223834D01*
X224167Y275834D01*
X224833Y277167D02*
X225167Y277500D01*
X225833D01*
X226166Y277167D01*
Y276833D01*
X225833Y276500D01*
X225500D01*
X225833D01*
X226166Y276167D01*
Y275834D01*
X225833Y275500D01*
X225167D01*
X224833Y275834D01*
X226000Y265667D02*
X225667Y266000D01*
X225000D01*
X224667Y265667D01*
Y264334D01*
X225000Y264000D01*
X225667D01*
X226000Y264334D01*
X226666Y264000D02*
X227333D01*
X227000D01*
Y266000D01*
X226666Y265667D01*
D14*
X351699Y205199D02*
X350366D01*
X349700Y204532D01*
Y201867D01*
X350366Y201200D01*
X351699D01*
X352366Y201867D01*
Y204532D01*
X351699Y205199D01*
X353699D02*
Y201200D01*
X355698D01*
X356364Y201867D01*
Y202533D01*
X355698Y203199D01*
X353699D01*
X355698D01*
X356364Y203866D01*
Y204532D01*
X355698Y205199D01*
X353699D01*
X357697Y201200D02*
Y203866D01*
X359030Y205199D01*
X360363Y203866D01*
Y201200D01*
Y203199D01*
X357697D01*
X361696Y205199D02*
X364362D01*
X363029D01*
Y201200D01*
X368361Y204532D02*
X367694Y205199D01*
X366361D01*
X365695Y204532D01*
Y203866D01*
X366361Y203199D01*
X367694D01*
X368361Y202533D01*
Y201867D01*
X367694Y201200D01*
X366361D01*
X365695Y201867D01*
X369694Y203199D02*
X372359D01*
X375692Y205199D02*
X374359D01*
X373692Y204532D01*
Y201867D01*
X374359Y201200D01*
X375692D01*
X376358Y201867D01*
Y204532D01*
X375692Y205199D01*
X377691Y201200D02*
Y205199D01*
X380357Y201200D01*
Y205199D01*
X385688D02*
Y201200D01*
X387688D01*
X388354Y201867D01*
Y202533D01*
X387688Y203199D01*
X385688D01*
X387688D01*
X388354Y203866D01*
Y204532D01*
X387688Y205199D01*
X385688D01*
X391687D02*
X390353D01*
X389687Y204532D01*
Y201867D01*
X390353Y201200D01*
X391687D01*
X392353Y201867D01*
Y204532D01*
X391687Y205199D01*
X393686Y201200D02*
Y203866D01*
X395019Y205199D01*
X396352Y203866D01*
Y201200D01*
Y203199D01*
X393686D01*
X397685Y201200D02*
Y205199D01*
X399684D01*
X400350Y204532D01*
Y203199D01*
X399684Y202533D01*
X397685D01*
X399017D02*
X400350Y201200D01*
X401683Y205199D02*
Y201200D01*
X403683D01*
X404349Y201867D01*
Y204532D01*
X403683Y205199D01*
X401683D01*
X412347Y204532D02*
X411680Y205199D01*
X410347D01*
X409681Y204532D01*
Y203866D01*
X410347Y203199D01*
X411680D01*
X412347Y202533D01*
Y201867D01*
X411680Y201200D01*
X410347D01*
X409681Y201867D01*
X416345Y205199D02*
X413679D01*
Y201200D01*
X416345D01*
X413679Y203199D02*
X415012D01*
X417678Y201200D02*
Y205199D01*
X420344Y201200D01*
Y205199D01*
X424343Y204532D02*
X423676Y205199D01*
X422343D01*
X421677Y204532D01*
Y203866D01*
X422343Y203199D01*
X423676D01*
X424343Y202533D01*
Y201867D01*
X423676Y201200D01*
X422343D01*
X421677Y201867D01*
X428341Y205199D02*
X425675D01*
Y201200D01*
X428341D01*
X425675Y203199D02*
X427008D01*
M02*
