G04*
G04 #@! TF.GenerationSoftware,Altium Limited,Altium Designer,20.1.14 (287)*
G04*
G04 Layer_Color=8388736*
%FSLAX25Y25*%
%MOIN*%
G70*
G04*
G04 #@! TF.SameCoordinates,ACA2496A-1981-4D04-82D2-C06787754FA9*
G04*
G04*
G04 #@! TF.FilePolarity,Negative*
G04*
G01*
G75*
%ADD23R,0.05140X0.06922*%
%ADD25R,0.06922X0.05140*%
%ADD31R,0.03937X0.05906*%
%ADD32O,0.04800X0.12800*%
%ADD33O,0.03162X0.09461*%
%ADD34R,0.05918X0.07887*%
%ADD35R,0.07887X0.04343*%
%ADD36R,0.25210X0.22257*%
%ADD37R,0.06115X0.06902*%
%ADD38O,0.03162X0.08280*%
%ADD39R,0.03162X0.04343*%
%ADD40R,0.06115X0.08280*%
%ADD41R,0.11036X0.11430*%
%ADD42R,0.04147X0.02178*%
%ADD43R,0.02178X0.03950*%
%ADD44R,0.04343X0.06902*%
%ADD45R,0.07887X0.05918*%
%ADD46C,0.06800*%
%ADD47C,0.03700*%
%ADD48C,0.03600*%
%ADD49C,0.02769*%
D23*
X391919Y293500D02*
D03*
X381081D02*
D03*
X257919Y263000D02*
D03*
X247081D02*
D03*
X241000D02*
D03*
X230163D02*
D03*
X386081Y235000D02*
D03*
X396919D02*
D03*
D25*
X265500Y192581D02*
D03*
Y203419D02*
D03*
X275000Y203500D02*
D03*
Y192663D02*
D03*
D31*
X398098Y253500D02*
D03*
X385500D02*
D03*
D32*
X244250Y286500D02*
D03*
X349557Y287500D02*
D03*
X428000D02*
D03*
X257500Y286500D02*
D03*
X231500D02*
D03*
X289000Y287000D02*
D03*
X280000D02*
D03*
X271500D02*
D03*
X342871Y287500D02*
D03*
X336186D02*
D03*
X329500D02*
D03*
X409500D02*
D03*
X418201Y287505D02*
D03*
D33*
X352000Y267898D02*
D03*
X347000D02*
D03*
X342000D02*
D03*
X337000D02*
D03*
X332000D02*
D03*
X327000D02*
D03*
X322000D02*
D03*
X317000D02*
D03*
X352000Y249000D02*
D03*
X347000D02*
D03*
X342000D02*
D03*
X337000D02*
D03*
X332000D02*
D03*
X327000D02*
D03*
X322000D02*
D03*
X317000D02*
D03*
D34*
X370102Y293500D02*
D03*
X357898D02*
D03*
X364094Y285000D02*
D03*
X375905D02*
D03*
X397811Y226000D02*
D03*
X386000D02*
D03*
X397811Y245000D02*
D03*
X386000D02*
D03*
D35*
X409465Y271976D02*
D03*
X409465Y254024D02*
D03*
D36*
X433874Y263000D02*
D03*
D37*
X362823Y276500D02*
D03*
X370500D02*
D03*
D38*
X373500Y267752D02*
D03*
X368500D02*
D03*
X363500D02*
D03*
X358500D02*
D03*
X373500Y249248D02*
D03*
X368500D02*
D03*
X363500D02*
D03*
X358500D02*
D03*
D39*
X438260Y224776D02*
D03*
X442000D02*
D03*
X445740D02*
D03*
Y234224D02*
D03*
X438260D02*
D03*
D40*
X241402Y193000D02*
D03*
X254000D02*
D03*
X218500Y220000D02*
D03*
X205902D02*
D03*
X218299Y211000D02*
D03*
X205701D02*
D03*
X260098Y274000D02*
D03*
X247500D02*
D03*
X229000D02*
D03*
X241598D02*
D03*
D41*
X247500Y207500D02*
D03*
D42*
X255276Y212421D02*
D03*
Y210453D02*
D03*
X255276Y208484D02*
D03*
Y206516D02*
D03*
X255276Y204547D02*
D03*
X255276Y202579D02*
D03*
X239724Y202579D02*
D03*
X239724Y204547D02*
D03*
X239724Y206516D02*
D03*
X239724Y208484D02*
D03*
X239724Y210453D02*
D03*
X239724Y212421D02*
D03*
D43*
X252421Y199626D02*
D03*
X250453Y199626D02*
D03*
X248484Y199626D02*
D03*
X246516Y199626D02*
D03*
X244547D02*
D03*
X242579Y199626D02*
D03*
X242579Y215374D02*
D03*
X244547Y215374D02*
D03*
X246516Y215374D02*
D03*
X248484Y215374D02*
D03*
X250453Y215374D02*
D03*
X252421Y215374D02*
D03*
D44*
X237216Y222000D02*
D03*
X226783D02*
D03*
X261717D02*
D03*
X251284D02*
D03*
X250716Y230000D02*
D03*
X240283D02*
D03*
D45*
X400000Y282594D02*
D03*
Y294406D02*
D03*
D46*
X214000Y196500D02*
D03*
Y286000D02*
D03*
X441000Y196500D02*
D03*
Y286000D02*
D03*
D47*
X436000Y239000D02*
D03*
X205902Y220000D02*
D03*
X205701Y211000D02*
D03*
X251284Y222000D02*
D03*
X255000Y215500D02*
D03*
X234500D02*
D03*
X244250Y286500D02*
D03*
X247500Y274000D02*
D03*
X241598D02*
D03*
X364094Y285000D02*
D03*
X406419Y222000D02*
D03*
X411419D02*
D03*
X396919Y235000D02*
D03*
X397811Y245000D02*
D03*
X406500Y235000D02*
D03*
X411500Y233500D02*
D03*
X445919Y219500D02*
D03*
X440919D02*
D03*
X435919D02*
D03*
X431419Y222000D02*
D03*
X426419D02*
D03*
X445740Y234224D02*
D03*
X440919Y239000D02*
D03*
X445919D02*
D03*
X431500Y233500D02*
D03*
X426500D02*
D03*
X254000Y193000D02*
D03*
X241402D02*
D03*
X240283Y230000D02*
D03*
X247081Y263000D02*
D03*
X241000D02*
D03*
X275000Y192663D02*
D03*
X265500Y192581D02*
D03*
X381081Y293500D02*
D03*
X370102D02*
D03*
X442000Y227000D02*
D03*
X226783Y222000D02*
D03*
X257500Y286500D02*
D03*
X260098Y274000D02*
D03*
X358500Y267752D02*
D03*
X327000Y267949D02*
D03*
X450919Y219500D02*
D03*
X421419Y222000D02*
D03*
X416419D02*
D03*
X450919Y239000D02*
D03*
Y234500D02*
D03*
X416500Y233500D02*
D03*
X421500D02*
D03*
X257919Y263000D02*
D03*
X450919Y229500D02*
D03*
Y224500D02*
D03*
D48*
X317000Y267898D02*
D03*
X373500Y249248D02*
D03*
X229000Y274000D02*
D03*
X231500Y286500D02*
D03*
X322000Y267898D02*
D03*
X230163Y263000D02*
D03*
D49*
X243563Y203563D02*
D03*
Y207500D02*
D03*
Y211437D02*
D03*
X247500Y203563D02*
D03*
X247500Y207500D02*
D03*
X247500Y211437D02*
D03*
X251437Y203563D02*
D03*
X251437Y207500D02*
D03*
X251437Y211437D02*
D03*
M02*
