G04*
G04 #@! TF.GenerationSoftware,Altium Limited,Altium Designer,20.1.14 (287)*
G04*
G04 Layer_Color=32768*
%FSLAX25Y25*%
%MOIN*%
G70*
G04*
G04 #@! TF.SameCoordinates,6CECFA62-5CAE-4AFB-ABBD-F4F89981EE89*
G04*
G04*
G04 #@! TF.FilePolarity,Positive*
G04*
G01*
G75*
%ADD12C,0.00787*%
%ADD63C,0.00394*%
%ADD64C,0.00197*%
D12*
X377527Y289055D02*
X395473D01*
X377527D02*
Y297945D01*
X395473D01*
Y289055D02*
Y297945D01*
X261055Y206973D02*
X269945D01*
X261055Y189027D02*
Y206973D01*
Y189027D02*
X269945D01*
Y206973D01*
X279445Y189108D02*
Y207054D01*
X270555Y189108D02*
X279445D01*
X270555D02*
Y207054D01*
X279445D01*
X243527Y258555D02*
X261473D01*
X243527D02*
Y267445D01*
X261473D01*
Y258555D02*
Y267445D01*
X226608Y258555D02*
Y267445D01*
Y258555D02*
X244554D01*
Y267445D01*
X226608D02*
X244554D01*
X382527Y239445D02*
X400473D01*
Y230555D02*
Y239445D01*
X382527Y230555D02*
X400473D01*
X382527D02*
Y239445D01*
X383138Y249760D02*
X400461D01*
X383138D02*
Y257240D01*
X400461D01*
Y249760D02*
Y257240D01*
D63*
X332531Y258449D02*
X336469D01*
X334500Y256480D02*
Y260417D01*
X362032Y293500D02*
X365968D01*
X364000Y291531D02*
Y295468D01*
X424031Y263000D02*
X427969D01*
X426000Y261032D02*
Y264968D01*
X366661Y274532D02*
Y278468D01*
X364693Y276500D02*
X368630D01*
X364032Y258500D02*
X367969D01*
X366000Y256532D02*
Y260469D01*
X442000Y227532D02*
Y231469D01*
X440031Y229500D02*
X443968D01*
X368032Y285000D02*
X371969D01*
X370000Y283032D02*
Y286968D01*
X247701Y191032D02*
Y194968D01*
X245732Y193000D02*
X249669D01*
X389937Y226000D02*
X393874D01*
X391905Y224031D02*
Y227969D01*
X245532Y207500D02*
X249468Y207500D01*
X247500Y205532D02*
X247500Y209469D01*
X212201Y218032D02*
Y221969D01*
X210232Y220000D02*
X214169D01*
X232000Y220031D02*
Y223969D01*
X230031Y222000D02*
X233968D01*
X256500Y220031D02*
Y223969D01*
X254532Y222000D02*
X258469D01*
X245500Y228031D02*
Y231968D01*
X243531Y230000D02*
X247468D01*
X212000Y209032D02*
Y212968D01*
X210032Y211000D02*
X213968D01*
X253799Y272031D02*
Y275969D01*
X251831Y274000D02*
X255768D01*
X235299Y272031D02*
Y275969D01*
X233331Y274000D02*
X237268D01*
X400000Y286531D02*
Y290469D01*
X398031Y288500D02*
X401968D01*
X389937Y245000D02*
X393874D01*
X391905Y243032D02*
Y246969D01*
D64*
X355169Y243685D02*
Y273213D01*
X313831Y243685D02*
Y273213D01*
X355169D01*
X313831Y243685D02*
X355169D01*
X374630Y287988D02*
Y299012D01*
X353370Y287988D02*
Y299012D01*
Y287988D02*
X374630D01*
X353370Y299012D02*
X374630D01*
X405528Y276386D02*
X405528Y249614D01*
X446472Y249614D02*
Y276386D01*
X405528D02*
X446472D01*
X405528Y249614D02*
X446472Y249614D01*
X358197Y281618D02*
X375126D01*
X358197Y271382D02*
X375126D01*
X358197D02*
Y281618D01*
X375126Y271382D02*
Y281618D01*
X376236Y245114D02*
Y271886D01*
X355764Y245114D02*
Y271886D01*
X376236D01*
X355764Y245114D02*
X376236D01*
X435701Y222610D02*
X448299D01*
X435701Y236390D02*
X448299D01*
X435701Y222610D02*
Y236390D01*
X448299Y222610D02*
Y236390D01*
X359567Y279488D02*
Y290512D01*
X380433Y279488D02*
Y290512D01*
X359567D02*
X380433D01*
X359567Y279488D02*
X380433D01*
X236677Y198709D02*
X258724D01*
X236677Y187291D02*
X258724D01*
X236677D02*
Y198709D01*
X258724Y187291D02*
Y198709D01*
X402339Y220488D02*
Y231512D01*
X381472Y220488D02*
Y231512D01*
Y220488D02*
X402339D01*
X381472Y231512D02*
X402339D01*
X257343Y217342D02*
X257343Y197658D01*
X237657Y217342D02*
X257343Y217342D01*
X237657Y197658D02*
X257343Y197658D01*
X237657Y217342D02*
X237657Y197658D01*
X201177Y214291D02*
X223224D01*
X201177Y225709D02*
X223224D01*
Y214291D02*
Y225709D01*
X201177Y214291D02*
Y225709D01*
X224520Y218260D02*
X239480D01*
X224520Y225740D02*
X239480D01*
Y218260D02*
Y225740D01*
X224520Y218260D02*
Y225740D01*
X249020Y218260D02*
X263980D01*
X249020Y225740D02*
X263980D01*
Y218260D02*
Y225740D01*
X249020Y218260D02*
Y225740D01*
X238020Y226260D02*
X252980D01*
X238020Y233740D02*
X252980D01*
Y226260D02*
Y233740D01*
X238020Y226260D02*
Y233740D01*
X200976Y205291D02*
X223024D01*
X200976Y216709D02*
X223024D01*
Y205291D02*
Y216709D01*
X200976Y205291D02*
Y216709D01*
X242776Y268291D02*
X264823D01*
X242776Y279709D02*
X264823D01*
Y268291D02*
Y279709D01*
X242776Y268291D02*
Y279709D01*
X224276D02*
X246323D01*
X224276Y268291D02*
X246323D01*
X224276D02*
Y279709D01*
X246323Y268291D02*
Y279709D01*
X394488Y278067D02*
X405512D01*
X394488Y298933D02*
X405512D01*
X394488Y278067D02*
Y298933D01*
X405512Y278067D02*
Y298933D01*
X402339Y239488D02*
Y250512D01*
X381472Y239488D02*
Y250512D01*
Y239488D02*
X402339D01*
X381472Y250512D02*
X402339D01*
M02*
