G04*
G04 #@! TF.GenerationSoftware,Altium Limited,Altium Designer,20.1.14 (287)*
G04*
G04 Layer_Physical_Order=1*
G04 Layer_Color=255*
%FSLAX25Y25*%
%MOIN*%
G70*
G04*
G04 #@! TF.SameCoordinates,ACA2496A-1981-4D04-82D2-C06787754FA9*
G04*
G04*
G04 #@! TF.FilePolarity,Positive*
G04*
G01*
G75*
%ADD15O,0.04000X0.12000*%
%ADD16O,0.02362X0.08661*%
%ADD17R,0.05118X0.07087*%
%ADD18R,0.07087X0.03543*%
%ADD19R,0.24410X0.21457*%
%ADD20R,0.05315X0.06102*%
%ADD21O,0.02362X0.07480*%
%ADD22R,0.02362X0.03543*%
%ADD23R,0.05140X0.06922*%
%ADD24R,0.05315X0.07480*%
%ADD25R,0.06922X0.05140*%
%ADD26R,0.10236X0.10630*%
%ADD27R,0.03347X0.01378*%
%ADD28R,0.01378X0.03150*%
%ADD29R,0.03543X0.06102*%
%ADD30R,0.07087X0.05118*%
%ADD31R,0.03937X0.05906*%
%ADD50C,0.02000*%
%ADD51C,0.01400*%
%ADD52C,0.01300*%
%ADD53C,0.04000*%
%ADD54C,0.03500*%
%ADD55C,0.06000*%
%ADD56C,0.02900*%
%ADD57C,0.02800*%
%ADD58C,0.01968*%
G36*
X453500Y185000D02*
X202500D01*
Y206500D01*
X202000D01*
Y224000D01*
X202500Y224500D01*
Y297500D01*
X352939D01*
Y295082D01*
X352439Y294835D01*
X351776Y295343D01*
X350706Y295787D01*
X349557Y295938D01*
X348409Y295787D01*
X347338Y295343D01*
X346419Y294638D01*
X346009D01*
X345090Y295343D01*
X344020Y295787D01*
X342871Y295938D01*
X341723Y295787D01*
X340652Y295343D01*
X339733Y294638D01*
X339324D01*
X338405Y295343D01*
X337334Y295787D01*
X336186Y295938D01*
X335037Y295787D01*
X333967Y295343D01*
X333187Y294745D01*
X332843Y294678D01*
X332499Y294745D01*
X331719Y295343D01*
X330649Y295787D01*
X329500Y295938D01*
X328351Y295787D01*
X327281Y295343D01*
X326362Y294638D01*
X325657Y293719D01*
X325213Y292649D01*
X325062Y291500D01*
Y283500D01*
X325213Y282351D01*
X325657Y281281D01*
X326208Y280562D01*
X326530Y279785D01*
X327075Y279075D01*
X328571Y277579D01*
Y272126D01*
X328511Y271982D01*
X328492Y271840D01*
X327972Y271718D01*
X327852Y271899D01*
X327500Y272134D01*
Y267898D01*
Y263662D01*
X327852Y263896D01*
X327972Y264077D01*
X328492Y263956D01*
X328511Y263813D01*
X328872Y262942D01*
X329446Y262194D01*
X330194Y261620D01*
X331065Y261259D01*
X332000Y261136D01*
X332935Y261259D01*
X333806Y261620D01*
X334500Y262153D01*
X335194Y261620D01*
X336065Y261259D01*
X337000Y261136D01*
X337667Y261224D01*
X337900Y260750D01*
X334575Y257425D01*
X334030Y256715D01*
X333687Y255888D01*
X333671Y255763D01*
X333238Y255513D01*
X332935Y255639D01*
X332000Y255762D01*
X331065Y255639D01*
X330194Y255278D01*
X329500Y254745D01*
X328806Y255278D01*
X327935Y255639D01*
X327000Y255762D01*
X326065Y255639D01*
X325194Y255278D01*
X324500Y254745D01*
X323806Y255278D01*
X322935Y255639D01*
X322000Y255762D01*
X321065Y255639D01*
X320194Y255278D01*
X319500Y254745D01*
X318806Y255278D01*
X317935Y255639D01*
X317000Y255762D01*
X316065Y255639D01*
X315194Y255278D01*
X314446Y254704D01*
X313872Y253956D01*
X313511Y253084D01*
X313388Y252150D01*
Y245850D01*
X313511Y244916D01*
X313872Y244044D01*
X314446Y243296D01*
X315194Y242722D01*
X316065Y242361D01*
X317000Y242238D01*
X317935Y242361D01*
X318806Y242722D01*
X319500Y243255D01*
X320194Y242722D01*
X321065Y242361D01*
X322000Y242238D01*
X322935Y242361D01*
X323806Y242722D01*
X324500Y243255D01*
X325194Y242722D01*
X326065Y242361D01*
X327000Y242238D01*
X327935Y242361D01*
X328806Y242722D01*
X329500Y243255D01*
X330194Y242722D01*
X331065Y242361D01*
X332000Y242238D01*
X332935Y242361D01*
X333806Y242722D01*
X334500Y243255D01*
X335194Y242722D01*
X336065Y242361D01*
X337000Y242238D01*
X337935Y242361D01*
X338806Y242722D01*
X339500Y243255D01*
X340194Y242722D01*
X341065Y242361D01*
X342000Y242238D01*
X342935Y242361D01*
X343806Y242722D01*
X344500Y243255D01*
X345194Y242722D01*
X346065Y242361D01*
X347000Y242238D01*
X347935Y242361D01*
X348806Y242722D01*
X349500Y243255D01*
X350194Y242722D01*
X351065Y242361D01*
X352000Y242238D01*
X352935Y242361D01*
X353806Y242722D01*
X354554Y243296D01*
X355128Y244044D01*
X355248Y244333D01*
X355744Y244399D01*
X355946Y244135D01*
X356694Y243561D01*
X357565Y243200D01*
X358500Y243077D01*
X359435Y243200D01*
X360306Y243561D01*
X361000Y244093D01*
X361694Y243561D01*
X362565Y243200D01*
X363500Y243077D01*
X364435Y243200D01*
X365223Y243527D01*
X365530Y242785D01*
X366075Y242075D01*
X368075Y240075D01*
X368785Y239530D01*
X369612Y239188D01*
X370500Y239071D01*
X372079D01*
X377071Y234080D01*
Y227500D01*
X377187Y226612D01*
X377530Y225785D01*
X378075Y225075D01*
X379575Y223575D01*
X380285Y223030D01*
X381041Y222717D01*
Y220057D01*
X390959D01*
Y229139D01*
X391051D01*
Y240861D01*
X390959D01*
Y242609D01*
X393925Y245575D01*
X393959Y245619D01*
X394437Y245421D01*
X394382Y245000D01*
X394498Y244112D01*
X394571Y243938D01*
Y241919D01*
X394030Y241215D01*
X393688Y240388D01*
X393571Y239500D01*
Y235617D01*
X393489Y235000D01*
X393606Y234112D01*
X393949Y233285D01*
X394349Y232764D01*
Y231943D01*
X392852D01*
Y220057D01*
X402770D01*
Y222571D01*
X404544D01*
X404602Y222500D01*
X408236D01*
X408293Y222571D01*
X409544D01*
X409602Y222500D01*
X413236D01*
X413294Y222571D01*
X414544D01*
X414602Y222500D01*
X418235D01*
X418294Y222571D01*
X419544D01*
X419602Y222500D01*
X423236D01*
X423293Y222571D01*
X424544D01*
X424602Y222500D01*
X428235D01*
X428294Y222571D01*
X429544D01*
X429602Y222500D01*
X433236D01*
X433293Y222571D01*
X434679D01*
Y220604D01*
X434679Y220604D01*
X434679D01*
X434600Y220136D01*
X434553Y220066D01*
X434540Y220000D01*
X437298D01*
X437285Y220066D01*
X437259Y220104D01*
X437526Y220604D01*
X439311D01*
X439578Y220104D01*
X439553Y220066D01*
X439540Y220000D01*
X442298D01*
X442285Y220066D01*
X442259Y220104D01*
X442526Y220604D01*
X444311D01*
X444578Y220104D01*
X444553Y220066D01*
X444540Y220000D01*
X447298D01*
X447285Y220066D01*
X447259Y220104D01*
X447526Y220604D01*
X449321D01*
Y223381D01*
X449821Y223533D01*
X449873Y223455D01*
X450353Y223134D01*
X450419Y223121D01*
Y224500D01*
Y225879D01*
X450353Y225866D01*
X449873Y225545D01*
X449821Y225467D01*
X449321Y225619D01*
Y228381D01*
X449821Y228533D01*
X449873Y228455D01*
X450353Y228134D01*
X450419Y228121D01*
Y229500D01*
Y230879D01*
X450353Y230866D01*
X449873Y230545D01*
X449821Y230467D01*
X449321Y230619D01*
Y232809D01*
X449470Y233169D01*
X449573Y233241D01*
X450014Y233361D01*
X450353Y233134D01*
X450419Y233121D01*
Y234500D01*
Y235879D01*
X450353Y235866D01*
X449895Y235560D01*
X449866Y235546D01*
X449326Y235627D01*
X449321Y235639D01*
Y237881D01*
X449821Y238033D01*
X449873Y237955D01*
X450353Y237634D01*
X450419Y237621D01*
Y238500D01*
X449151D01*
X449051Y238396D01*
X447787D01*
X447702Y238500D01*
X444136D01*
X444051Y238396D01*
X442787D01*
X442701Y238500D01*
X441419D01*
Y237621D01*
X441484Y237634D01*
X441659Y237751D01*
X442159Y237484D01*
Y235639D01*
X442027Y235321D01*
X441742Y235264D01*
X441495Y235298D01*
X441230Y235939D01*
X440685Y236649D01*
X439974Y237194D01*
X439147Y237537D01*
X438260Y237654D01*
X437372Y237537D01*
X437235Y237480D01*
X436999Y237923D01*
X437045Y237955D01*
X437366Y238434D01*
X437379Y238500D01*
X434621D01*
X434634Y238434D01*
X434955Y237955D01*
X435434Y237634D01*
X436000Y237522D01*
X436203Y237562D01*
X436415Y237094D01*
X435835Y236649D01*
X435654Y236468D01*
X435109Y235758D01*
X434766Y234931D01*
X434649Y234043D01*
Y232929D01*
X433375D01*
X433317Y233000D01*
X429683D01*
X429625Y232929D01*
X428375D01*
X428317Y233000D01*
X424683D01*
X424625Y232929D01*
X423375D01*
X423317Y233000D01*
X419683D01*
X419625Y232929D01*
X418375D01*
X418317Y233000D01*
X414683D01*
X414625Y232929D01*
X413375D01*
X413317Y233000D01*
X409683D01*
X409625Y232929D01*
X407921D01*
X407434Y233416D01*
X407483Y233913D01*
X407545Y233955D01*
X407866Y234434D01*
X407879Y234500D01*
X406500D01*
Y235000D01*
X406000D01*
Y236379D01*
X405934Y236366D01*
X405455Y236045D01*
X405413Y235983D01*
X404916Y235934D01*
X403425Y237425D01*
X402715Y237970D01*
X401888Y238313D01*
X401297Y238390D01*
X401182Y238529D01*
X401025Y238910D01*
X401025Y238919D01*
X401312Y239612D01*
X401429Y240500D01*
Y244811D01*
X401312Y245699D01*
X400970Y246526D01*
X400425Y247236D01*
X400370Y247291D01*
Y248147D01*
X402467D01*
Y258853D01*
X393730D01*
Y256427D01*
X393075Y255925D01*
X390330Y253180D01*
X389868Y253372D01*
Y258853D01*
X382497D01*
X380425Y260925D01*
X379715Y261470D01*
X378888Y261812D01*
X378000Y261929D01*
X375951D01*
X375781Y262429D01*
X376054Y262639D01*
X376628Y263387D01*
X376989Y264258D01*
X377112Y265193D01*
Y269262D01*
X378925Y271075D01*
X378925Y271075D01*
X390123Y282273D01*
X390123Y282273D01*
X393595Y285745D01*
X394057Y285554D01*
Y277635D01*
X397645D01*
X398075Y277075D01*
X399571Y275580D01*
Y274000D01*
X399688Y273112D01*
X400030Y272285D01*
X400575Y271575D01*
X402575Y269575D01*
X403285Y269030D01*
X403521Y268932D01*
Y267805D01*
X408159D01*
X408351Y267725D01*
X409500Y267574D01*
X410649Y267725D01*
X410841Y267805D01*
X414015D01*
Y259435D01*
X412776Y258195D01*
X403521D01*
Y249852D01*
X409201D01*
X409488Y249814D01*
X414500D01*
X414787Y249852D01*
X415408D01*
Y249934D01*
X415583Y249957D01*
X416593Y250375D01*
X417460Y251040D01*
X418613Y252193D01*
X419074Y251947D01*
X419053Y251842D01*
Y250500D01*
X419239Y249564D01*
X419770Y248770D01*
X420564Y248239D01*
X421500Y248053D01*
X446347D01*
X446538Y248015D01*
X447474Y248201D01*
X447936Y248393D01*
X448730Y248923D01*
X449061Y249418D01*
X449261Y249717D01*
X449447Y250653D01*
Y274500D01*
X449261Y275436D01*
X448730Y276230D01*
X447936Y276761D01*
X447000Y276947D01*
X436514D01*
X433447Y280014D01*
Y282099D01*
X433947Y282224D01*
X434316Y281534D01*
X435316Y280316D01*
X436534Y279316D01*
X437924Y278573D01*
X439432Y278116D01*
X441000Y277961D01*
X442568Y278116D01*
X444076Y278573D01*
X445466Y279316D01*
X446684Y280316D01*
X447684Y281534D01*
X448427Y282924D01*
X448884Y284432D01*
X449039Y286000D01*
X448884Y287568D01*
X448427Y289076D01*
X447684Y290466D01*
X446684Y291684D01*
X445466Y292684D01*
X444076Y293427D01*
X442568Y293884D01*
X441000Y294039D01*
X439432Y293884D01*
X437924Y293427D01*
X436534Y292684D01*
X435316Y291684D01*
X434316Y290466D01*
X433947Y289776D01*
X433447Y289901D01*
Y293500D01*
X433261Y294436D01*
X432730Y295230D01*
X431936Y295761D01*
X431000Y295947D01*
X429507D01*
X429388Y295923D01*
X429267Y295935D01*
X428923Y295831D01*
X428879Y295822D01*
X428000Y295938D01*
X427121Y295822D01*
X427077Y295831D01*
X426733Y295935D01*
X426612Y295923D01*
X426493Y295947D01*
X425500D01*
X424564Y295761D01*
X423770Y295230D01*
X423270Y294730D01*
X422739Y293936D01*
X422661Y293543D01*
X422141Y293492D01*
X422045Y293724D01*
X421339Y294643D01*
X420420Y295348D01*
X419350Y295792D01*
X418201Y295943D01*
X417053Y295792D01*
X415982Y295348D01*
X415063Y294643D01*
X414358Y293724D01*
X414120Y293150D01*
X413579D01*
X413343Y293719D01*
X412638Y294638D01*
X411719Y295343D01*
X410649Y295787D01*
X409500Y295938D01*
X408351Y295787D01*
X407281Y295343D01*
X406443Y294701D01*
X405943Y294837D01*
Y297500D01*
X453500D01*
Y185000D01*
D02*
G37*
G36*
X431000Y279000D02*
X435500Y274500D01*
X447000D01*
Y250653D01*
X446538Y250462D01*
X446500Y250500D01*
X421500D01*
Y251842D01*
X421669Y252272D01*
X422000Y252272D01*
X433374D01*
Y263000D01*
Y273728D01*
X422000D01*
X421669Y273728D01*
X421500Y274158D01*
Y275500D01*
X425000Y279000D01*
Y293000D01*
X425500Y293500D01*
X426493D01*
X426645Y293000D01*
X426558Y292942D01*
X426116Y292280D01*
X425961Y291500D01*
Y288000D01*
X428000D01*
X430039D01*
Y291500D01*
X429884Y292280D01*
X429442Y292942D01*
X429355Y293000D01*
X429507Y293500D01*
X431000D01*
Y279000D01*
D02*
G37*
G36*
X386949Y288799D02*
X385273Y287123D01*
X385273Y287123D01*
X381327Y283176D01*
X380865Y283368D01*
Y290039D01*
X383651D01*
Y291264D01*
X384051Y291785D01*
X384394Y292612D01*
X384511Y293500D01*
X384394Y294388D01*
X384051Y295215D01*
X383651Y295736D01*
Y296961D01*
X381581D01*
Y293500D01*
X380581D01*
Y296961D01*
X378511D01*
Y296929D01*
X373147D01*
X373091Y297000D01*
X373332Y297500D01*
X386949D01*
Y288799D01*
D02*
G37*
G36*
X367543Y297043D02*
X367543D01*
Y295750D01*
X367132Y295215D01*
X366790Y294388D01*
X366673Y293500D01*
X366790Y292612D01*
X367132Y291785D01*
X367543Y291250D01*
Y289957D01*
X369602D01*
Y293500D01*
X370602D01*
Y289957D01*
X370947D01*
Y287296D01*
X368075Y284425D01*
X367530Y283715D01*
X367188Y282888D01*
X367154Y282630D01*
X366653Y282662D01*
Y284500D01*
X364094D01*
Y285000D01*
X363595D01*
Y288543D01*
X362857D01*
Y297500D01*
X367439D01*
X367543Y297043D01*
D02*
G37*
%LPC*%
G36*
X260500Y295447D02*
X257746D01*
X257500Y295398D01*
X257254Y295447D01*
X254500D01*
X253564Y295261D01*
X252770Y294730D01*
X252239Y293936D01*
X252053Y293000D01*
Y258000D01*
X252239Y257064D01*
X252770Y256270D01*
X253564Y255739D01*
X254500Y255553D01*
X262500D01*
X262634Y255580D01*
X262770Y255568D01*
X263099Y255672D01*
X263436Y255739D01*
X263550Y255815D01*
X263680Y255856D01*
X263944Y256078D01*
X264230Y256270D01*
X264306Y256383D01*
X264411Y256471D01*
X266411Y258971D01*
X266569Y259277D01*
X266761Y259564D01*
X266787Y259698D01*
X266850Y259819D01*
X266880Y260162D01*
X266947Y260500D01*
Y261000D01*
Y278500D01*
X266761Y279436D01*
X266230Y280230D01*
X262947Y283514D01*
Y293000D01*
X262761Y293936D01*
X262230Y294730D01*
X261436Y295261D01*
X260500Y295447D01*
D02*
G37*
G36*
X234500D02*
X231746D01*
X231500Y295398D01*
X231254Y295447D01*
X228500D01*
X227564Y295261D01*
X226770Y294730D01*
X226239Y293936D01*
X226053Y293000D01*
Y282610D01*
X223164Y280083D01*
X223139Y280050D01*
X223104Y280028D01*
X222849Y279673D01*
X222582Y279326D01*
X222571Y279286D01*
X222547Y279252D01*
X222447Y278826D01*
X222334Y278404D01*
X222339Y278363D01*
X222330Y278322D01*
X222313Y277823D01*
X222320Y277782D01*
X222312Y277741D01*
X222397Y277312D01*
X222468Y276881D01*
X222490Y276845D01*
X222498Y276805D01*
X222553Y276723D01*
Y259500D01*
X222739Y258564D01*
X223270Y257770D01*
X224270Y256770D01*
X225064Y256239D01*
X226000Y256053D01*
X233000D01*
X233936Y256239D01*
X234730Y256770D01*
X234977Y257139D01*
X235132D01*
Y257371D01*
X235261Y257564D01*
X235447Y258500D01*
Y259150D01*
X235397Y259402D01*
X235393Y259659D01*
X235305Y259866D01*
X235261Y260086D01*
X235132Y260278D01*
Y265722D01*
X235261Y265914D01*
X235305Y266134D01*
X235393Y266341D01*
X235397Y266598D01*
X235447Y266850D01*
Y276684D01*
X236458Y278032D01*
X236590Y278309D01*
X236761Y278564D01*
X236795Y278735D01*
X236871Y278893D01*
X236887Y279199D01*
X236947Y279500D01*
Y293000D01*
X236761Y293936D01*
X236230Y294730D01*
X235436Y295261D01*
X234500Y295447D01*
D02*
G37*
G36*
X289000Y295438D02*
X287851Y295287D01*
X286781Y294843D01*
X285862Y294138D01*
X285157Y293219D01*
X284758Y292256D01*
X284661Y292234D01*
X284339D01*
X284242Y292256D01*
X283843Y293219D01*
X283138Y294138D01*
X282219Y294843D01*
X281149Y295287D01*
X280000Y295438D01*
X278851Y295287D01*
X277781Y294843D01*
X276862Y294138D01*
X276157Y293219D01*
X276000Y292841D01*
X275500D01*
X275343Y293219D01*
X274638Y294138D01*
X273719Y294843D01*
X272649Y295287D01*
X271500Y295438D01*
X270351Y295287D01*
X269281Y294843D01*
X268362Y294138D01*
X267657Y293219D01*
X267213Y292149D01*
X267062Y291000D01*
Y283000D01*
X267213Y281851D01*
X267657Y280781D01*
X268071Y280241D01*
Y244920D01*
X264580Y241429D01*
X247500D01*
X246612Y241313D01*
X245785Y240970D01*
X245075Y240425D01*
X243575Y238925D01*
X243030Y238215D01*
X242688Y237388D01*
X242571Y236500D01*
Y235451D01*
X236112D01*
Y227451D01*
X233045D01*
Y224753D01*
X232937Y224708D01*
X232289Y224211D01*
X229017Y220939D01*
X228555Y221130D01*
Y221500D01*
X226783D01*
Y222000D01*
X226284D01*
Y225051D01*
X225012D01*
Y222057D01*
X224549Y221868D01*
X224254Y222167D01*
X223611Y222669D01*
X223557Y222691D01*
Y226140D01*
X213442D01*
Y217140D01*
X213242D01*
Y204966D01*
X213242Y204860D01*
X213038Y204444D01*
X212432Y204384D01*
X210924Y203927D01*
X209534Y203184D01*
X208316Y202184D01*
X207316Y200966D01*
X206573Y199576D01*
X206116Y198068D01*
X205961Y196500D01*
X206116Y194932D01*
X206573Y193424D01*
X207316Y192034D01*
X208316Y190816D01*
X209534Y189816D01*
X210924Y189073D01*
X212432Y188616D01*
X214000Y188461D01*
X215568Y188616D01*
X217076Y189073D01*
X218466Y189816D01*
X219684Y190816D01*
X220684Y192034D01*
X221427Y193424D01*
X221884Y194932D01*
X222039Y196500D01*
X221884Y198068D01*
X221427Y199576D01*
X220684Y200966D01*
X219684Y202184D01*
X218466Y203184D01*
X217076Y203927D01*
X215649Y204360D01*
X215723Y204860D01*
X223357D01*
Y207519D01*
X223857Y207726D01*
X229246Y202336D01*
X229894Y201839D01*
X230648Y201527D01*
X231457Y201420D01*
X231457Y201420D01*
X235651D01*
Y199490D01*
X235989D01*
X236344Y199140D01*
Y186860D01*
X246459D01*
Y195651D01*
X250427D01*
X250873Y195205D01*
Y193000D01*
X250980Y192191D01*
X251292Y191437D01*
X251343Y191371D01*
Y189260D01*
X253500D01*
Y193000D01*
X254000D01*
Y193500D01*
X256658D01*
Y196500D01*
X257127D01*
X257020Y197309D01*
X256708Y198063D01*
X256211Y198711D01*
X255932Y198990D01*
X256139Y199490D01*
X259349D01*
X259639Y199110D01*
Y198449D01*
X271361D01*
Y198530D01*
X280861D01*
Y208470D01*
X277380D01*
X276425Y209425D01*
X275715Y209970D01*
X274888Y210313D01*
X274000Y210429D01*
X267133D01*
X266875Y210929D01*
X266957Y211128D01*
X267064Y211937D01*
X267064Y211937D01*
Y218500D01*
X267126Y218571D01*
X270000D01*
X270888Y218688D01*
X271715Y219030D01*
X272425Y219575D01*
X291425Y238575D01*
X291970Y239285D01*
X292313Y240112D01*
X292429Y241000D01*
Y280241D01*
X292843Y280781D01*
X293287Y281851D01*
X293438Y283000D01*
Y291000D01*
X293287Y292149D01*
X292843Y293219D01*
X292138Y294138D01*
X291219Y294843D01*
X290149Y295287D01*
X289000Y295438D01*
D02*
G37*
G36*
X244750Y292440D02*
Y287000D01*
X246289D01*
Y290500D01*
X246134Y291280D01*
X245692Y291942D01*
X245030Y292384D01*
X244750Y292440D01*
D02*
G37*
G36*
X243750D02*
X243470Y292384D01*
X242808Y291942D01*
X242366Y291280D01*
X242211Y290500D01*
Y287000D01*
X243750D01*
Y292440D01*
D02*
G37*
G36*
X246289Y286000D02*
X244750D01*
Y280560D01*
X245030Y280616D01*
X245692Y281058D01*
X246134Y281720D01*
X246289Y282500D01*
Y286000D01*
D02*
G37*
G36*
X243750D02*
X242211D01*
Y282500D01*
X242366Y281720D01*
X242808Y281058D01*
X243470Y280616D01*
X243750Y280560D01*
Y286000D01*
D02*
G37*
G36*
X214000Y294039D02*
X212432Y293884D01*
X210924Y293427D01*
X209534Y292684D01*
X208316Y291684D01*
X207316Y290466D01*
X206573Y289076D01*
X206116Y287568D01*
X205961Y286000D01*
X206116Y284432D01*
X206573Y282924D01*
X207316Y281534D01*
X208316Y280316D01*
X209534Y279316D01*
X210924Y278573D01*
X212432Y278116D01*
X214000Y277961D01*
X215568Y278116D01*
X217076Y278573D01*
X218466Y279316D01*
X219684Y280316D01*
X220684Y281534D01*
X221427Y282924D01*
X221884Y284432D01*
X222039Y286000D01*
X221884Y287568D01*
X221427Y289076D01*
X220684Y290466D01*
X219684Y291684D01*
X218466Y292684D01*
X217076Y293427D01*
X215568Y293884D01*
X214000Y294039D01*
D02*
G37*
G36*
X244256Y277740D02*
X242098D01*
Y274500D01*
X244256D01*
Y277740D01*
D02*
G37*
G36*
X241098D02*
X238941D01*
Y274500D01*
X241098D01*
Y277740D01*
D02*
G37*
G36*
X250157D02*
X248000D01*
Y274500D01*
X250157D01*
Y277740D01*
D02*
G37*
G36*
X247000D02*
X244843D01*
Y274500D01*
X247000D01*
Y277740D01*
D02*
G37*
G36*
X250157Y273500D02*
X248000D01*
Y270260D01*
X250157D01*
Y273500D01*
D02*
G37*
G36*
X247000D02*
X244843D01*
Y270260D01*
X247000D01*
Y273500D01*
D02*
G37*
G36*
X244256Y273500D02*
X242098D01*
Y270260D01*
X244256D01*
Y273500D01*
D02*
G37*
G36*
X241098D02*
X238941D01*
Y270260D01*
X241098D01*
Y273500D01*
D02*
G37*
G36*
X320500Y276429D02*
X318000D01*
X317112Y276312D01*
X316285Y275970D01*
X315575Y275425D01*
X314575Y274425D01*
X314030Y273715D01*
X313687Y272888D01*
X313595Y272185D01*
X313511Y271982D01*
X313388Y271047D01*
Y269107D01*
X313298Y268890D01*
X313167Y267898D01*
X313298Y266906D01*
X313388Y266688D01*
Y264748D01*
X313511Y263813D01*
X313872Y262942D01*
X314446Y262194D01*
X315194Y261620D01*
X316065Y261259D01*
X317000Y261136D01*
X317935Y261259D01*
X318806Y261620D01*
X319500Y262153D01*
X320194Y261620D01*
X321065Y261259D01*
X322000Y261136D01*
X322935Y261259D01*
X323806Y261620D01*
X324554Y262194D01*
X325128Y262942D01*
X325489Y263813D01*
X325508Y263956D01*
X326028Y264077D01*
X326149Y263896D01*
X326500Y263662D01*
Y267898D01*
Y272134D01*
X326149Y271899D01*
X326028Y271718D01*
X325508Y271840D01*
X325489Y271982D01*
X325128Y272853D01*
X325110Y272877D01*
X324970Y273215D01*
X324425Y273925D01*
X322925Y275425D01*
X322215Y275970D01*
X321388Y276312D01*
X320500Y276429D01*
D02*
G37*
G36*
X249651Y266461D02*
X247581D01*
Y263500D01*
X249651D01*
Y266461D01*
D02*
G37*
G36*
X243570D02*
X241500D01*
Y263500D01*
X243570D01*
Y266461D01*
D02*
G37*
G36*
X240500D02*
X238430D01*
Y263500D01*
X240500D01*
Y266461D01*
D02*
G37*
G36*
X246581D02*
X244511D01*
Y263500D01*
X246581D01*
Y266461D01*
D02*
G37*
G36*
X249651Y262500D02*
X247581D01*
Y259539D01*
X249651D01*
Y262500D01*
D02*
G37*
G36*
X246581D02*
X244511D01*
Y259539D01*
X246581D01*
Y262500D01*
D02*
G37*
G36*
X243570D02*
X241500D01*
Y259539D01*
X243570D01*
Y262500D01*
D02*
G37*
G36*
X240500D02*
X238430D01*
Y259539D01*
X240500D01*
Y262500D01*
D02*
G37*
G36*
X451419Y240379D02*
Y239500D01*
X452298D01*
X452285Y239566D01*
X451964Y240045D01*
X451484Y240366D01*
X451419Y240379D01*
D02*
G37*
G36*
X450419D02*
X450353Y240366D01*
X449873Y240045D01*
X449553Y239566D01*
X449540Y239500D01*
X450419D01*
Y240379D01*
D02*
G37*
G36*
X446419D02*
Y239500D01*
X447298D01*
X447285Y239566D01*
X446964Y240045D01*
X446485Y240366D01*
X446419Y240379D01*
D02*
G37*
G36*
X445419D02*
X445353Y240366D01*
X444873Y240045D01*
X444553Y239566D01*
X444540Y239500D01*
X445419D01*
Y240379D01*
D02*
G37*
G36*
X441419D02*
Y239500D01*
X442298D01*
X442285Y239566D01*
X441964Y240045D01*
X441484Y240366D01*
X441419Y240379D01*
D02*
G37*
G36*
X440419D02*
X440353Y240366D01*
X439873Y240045D01*
X439553Y239566D01*
X439540Y239500D01*
X440419D01*
Y240379D01*
D02*
G37*
G36*
X436500D02*
Y239500D01*
X437379D01*
X437366Y239566D01*
X437045Y240045D01*
X436566Y240366D01*
X436500Y240379D01*
D02*
G37*
G36*
X435500D02*
X435434Y240366D01*
X434955Y240045D01*
X434634Y239566D01*
X434621Y239500D01*
X435500D01*
Y240379D01*
D02*
G37*
G36*
X452298Y238500D02*
X451419D01*
Y237621D01*
X451484Y237634D01*
X451964Y237955D01*
X452285Y238434D01*
X452298Y238500D01*
D02*
G37*
G36*
X440419D02*
X439540D01*
X439553Y238434D01*
X439873Y237955D01*
X440353Y237634D01*
X440419Y237621D01*
Y238500D01*
D02*
G37*
G36*
X407000Y236379D02*
Y235500D01*
X407879D01*
X407866Y235566D01*
X407545Y236045D01*
X407066Y236366D01*
X407000Y236379D01*
D02*
G37*
G36*
X451419Y235879D02*
Y235000D01*
X452298D01*
X452285Y235066D01*
X451964Y235545D01*
X451484Y235866D01*
X451419Y235879D01*
D02*
G37*
G36*
X432000Y234879D02*
Y234000D01*
X432879D01*
X432866Y234066D01*
X432545Y234545D01*
X432066Y234866D01*
X432000Y234879D01*
D02*
G37*
G36*
X431000D02*
X430934Y234866D01*
X430455Y234545D01*
X430134Y234066D01*
X430121Y234000D01*
X431000D01*
Y234879D01*
D02*
G37*
G36*
X427000D02*
Y234000D01*
X427879D01*
X427866Y234066D01*
X427545Y234545D01*
X427066Y234866D01*
X427000Y234879D01*
D02*
G37*
G36*
X426000D02*
X425934Y234866D01*
X425455Y234545D01*
X425134Y234066D01*
X425121Y234000D01*
X426000D01*
Y234879D01*
D02*
G37*
G36*
X422000D02*
Y234000D01*
X422879D01*
X422866Y234066D01*
X422545Y234545D01*
X422066Y234866D01*
X422000Y234879D01*
D02*
G37*
G36*
X421000D02*
X420934Y234866D01*
X420455Y234545D01*
X420134Y234066D01*
X420121Y234000D01*
X421000D01*
Y234879D01*
D02*
G37*
G36*
X417000D02*
Y234000D01*
X417879D01*
X417866Y234066D01*
X417545Y234545D01*
X417066Y234866D01*
X417000Y234879D01*
D02*
G37*
G36*
X416000D02*
X415934Y234866D01*
X415455Y234545D01*
X415134Y234066D01*
X415121Y234000D01*
X416000D01*
Y234879D01*
D02*
G37*
G36*
X412000D02*
Y234000D01*
X412879D01*
X412866Y234066D01*
X412545Y234545D01*
X412066Y234866D01*
X412000Y234879D01*
D02*
G37*
G36*
X411000D02*
X410934Y234866D01*
X410455Y234545D01*
X410134Y234066D01*
X410121Y234000D01*
X411000D01*
Y234879D01*
D02*
G37*
G36*
X452298Y234000D02*
X451419D01*
Y233121D01*
X451484Y233134D01*
X451964Y233455D01*
X452285Y233934D01*
X452298Y234000D01*
D02*
G37*
G36*
X451419Y230879D02*
Y230000D01*
X452298D01*
X452285Y230066D01*
X451964Y230545D01*
X451484Y230866D01*
X451419Y230879D01*
D02*
G37*
G36*
X452298Y229000D02*
X451419D01*
Y228121D01*
X451484Y228134D01*
X451964Y228455D01*
X452285Y228934D01*
X452298Y229000D01*
D02*
G37*
G36*
X451419Y225879D02*
Y225000D01*
X452298D01*
X452285Y225066D01*
X451964Y225545D01*
X451484Y225866D01*
X451419Y225879D01*
D02*
G37*
G36*
X452298Y224000D02*
X451419D01*
Y223121D01*
X451484Y223134D01*
X451964Y223455D01*
X452285Y223934D01*
X452298Y224000D01*
D02*
G37*
G36*
X228555Y225051D02*
X227284D01*
Y222500D01*
X228555D01*
Y225051D01*
D02*
G37*
G36*
X432798Y221500D02*
X431919D01*
Y220621D01*
X431985Y220634D01*
X432464Y220955D01*
X432785Y221434D01*
X432798Y221500D01*
D02*
G37*
G36*
X430919D02*
X430040D01*
X430053Y221434D01*
X430373Y220955D01*
X430853Y220634D01*
X430919Y220621D01*
Y221500D01*
D02*
G37*
G36*
X427798D02*
X426919D01*
Y220621D01*
X426985Y220634D01*
X427464Y220955D01*
X427785Y221434D01*
X427798Y221500D01*
D02*
G37*
G36*
X425919D02*
X425040D01*
X425053Y221434D01*
X425373Y220955D01*
X425853Y220634D01*
X425919Y220621D01*
Y221500D01*
D02*
G37*
G36*
X422798D02*
X421919D01*
Y220621D01*
X421984Y220634D01*
X422464Y220955D01*
X422785Y221434D01*
X422798Y221500D01*
D02*
G37*
G36*
X420919D02*
X420040D01*
X420053Y221434D01*
X420373Y220955D01*
X420853Y220634D01*
X420919Y220621D01*
Y221500D01*
D02*
G37*
G36*
X417798D02*
X416919D01*
Y220621D01*
X416985Y220634D01*
X417464Y220955D01*
X417785Y221434D01*
X417798Y221500D01*
D02*
G37*
G36*
X415919D02*
X415040D01*
X415053Y221434D01*
X415373Y220955D01*
X415853Y220634D01*
X415919Y220621D01*
Y221500D01*
D02*
G37*
G36*
X412798D02*
X411919D01*
Y220621D01*
X411984Y220634D01*
X412464Y220955D01*
X412785Y221434D01*
X412798Y221500D01*
D02*
G37*
G36*
X410919D02*
X410040D01*
X410053Y221434D01*
X410373Y220955D01*
X410853Y220634D01*
X410919Y220621D01*
Y221500D01*
D02*
G37*
G36*
X407798D02*
X406919D01*
Y220621D01*
X406985Y220634D01*
X407464Y220955D01*
X407785Y221434D01*
X407798Y221500D01*
D02*
G37*
G36*
X405919D02*
X405040D01*
X405053Y221434D01*
X405373Y220955D01*
X405853Y220634D01*
X405919Y220621D01*
Y221500D01*
D02*
G37*
G36*
X208559Y223740D02*
X206402D01*
Y220500D01*
X208559D01*
Y223740D01*
D02*
G37*
G36*
X205402D02*
X203244D01*
Y220500D01*
X205402D01*
Y223740D01*
D02*
G37*
G36*
X451419Y220879D02*
Y220000D01*
X452298D01*
X452285Y220066D01*
X451964Y220545D01*
X451484Y220866D01*
X451419Y220879D01*
D02*
G37*
G36*
X450419D02*
X450353Y220866D01*
X449873Y220545D01*
X449553Y220066D01*
X449540Y220000D01*
X450419D01*
Y220879D01*
D02*
G37*
G36*
X452298Y219000D02*
X451419D01*
Y218121D01*
X451484Y218134D01*
X451964Y218455D01*
X452285Y218934D01*
X452298Y219000D01*
D02*
G37*
G36*
X450419D02*
X449540D01*
X449553Y218934D01*
X449873Y218455D01*
X450353Y218134D01*
X450419Y218121D01*
Y219000D01*
D02*
G37*
G36*
X447298D02*
X446419D01*
Y218121D01*
X446485Y218134D01*
X446964Y218455D01*
X447285Y218934D01*
X447298Y219000D01*
D02*
G37*
G36*
X445419D02*
X444540D01*
X444553Y218934D01*
X444873Y218455D01*
X445353Y218134D01*
X445419Y218121D01*
Y219000D01*
D02*
G37*
G36*
X442298D02*
X441419D01*
Y218121D01*
X441484Y218134D01*
X441964Y218455D01*
X442285Y218934D01*
X442298Y219000D01*
D02*
G37*
G36*
X440419D02*
X439540D01*
X439553Y218934D01*
X439873Y218455D01*
X440353Y218134D01*
X440419Y218121D01*
Y219000D01*
D02*
G37*
G36*
X437298D02*
X436419D01*
Y218121D01*
X436484Y218134D01*
X436964Y218455D01*
X437285Y218934D01*
X437298Y219000D01*
D02*
G37*
G36*
X435419D02*
X434540D01*
X434553Y218934D01*
X434873Y218455D01*
X435353Y218134D01*
X435419Y218121D01*
Y219000D01*
D02*
G37*
G36*
X208559Y219500D02*
X206402D01*
Y216260D01*
X208559D01*
Y219500D01*
D02*
G37*
G36*
X205402D02*
X203244D01*
Y216260D01*
X205402D01*
Y217140D01*
Y219500D01*
D02*
G37*
G36*
X208358Y214740D02*
X206201D01*
Y211500D01*
X208358D01*
Y214740D01*
D02*
G37*
G36*
X205201D02*
X203043D01*
Y211500D01*
X205201D01*
Y214740D01*
D02*
G37*
G36*
X208358Y210500D02*
X206201D01*
Y207260D01*
X208358D01*
Y210500D01*
D02*
G37*
G36*
X205201D02*
X203043D01*
Y207260D01*
X205201D01*
Y210500D01*
D02*
G37*
G36*
X274500Y195232D02*
X271539D01*
Y193641D01*
X268961D01*
Y195151D01*
X266000D01*
Y192581D01*
X265500D01*
D01*
X266000D01*
Y190011D01*
X268961D01*
Y191602D01*
X271539D01*
Y190093D01*
X274500D01*
Y192663D01*
Y195232D01*
D02*
G37*
G36*
X278461D02*
X275500D01*
Y193163D01*
X278461D01*
Y195232D01*
D02*
G37*
G36*
X265000Y195151D02*
X262039D01*
Y193081D01*
X265000D01*
Y195151D01*
D02*
G37*
G36*
X278461Y192163D02*
X275500D01*
Y190093D01*
X277248Y190093D01*
X277248Y190093D01*
X278461D01*
Y192163D01*
D02*
G37*
G36*
X265000Y192081D02*
X262039D01*
Y190011D01*
X265000D01*
Y192081D01*
D02*
G37*
G36*
X256658Y192500D02*
X254500D01*
Y189260D01*
X256658D01*
Y191371D01*
Y192500D01*
D02*
G37*
G36*
X441000Y204539D02*
X439432Y204384D01*
X437924Y203927D01*
X436534Y203184D01*
X435316Y202184D01*
X434316Y200966D01*
X433573Y199576D01*
X433116Y198068D01*
X432961Y196500D01*
X433116Y194932D01*
X433573Y193424D01*
X434316Y192034D01*
X435316Y190816D01*
X436534Y189816D01*
X437924Y189073D01*
X439432Y188616D01*
X441000Y188461D01*
X442568Y188616D01*
X444076Y189073D01*
X445466Y189816D01*
X446684Y190816D01*
X447684Y192034D01*
X448427Y193424D01*
X448884Y194932D01*
X449039Y196500D01*
X448884Y198068D01*
X448427Y199576D01*
X447684Y200966D01*
X446684Y202184D01*
X445466Y203184D01*
X444076Y203927D01*
X442568Y204384D01*
X441000Y204539D01*
D02*
G37*
%LPD*%
G36*
X260500Y282500D02*
X264500Y278500D01*
Y261000D01*
Y260500D01*
X262500Y258000D01*
X254500D01*
Y293000D01*
X257254D01*
X257303Y292500D01*
X257219Y292483D01*
X256720Y292384D01*
X256058Y291942D01*
X255616Y291280D01*
X255461Y290500D01*
Y287000D01*
X257500D01*
X259539D01*
Y290500D01*
X259384Y291280D01*
X258942Y291942D01*
X258280Y292384D01*
X257781Y292483D01*
X257697Y292500D01*
X257746Y293000D01*
X260500D01*
Y282500D01*
D02*
G37*
%LPC*%
G36*
X259539Y286000D02*
X258000D01*
Y280560D01*
X258280Y280616D01*
X258942Y281058D01*
X259384Y281720D01*
X259539Y282500D01*
Y286000D01*
D02*
G37*
G36*
X257000D02*
X255461D01*
Y282500D01*
X255616Y281720D01*
X256058Y281058D01*
X256720Y280616D01*
X257000Y280560D01*
Y286000D01*
D02*
G37*
G36*
X262756Y277740D02*
X260598D01*
Y274500D01*
X262756D01*
Y277740D01*
D02*
G37*
G36*
X259598D02*
X257441D01*
Y274500D01*
X259598D01*
Y277740D01*
D02*
G37*
G36*
X262756Y273500D02*
X260598D01*
Y270260D01*
X262756D01*
Y273500D01*
D02*
G37*
G36*
X259598D02*
X257441D01*
Y270260D01*
X259598D01*
Y273500D01*
D02*
G37*
G36*
X260489Y266461D02*
X258419D01*
Y263500D01*
X260489D01*
Y266461D01*
D02*
G37*
G36*
X257419D02*
X255349D01*
Y263500D01*
X257419D01*
Y266461D01*
D02*
G37*
G36*
X260489Y262500D02*
X258419D01*
Y259539D01*
X260489D01*
Y262500D01*
D02*
G37*
G36*
X257419D02*
X255349D01*
Y259539D01*
X257419D01*
Y262500D01*
D02*
G37*
%LPD*%
G36*
X234500Y279500D02*
X233000Y277500D01*
Y266850D01*
X232732Y266461D01*
X232500Y266461D01*
X230662D01*
Y263000D01*
Y259539D01*
X232500D01*
X232732Y259539D01*
X233000Y259150D01*
Y258500D01*
X226000D01*
X225000Y259500D01*
Y277500D01*
X224759Y277741D01*
X224775Y278241D01*
X228500Y281500D01*
Y293000D01*
X231254D01*
X231303Y292500D01*
X231219Y292483D01*
X230720Y292384D01*
X230058Y291942D01*
X229616Y291280D01*
X229461Y290500D01*
Y287000D01*
X231500D01*
X233539D01*
Y290500D01*
X233384Y291280D01*
X232942Y291942D01*
X232280Y292384D01*
X231781Y292483D01*
X231697Y292500D01*
X231746Y293000D01*
X234500D01*
Y279500D01*
D02*
G37*
%LPC*%
G36*
X233539Y286000D02*
X232000D01*
Y280560D01*
X232280Y280616D01*
X232942Y281058D01*
X233384Y281720D01*
X233539Y282500D01*
Y286000D01*
D02*
G37*
G36*
X231000D02*
X229461D01*
Y282500D01*
X229616Y281720D01*
X230058Y281058D01*
X230720Y280616D01*
X231000Y280560D01*
Y286000D01*
D02*
G37*
G36*
X231658Y277740D02*
X229500D01*
Y274500D01*
X231658D01*
Y277740D01*
D02*
G37*
G36*
X228500D02*
X226343D01*
Y274500D01*
X228500D01*
Y277740D01*
D02*
G37*
G36*
X231658Y273500D02*
X229500D01*
Y270260D01*
X231658D01*
Y273500D01*
D02*
G37*
G36*
X228500D02*
X226343D01*
Y270260D01*
X228500D01*
Y273500D01*
D02*
G37*
G36*
X229662Y266461D02*
X227593D01*
Y263500D01*
X229662D01*
Y266461D01*
D02*
G37*
G36*
Y262500D02*
X227593D01*
Y259539D01*
X229662D01*
Y262500D01*
D02*
G37*
G36*
X430039Y287000D02*
X428500D01*
Y281560D01*
X428780Y281616D01*
X429442Y282058D01*
X429884Y282720D01*
X430039Y283500D01*
Y287000D01*
D02*
G37*
G36*
X427500D02*
X425961D01*
Y283500D01*
X426116Y282720D01*
X426558Y282058D01*
X427220Y281616D01*
X427500Y281560D01*
Y287000D01*
D02*
G37*
G36*
X434374Y273728D02*
Y263500D01*
X446079D01*
Y273728D01*
X434374D01*
D02*
G37*
G36*
X446079Y262500D02*
X434374D01*
Y252272D01*
X446079D01*
Y262500D01*
D02*
G37*
G36*
X366653Y288543D02*
X364595D01*
Y285500D01*
X366653D01*
Y288543D01*
D02*
G37*
%LPD*%
D15*
X244250Y286500D02*
D03*
X349557Y287500D02*
D03*
X428000D02*
D03*
X257500Y286500D02*
D03*
X231500D02*
D03*
X289000Y287000D02*
D03*
X280000D02*
D03*
X271500D02*
D03*
X342871Y287500D02*
D03*
X336186D02*
D03*
X329500D02*
D03*
X409500D02*
D03*
X418201Y287505D02*
D03*
D16*
X352000Y267898D02*
D03*
X347000D02*
D03*
X342000D02*
D03*
X337000D02*
D03*
X332000D02*
D03*
X327000D02*
D03*
X322000D02*
D03*
X317000D02*
D03*
X352000Y249000D02*
D03*
X347000D02*
D03*
X342000D02*
D03*
X337000D02*
D03*
X332000D02*
D03*
X327000D02*
D03*
X322000D02*
D03*
X317000D02*
D03*
D17*
X370102Y293500D02*
D03*
X357898D02*
D03*
X364094Y285000D02*
D03*
X375905D02*
D03*
X397811Y226000D02*
D03*
X386000D02*
D03*
X397811Y245000D02*
D03*
X386000D02*
D03*
D18*
X409465Y271976D02*
D03*
X409465Y254024D02*
D03*
D19*
X433874Y263000D02*
D03*
D20*
X362823Y276500D02*
D03*
X370500D02*
D03*
D21*
X373500Y267752D02*
D03*
X368500D02*
D03*
X363500D02*
D03*
X358500D02*
D03*
X373500Y249248D02*
D03*
X368500D02*
D03*
X363500D02*
D03*
X358500D02*
D03*
D22*
X438260Y224776D02*
D03*
X442000D02*
D03*
X445740D02*
D03*
Y234224D02*
D03*
X438260D02*
D03*
D23*
X391919Y293500D02*
D03*
X381081D02*
D03*
X257919Y263000D02*
D03*
X247081D02*
D03*
X241000D02*
D03*
X230163D02*
D03*
X386081Y235000D02*
D03*
X396919D02*
D03*
D24*
X241402Y193000D02*
D03*
X254000D02*
D03*
X218500Y220000D02*
D03*
X205902D02*
D03*
X218299Y211000D02*
D03*
X205701D02*
D03*
X260098Y274000D02*
D03*
X247500D02*
D03*
X229000D02*
D03*
X241598D02*
D03*
D25*
X265500Y192581D02*
D03*
Y203419D02*
D03*
X275000Y203500D02*
D03*
Y192663D02*
D03*
D26*
X247500Y207500D02*
D03*
D27*
X255276Y212421D02*
D03*
Y210453D02*
D03*
X255276Y208484D02*
D03*
Y206516D02*
D03*
X255276Y204547D02*
D03*
X255276Y202579D02*
D03*
X239724Y202579D02*
D03*
X239724Y204547D02*
D03*
X239724Y206516D02*
D03*
X239724Y208484D02*
D03*
X239724Y210453D02*
D03*
X239724Y212421D02*
D03*
D28*
X252421Y199626D02*
D03*
X250453Y199626D02*
D03*
X248484Y199626D02*
D03*
X246516Y199626D02*
D03*
X244547D02*
D03*
X242579Y199626D02*
D03*
X242579Y215374D02*
D03*
X244547Y215374D02*
D03*
X246516Y215374D02*
D03*
X248484Y215374D02*
D03*
X250453Y215374D02*
D03*
X252421Y215374D02*
D03*
D29*
X237216Y222000D02*
D03*
X226783D02*
D03*
X261717D02*
D03*
X251284D02*
D03*
X250716Y230000D02*
D03*
X240283D02*
D03*
D30*
X400000Y282594D02*
D03*
Y294406D02*
D03*
D31*
X398098Y253500D02*
D03*
X385500D02*
D03*
D50*
X370102Y293500D02*
X381081D01*
X250716Y230000D02*
X252500D01*
X261717Y220721D02*
Y222000D01*
X265419Y203500D02*
X265500Y203419D01*
Y206000D01*
X275000Y203500D02*
Y206000D01*
X274500Y204000D02*
X275000Y203500D01*
X342000Y249051D02*
Y253500D01*
Y267898D02*
X342069Y267967D01*
X357898Y293500D02*
X358000Y293398D01*
X363500Y249248D02*
Y253000D01*
X362500Y273500D02*
Y276177D01*
X362823Y276500D01*
X370500Y242500D02*
X373500D01*
X373681Y270590D02*
Y270681D01*
X373500Y267752D02*
Y270409D01*
X373681Y270590D01*
X370500Y273000D02*
Y276500D01*
Y282000D02*
X373500Y285000D01*
X380500Y227500D02*
X382000Y226000D01*
X380500Y233828D02*
Y235500D01*
Y233828D02*
X381672Y235000D01*
X378500Y246172D02*
X379672Y245000D01*
X377497Y254003D02*
X378500Y253000D01*
X386000Y226000D02*
X386041Y226041D01*
X386000Y245000D02*
X388500D01*
X387698Y284698D02*
Y284698D01*
X396919Y235000D02*
X397000Y235081D01*
X397811Y245000D02*
X398000Y244811D01*
X395500Y253500D02*
X398098D01*
X395000Y293500D02*
X396000Y294500D01*
X403000Y274000D02*
Y277000D01*
X409465Y254024D02*
X409488Y254000D01*
X437000Y229500D02*
X438079Y230579D01*
X437626Y226000D02*
X438079Y225547D01*
Y234043D02*
X438260Y234224D01*
X442000Y227000D02*
X445500Y230500D01*
X445559Y234043D02*
X445740Y234224D01*
X244500Y222000D02*
X246000Y223500D01*
X252421Y215374D02*
X252484Y215437D01*
X254937D01*
X265500Y192581D02*
X265541Y192622D01*
X265500Y206000D02*
X266500Y207000D01*
X274959Y192622D02*
X275000Y192663D01*
X274000Y207000D02*
X275000Y206000D01*
X317000Y272000D02*
X318000Y273000D01*
X317000Y267898D02*
Y272000D01*
X322000Y267898D02*
Y271500D01*
X332000Y267898D02*
Y279000D01*
X329500Y281500D02*
X332000Y279000D01*
X329500Y281500D02*
Y287500D01*
X337000Y249000D02*
Y255000D01*
X342000Y267898D02*
Y280500D01*
X337000Y267898D02*
Y280500D01*
X347000Y267898D02*
Y279500D01*
X349500Y282000D01*
Y287443D01*
X349557Y287500D01*
X355000Y256500D02*
X358500Y253000D01*
X363500D02*
X365500Y255000D01*
X363500Y263500D02*
Y267752D01*
Y272500D01*
X362500Y273500D02*
X363500Y272500D01*
X370500Y276500D02*
Y282000D01*
X378500Y246172D02*
Y253000D01*
X398000Y240500D02*
Y244811D01*
X397000Y239500D02*
X398000Y240500D01*
X397000Y235081D02*
Y239500D01*
X401000Y235000D02*
X406500Y229500D01*
X403000Y274000D02*
X405000Y272000D01*
X409441D02*
X409465Y271976D01*
X409500Y272012D01*
X438079Y224957D02*
Y225547D01*
Y224957D02*
X438260Y224776D01*
X438079Y230579D02*
Y234043D01*
X445500Y230500D02*
Y231500D01*
X445559Y231559D02*
Y234043D01*
X445500Y231500D02*
X445559Y231559D01*
X246000Y223500D02*
Y236500D01*
X337000Y255000D02*
X342000Y260000D01*
X358000Y277500D02*
Y293398D01*
X380500Y227500D02*
Y233828D01*
X442000Y224776D02*
Y227000D01*
X289000Y241000D02*
Y287000D01*
X237216Y222000D02*
X244500D01*
X246000Y236500D02*
X247500Y238000D01*
X261717Y222000D02*
X270000D01*
X318000Y273000D02*
X320500D01*
X382000Y226000D02*
X386000D01*
X381672Y235000D02*
X386081D01*
X368500Y244500D02*
X370500Y242500D01*
X379672Y245000D02*
X386000D01*
X383000Y253500D02*
X385500D01*
X364000Y258500D02*
X378000D01*
X376500Y273500D02*
X376500D01*
X373500Y285000D02*
X375905D01*
X376000Y284906D01*
X396919Y235000D02*
X401000D01*
X391500Y249500D02*
X395500Y253500D01*
X400000Y282594D02*
X400500Y282095D01*
X391919Y293500D02*
X392000Y293419D01*
Y289000D02*
Y293419D01*
X391919Y293500D02*
X395000D01*
X396000Y294500D02*
X399905D01*
X400000Y294406D01*
X254937Y215437D02*
X255000Y215500D01*
X265541Y192622D02*
X274959D01*
X266500Y207000D02*
X274000D01*
X266000Y238000D02*
X271500Y243500D01*
X268500Y230000D02*
X280000Y241500D01*
X320500Y273000D02*
X322000Y271500D01*
X342000Y253500D02*
X345000Y256500D01*
X352000Y267898D02*
Y271500D01*
X336000Y281500D02*
X337000Y280500D01*
X336000Y281500D02*
Y287314D01*
X336186Y287500D01*
X342000Y280500D02*
X343000Y281500D01*
Y287371D01*
X342871Y287500D02*
X343000Y287371D01*
X373500Y242500D02*
X380500Y235500D01*
X378000Y258500D02*
X383000Y253500D01*
X376500Y255000D02*
X377497Y254003D01*
X365500Y255000D02*
X376500D01*
X358500Y253000D02*
X364000Y258500D01*
X368500Y244500D02*
Y249248D01*
X373681Y270681D02*
X376500Y273500D01*
X368500Y267752D02*
Y271000D01*
X370500Y273000D01*
X391500Y248000D02*
Y249500D01*
X405000Y272000D02*
X409441D01*
X400500Y279500D02*
X403000Y277000D01*
X400500Y279500D02*
Y282095D01*
X270000Y222000D02*
X289000Y241000D01*
X360000Y260000D02*
X363500Y263500D01*
X280000Y241500D02*
Y287000D01*
X271500Y243500D02*
Y287000D01*
X252500Y230000D02*
X268500D01*
X247500Y238000D02*
X266000D01*
X342000Y260000D02*
X360000D01*
X406500Y229500D02*
X437000D01*
X345000Y256500D02*
X355000D01*
X388500Y245000D02*
X391500Y248000D01*
X387698Y284698D02*
X392000Y289000D01*
X376500Y273500D02*
X387698Y284698D01*
X352000Y271500D02*
X358000Y277500D01*
X397811Y226000D02*
X437626D01*
D51*
X222027Y219973D02*
X222996Y218988D01*
X222981Y217035D02*
X222996Y218988D01*
X218500Y220000D02*
X222027Y219973D01*
X224990Y211007D02*
X224997D01*
X233291Y206565D02*
X233871Y206561D01*
X234500Y212500D02*
X236547Y210453D01*
X234500Y222000D02*
X237216D01*
X241402Y193000D02*
X242568Y194166D01*
X252500Y198000D02*
X254000Y196500D01*
Y193000D02*
Y196500D01*
X260500Y204500D02*
X261500Y203500D01*
X230000Y213000D02*
Y217500D01*
X234500Y212500D02*
Y215500D01*
X242568Y199615D02*
X242579Y199626D01*
X252421Y199626D02*
X252500Y199547D01*
Y198000D02*
Y199547D01*
X242568Y194166D02*
Y199615D01*
X218299Y211000D02*
X224990Y211007D01*
X255276Y204547D02*
X255323Y204500D01*
X233871Y206561D02*
X239724Y206516D01*
X231457Y204547D02*
X239724D01*
X236547Y210453D02*
X239724D01*
X230000Y217500D02*
X234500Y222000D01*
X261500Y203500D02*
X265419D01*
X262500Y210500D02*
X263937Y211937D01*
X261717Y220721D02*
X263937Y218500D01*
X230000Y213000D02*
X234512Y208488D01*
X239720D01*
X239724Y208484D01*
X263937Y211937D02*
Y218500D01*
X255323Y204500D02*
X260500D01*
X255276Y210453D02*
X262500D01*
X222981Y217035D02*
X233291Y206565D01*
X224997Y211007D02*
X231457Y204547D01*
D52*
X255276Y212421D02*
X255315Y212460D01*
X257738D02*
X258500Y213222D01*
X257000Y218000D02*
Y225500D01*
Y218000D02*
X258500Y216500D01*
Y213222D02*
Y216500D01*
X255315Y212460D02*
X257738D01*
X252500Y230000D02*
X257000Y225500D01*
D53*
X428000Y283500D02*
Y287500D01*
X409500Y272012D02*
Y287500D01*
X433874Y263000D02*
X434000Y263126D01*
D54*
X418201Y257701D02*
Y287505D01*
X409488Y254000D02*
X414500D01*
X418201Y257701D01*
D55*
X214000Y196500D02*
D03*
Y286000D02*
D03*
X441000Y196500D02*
D03*
Y286000D02*
D03*
D56*
X436000Y239000D02*
D03*
X205902Y220000D02*
D03*
X205701Y211000D02*
D03*
X251284Y222000D02*
D03*
X255000Y215500D02*
D03*
X234500D02*
D03*
X244250Y286500D02*
D03*
X247500Y274000D02*
D03*
X241598D02*
D03*
X364094Y285000D02*
D03*
X406419Y222000D02*
D03*
X411419D02*
D03*
X396919Y235000D02*
D03*
X397811Y245000D02*
D03*
X406500Y235000D02*
D03*
X411500Y233500D02*
D03*
X445919Y219500D02*
D03*
X440919D02*
D03*
X435919D02*
D03*
X431419Y222000D02*
D03*
X426419D02*
D03*
X445740Y234224D02*
D03*
X440919Y239000D02*
D03*
X445919D02*
D03*
X431500Y233500D02*
D03*
X426500D02*
D03*
X254000Y193000D02*
D03*
X241402D02*
D03*
X240283Y230000D02*
D03*
X247081Y263000D02*
D03*
X241000D02*
D03*
X275000Y192663D02*
D03*
X265500Y192581D02*
D03*
X381081Y293500D02*
D03*
X370102D02*
D03*
X442000Y227000D02*
D03*
X226783Y222000D02*
D03*
X257500Y286500D02*
D03*
X260098Y274000D02*
D03*
X358500Y267752D02*
D03*
X327000Y267949D02*
D03*
X450919Y219500D02*
D03*
X421419Y222000D02*
D03*
X416419D02*
D03*
X450919Y239000D02*
D03*
Y234500D02*
D03*
X416500Y233500D02*
D03*
X421500D02*
D03*
X257919Y263000D02*
D03*
X450919Y229500D02*
D03*
Y224500D02*
D03*
D57*
X317000Y267898D02*
D03*
X373500Y249248D02*
D03*
X229000Y274000D02*
D03*
X231500Y286500D02*
D03*
X322000Y267898D02*
D03*
X230163Y263000D02*
D03*
D58*
X243563Y203563D02*
D03*
Y207500D02*
D03*
Y211437D02*
D03*
X247500Y203563D02*
D03*
X247500Y207500D02*
D03*
X247500Y211437D02*
D03*
X251437Y203563D02*
D03*
X251437Y207500D02*
D03*
X251437Y211437D02*
D03*
M02*
