G04*
G04 #@! TF.GenerationSoftware,Altium Limited,Altium Designer,20.1.14 (287)*
G04*
G04 Layer_Color=8421504*
%FSLAX25Y25*%
%MOIN*%
G70*
G04*
G04 #@! TF.SameCoordinates,ACA2496A-1981-4D04-82D2-C06787754FA9*
G04*
G04*
G04 #@! TF.FilePolarity,Positive*
G04*
G01*
G75*
%ADD15O,0.04000X0.12000*%
%ADD16O,0.02362X0.08661*%
%ADD17R,0.05118X0.07087*%
%ADD18R,0.07087X0.03543*%
%ADD19R,0.24410X0.21457*%
%ADD20R,0.05315X0.06102*%
%ADD21O,0.02362X0.07480*%
%ADD22R,0.02362X0.03543*%
%ADD23R,0.05140X0.06922*%
%ADD24R,0.05315X0.07480*%
%ADD25R,0.06922X0.05140*%
%ADD26R,0.10236X0.10630*%
%ADD27R,0.03347X0.01378*%
%ADD28R,0.01378X0.03150*%
%ADD29R,0.03543X0.06102*%
%ADD30R,0.07087X0.05118*%
%ADD31R,0.03937X0.05906*%
D15*
X244250Y286500D02*
D03*
X349557Y287500D02*
D03*
X428000D02*
D03*
X257500Y286500D02*
D03*
X231500D02*
D03*
X289000Y287000D02*
D03*
X280000D02*
D03*
X271500D02*
D03*
X342871Y287500D02*
D03*
X336186D02*
D03*
X329500D02*
D03*
X409500D02*
D03*
X418201Y287505D02*
D03*
D16*
X352000Y267898D02*
D03*
X347000D02*
D03*
X342000D02*
D03*
X337000D02*
D03*
X332000D02*
D03*
X327000D02*
D03*
X322000D02*
D03*
X317000D02*
D03*
X352000Y249000D02*
D03*
X347000D02*
D03*
X342000D02*
D03*
X337000D02*
D03*
X332000D02*
D03*
X327000D02*
D03*
X322000D02*
D03*
X317000D02*
D03*
D17*
X370102Y293500D02*
D03*
X357898D02*
D03*
X364094Y285000D02*
D03*
X375905D02*
D03*
X397811Y226000D02*
D03*
X386000D02*
D03*
X397811Y245000D02*
D03*
X386000D02*
D03*
D18*
X409465Y271976D02*
D03*
X409465Y254024D02*
D03*
D19*
X433874Y263000D02*
D03*
D20*
X362823Y276500D02*
D03*
X370500D02*
D03*
D21*
X373500Y267752D02*
D03*
X368500D02*
D03*
X363500D02*
D03*
X358500D02*
D03*
X373500Y249248D02*
D03*
X368500D02*
D03*
X363500D02*
D03*
X358500D02*
D03*
D22*
X438260Y224776D02*
D03*
X442000D02*
D03*
X445740D02*
D03*
Y234224D02*
D03*
X438260D02*
D03*
D23*
X391919Y293500D02*
D03*
X381081D02*
D03*
X257919Y263000D02*
D03*
X247081D02*
D03*
X241000D02*
D03*
X230163D02*
D03*
X386081Y235000D02*
D03*
X396919D02*
D03*
D24*
X241402Y193000D02*
D03*
X254000D02*
D03*
X218500Y220000D02*
D03*
X205902D02*
D03*
X218299Y211000D02*
D03*
X205701D02*
D03*
X260098Y274000D02*
D03*
X247500D02*
D03*
X229000D02*
D03*
X241598D02*
D03*
D25*
X265500Y192581D02*
D03*
Y203419D02*
D03*
X275000Y203500D02*
D03*
Y192663D02*
D03*
D26*
X247500Y207500D02*
D03*
D27*
X255276Y212421D02*
D03*
Y210453D02*
D03*
X255276Y208484D02*
D03*
Y206516D02*
D03*
X255276Y204547D02*
D03*
X255276Y202579D02*
D03*
X239724Y202579D02*
D03*
X239724Y204547D02*
D03*
X239724Y206516D02*
D03*
X239724Y208484D02*
D03*
X239724Y210453D02*
D03*
X239724Y212421D02*
D03*
D28*
X252421Y199626D02*
D03*
X250453Y199626D02*
D03*
X248484Y199626D02*
D03*
X246516Y199626D02*
D03*
X244547D02*
D03*
X242579Y199626D02*
D03*
X242579Y215374D02*
D03*
X244547Y215374D02*
D03*
X246516Y215374D02*
D03*
X248484Y215374D02*
D03*
X250453Y215374D02*
D03*
X252421Y215374D02*
D03*
D29*
X237216Y222000D02*
D03*
X226783D02*
D03*
X261717D02*
D03*
X251284D02*
D03*
X250716Y230000D02*
D03*
X240283D02*
D03*
D30*
X400000Y282594D02*
D03*
Y294406D02*
D03*
D31*
X398098Y253500D02*
D03*
X385500D02*
D03*
M02*
