M48
;Layer_Color=9474304
;FILE_FORMAT=2:5
INCH,TZ
;TYPE=PLATED
T1F00S00C0.00787
T2F00S00C0.01900
;TYPE=NON_PLATED
T3F00S00C0.11200
%
T01
X243563Y203563
Y207500
Y211437
X247500Y211437
X247500Y207500
X247500Y203563
X251437Y203563
X251437Y207500
X251437Y211437
T02
X317000Y267898
X322000
X327000Y267949
X358500Y267752
X364094Y285000
X370102Y293500
X381081
X373500Y249248
X397811Y245000
X396919Y235000
X406500
X411500Y233500
X416500
X421500
X426500
X431500
X436000Y239000
X440919
X445919
X445740Y234224
X450919Y234500
Y239000
Y229500
Y224500
Y219500
X445919
X440919
X435919
X431419Y222000
X426419
X421419
X416419
X411419
X406419
X442000Y227000
X251284Y222000
X255000Y215500
X234500
X226783Y222000
X240283Y230000
X241000Y263000
X247081
X257919
X260098Y274000
X247500
X241598
X229000
X230163Y263000
X231500Y286500
X244250
X257500
X254000Y193000
X265500Y192581
X275000Y192663
X241402Y193000
X205701Y211000
X205902Y220000
T03
X441000Y196500
Y286000
X214000
Y196500
M30
