G04*
G04 #@! TF.GenerationSoftware,Altium Limited,Altium Designer,20.1.14 (287)*
G04*
G04 Layer_Color=16711935*
%FSLAX25Y25*%
%MOIN*%
G70*
G04*
G04 #@! TF.SameCoordinates,BD7075AB-977C-41C2-8E30-DA33ADF5C154*
G04*
G04*
G04 #@! TF.FilePolarity,Positive*
G04*
G01*
G75*
%ADD12C,0.00787*%
%ADD63C,0.00394*%
D12*
X380201Y290350D02*
X392799D01*
X380201D02*
Y296650D01*
X392799D01*
Y290350D02*
Y296650D01*
X262350Y204299D02*
X268650D01*
X262350Y191701D02*
Y204299D01*
Y191701D02*
X268650D01*
Y204299D01*
X278150Y191782D02*
Y204380D01*
X271850Y191782D02*
X278150D01*
X271850D02*
Y204380D01*
X278150D01*
X246201Y259850D02*
X258799D01*
X246201D02*
Y266150D01*
X258799D01*
Y259850D02*
Y266150D01*
X229282Y259850D02*
Y266150D01*
Y259850D02*
X241880D01*
Y266150D01*
X229282D02*
X241880D01*
X385201Y238150D02*
X397799D01*
Y231850D02*
Y238150D01*
X385201Y231850D02*
X397799D01*
X385201D02*
Y238150D01*
X385500Y250153D02*
X398098D01*
X385500D02*
Y256846D01*
X398098D01*
Y250153D02*
Y256846D01*
D63*
X320327Y254118D02*
X320063Y255102D01*
X319342Y255823D01*
X318358Y256087D01*
X317374Y255823D01*
X316653Y255102D01*
X316390Y254118D01*
X316653Y253134D01*
X317374Y252413D01*
X318358Y252150D01*
X319342Y252413D01*
X320063Y253134D01*
X320327Y254118D01*
X361669Y254169D02*
X361406Y255153D01*
X360685Y255874D01*
X359701Y256138D01*
X358717Y255874D01*
X357996Y255153D01*
X357732Y254169D01*
X357996Y253185D01*
X358717Y252465D01*
X359701Y252201D01*
X360685Y252465D01*
X361406Y253185D01*
X361669Y254169D01*
X253996Y212028D02*
X253732Y213012D01*
X253012Y213732D01*
X252028Y213996D01*
X251043Y213732D01*
X250323Y213012D01*
X250059Y212028D01*
X250323Y211043D01*
X251043Y210323D01*
X252028Y210059D01*
X253012Y210323D01*
X253732Y211043D01*
X253996Y212028D01*
X354185Y250575D02*
Y266323D01*
X314815Y250575D02*
Y266323D01*
X354185D01*
X314815Y250575D02*
X354185D01*
X370496Y290154D02*
Y296847D01*
X357504Y290154D02*
Y296847D01*
Y290154D02*
X370496D01*
X357504Y296847D02*
X370496D01*
X417929Y250008D02*
Y275992D01*
X442339Y250008D02*
Y275992D01*
X417929D02*
X442339D01*
X417929Y250008D02*
X442339Y250008D01*
X362331Y279354D02*
X370992D01*
X362331Y273646D02*
X370992D01*
X362331D02*
Y279354D01*
X370992Y273646D02*
Y279354D01*
X375842Y250626D02*
Y266374D01*
X356157Y250626D02*
Y266374D01*
X375842D01*
X356157Y250626D02*
X375842D01*
X436095Y226153D02*
X447905D01*
X436095Y232846D02*
X447905D01*
X436095Y226153D02*
Y232846D01*
X447905Y226153D02*
Y232846D01*
X363701Y281653D02*
Y288347D01*
X376299Y281653D02*
Y288347D01*
X363701D02*
X376299D01*
X363701Y281653D02*
X376299D01*
X241008Y196543D02*
X254394D01*
X241008Y189457D02*
X254394D01*
X241008D02*
Y196543D01*
X254394Y189457D02*
Y196543D01*
X398205Y222654D02*
Y229346D01*
X385606Y222654D02*
Y229346D01*
Y222654D02*
X398205D01*
X385606Y229346D02*
X398205D01*
X239626Y199626D02*
X239626Y215374D01*
X255374Y199626D02*
X255374Y215374D01*
X239626Y199626D02*
X255374Y199626D01*
X239626Y215374D02*
X255374Y215374D01*
X205508Y216457D02*
X218894D01*
X205508Y223543D02*
X218894D01*
Y216457D02*
Y223543D01*
X205508Y216457D02*
Y223543D01*
X225602Y218752D02*
X238398D01*
X225602Y225248D02*
X238398D01*
Y218752D02*
Y225248D01*
X225602Y218752D02*
Y225248D01*
X250102Y218752D02*
X262898D01*
X250102Y225248D02*
X262898D01*
Y218752D02*
Y225248D01*
X250102Y218752D02*
Y225248D01*
X239102Y226752D02*
X251898D01*
X239102Y233248D02*
X251898D01*
Y226752D02*
Y233248D01*
X239102Y226752D02*
Y233248D01*
X205307Y207457D02*
X218693D01*
X205307Y214543D02*
X218693D01*
Y207457D02*
Y214543D01*
X205307Y207457D02*
Y214543D01*
X247106Y270457D02*
X260492D01*
X247106Y277543D02*
X260492D01*
Y270457D02*
Y277543D01*
X247106Y270457D02*
Y277543D01*
X228606Y277543D02*
X241992D01*
X228606Y270457D02*
X241992D01*
X228606D02*
Y277543D01*
X241992Y270457D02*
Y277543D01*
X396654Y282201D02*
X403346D01*
X396654Y294799D02*
X403346D01*
X396654Y282201D02*
Y294799D01*
X403346Y282201D02*
Y294799D01*
X398205Y241653D02*
Y248346D01*
X385606Y241653D02*
Y248346D01*
Y241653D02*
X398205D01*
X385606Y248346D02*
X398205D01*
M02*
