M48
;Layer_Color=9474304
;FILE_FORMAT=2:5
INCH,LZ
;TYPE=PLATED
T1F00S00C0.01900
;TYPE=NON_PLATED
T2F00S00C0.11200
%
T01
X0322Y0273449
X0327
X03585Y0273252
X03735Y0254748
X0397919Y02545
X04075
X04125Y0253
X04175
X04225
X04275
X04325
X0438366Y025274
X0432419Y02415
X0427419
X0422419
X0417419
X0412419
X0407419
X0398811Y02645
X0399102Y02815
X024775Y0287
X0238
X0249098Y02745
X02485Y02635
T02
X0441Y01965
Y0286
X0214
Y01965
M30
